<?xml version="1.0" encoding="UTF-8" standalone="no"?><svg xmlns="http://www.w3.org/2000/svg" xmlns:xlink="http://www.w3.org/1999/xlink" clip-rule="evenodd" stroke-miterlimit="10" viewBox="0 0 1024 768"><desc>SVG generated by Keynote</desc><defs></defs><g transform="matrix(1.00, 0.00, -0.00, -1.00, 0.0, 768.0)"><path d="M 0.0 768.0 L 1024.0 768.0 L 1024.0 0.0 L 0.0 0.0 Z M 0.0 768.0 " fill="#DCDDE0"></path><image xlink:href="../../23E303F5-9824-457C-8C81-F8A1CCB855A7/assets/544C9B49F21984415098D3837044EB1F.png" width="174.00" height="62.00" transform="matrix(1.00, 0.00, -0.00, -1.00, 425.0, 678.0)"></image><text xml:space="preserve" font-family="HelveticaNeue-Light,Helvetica Neue" font-size="72.0" fill="#002451" transform="matrix(1.00, 0.00, -0.00, -1.00, 427.3, 624.4)">S</text><text xml:space="preserve" font-family="HelveticaNeue-Light,Helvetica Neue" font-size="72.0" fill="#002451" transform="matrix(1.00, 0.00, -0.00, -1.00, 472.7, 624.4)">o</text><text xml:space="preserve" font-family="HelveticaNeue-Light,Helvetica Neue" font-size="72.0" fill="#002451" transform="matrix(1.00, 0.00, -0.00, -1.00, 512.7, 624.4)">l</text><text xml:space="preserve" font-family="HelveticaNeue-Light,Helvetica Neue" font-size="72.0" fill="#002451" transform="matrix(1.00, 0.00, -0.00, -1.00, 526.0, 624.4)">v</text><text xml:space="preserve" font-family="HelveticaNeue-Light,Helvetica Neue" font-size="72.0" fill="#002451" transform="matrix(1.00, 0.00, -0.00, -1.00, 559.3, 624.4)">e</text><image xlink:href="../../8532EDA3-03AF-4F95-ADCC-1003E38AE155/assets/A87AE7982BF1DF835B0DCB214B9B5391.png" width="19.00" height="19.00" transform="matrix(1.00, 0.00, -0.00, -1.00, 63.0, 490.0)"></image><text xml:space="preserve" font-family="HelveticaNeue-Light,Helvetica Neue" font-size="27.0" fill="#144005" transform="matrix(1.00, 0.00, -0.00, -1.00, 66.0, 474.2)">•</text><image xlink:href="../../23E303F5-9824-457C-8C81-F8A1CCB855A7/assets/C976A1F97BA24B1209200CB4D89CF1A8.png" width="497.00" height="42.00" transform="matrix(1.00, 0.00, -0.00, -1.00, 98.0, 498.0)"></image><text xml:space="preserve" font-family="HelveticaNeue-Light,Helvetica Neue" font-size="36.0" fill="#144005" transform="matrix(1.00, 0.00, -0.00, -1.00, 101.0, 470.7)">S</text><text xml:space="preserve" font-family="HelveticaNeue-Light,Helvetica Neue" font-size="36.0" fill="#144005" transform="matrix(1.00, 0.00, -0.00, -1.00, 123.7, 470.7)">e</text><text xml:space="preserve" font-family="HelveticaNeue-Light,Helvetica Neue" font-size="36.0" fill="#144005" transform="matrix(1.00, 0.00, -0.00, -1.00, 142.4, 470.7)">e</text><text xml:space="preserve" font-family="HelveticaNeue-Light,Helvetica Neue" font-size="36.0" fill="#144005" transform="matrix(1.00, 0.00, -0.00, -1.00, 161.0, 470.7)"> </text><text xml:space="preserve" font-family="HelveticaNeue-Light,Helvetica Neue" font-size="36.0" fill="#144005" transform="matrix(1.00, 0.00, -0.00, -1.00, 171.1, 470.7)">e</text><text xml:space="preserve" font-family="HelveticaNeue-Light,Helvetica Neue" font-size="36.0" fill="#144005" transform="matrix(1.00, 0.00, -0.00, -1.00, 189.7, 470.7)">x</text><text xml:space="preserve" font-family="HelveticaNeue-Light,Helvetica Neue" font-size="36.0" fill="#144005" transform="matrix(1.00, 0.00, -0.00, -1.00, 207.1, 470.7)">a</text><text xml:space="preserve" font-family="HelveticaNeue-Light,Helvetica Neue" font-size="36.0" fill="#144005" transform="matrix(1.00, 0.00, -0.00, -1.00, 225.7, 470.7)">m</text><text xml:space="preserve" font-family="HelveticaNeue-Light,Helvetica Neue" font-size="36.0" fill="#144005" transform="matrix(1.00, 0.00, -0.00, -1.00, 255.7, 470.7)">p</text><text xml:space="preserve" font-family="HelveticaNeue-Light,Helvetica Neue" font-size="36.0" fill="#144005" transform="matrix(1.00, 0.00, -0.00, -1.00, 276.4, 470.7)">l</text><text xml:space="preserve" font-family="HelveticaNeue-Light,Helvetica Neue" font-size="36.0" fill="#144005" transform="matrix(1.00, 0.00, -0.00, -1.00, 283.1, 470.7)">e</text><text xml:space="preserve" font-family="HelveticaNeue-Light,Helvetica Neue" font-size="36.0" fill="#144005" transform="matrix(1.00, 0.00, -0.00, -1.00, 301.7, 470.7)"> </text><text xml:space="preserve" font-family="HelveticaNeue-Light,Helvetica Neue" font-size="36.0" fill="#144005" transform="matrix(1.00, 0.00, -0.00, -1.00, 311.7, 470.7)">c</text><text xml:space="preserve" font-family="HelveticaNeue-Light,Helvetica Neue" font-size="36.0" fill="#144005" transform="matrix(1.00, 0.00, -0.00, -1.00, 330.4, 470.7)">o</text><text xml:space="preserve" font-family="HelveticaNeue-Light,Helvetica Neue" font-size="36.0" fill="#144005" transform="matrix(1.00, 0.00, -0.00, -1.00, 350.4, 470.7)">d</text><text xml:space="preserve" font-family="HelveticaNeue-Light,Helvetica Neue" font-size="36.0" fill="#144005" transform="matrix(1.00, 0.00, -0.00, -1.00, 371.1, 470.7)">e</text><text xml:space="preserve" font-family="HelveticaNeue-Light,Helvetica Neue" font-size="36.0" fill="#144005" transform="matrix(1.00, 0.00, -0.00, -1.00, 389.8, 470.7)"> </text><text xml:space="preserve" font-family="HelveticaNeue-Light,Helvetica Neue" font-size="36.0" fill="#144005" transform="matrix(1.00, 0.00, -0.00, -1.00, 399.8, 470.7)">a</text><text xml:space="preserve" font-family="HelveticaNeue-Light,Helvetica Neue" font-size="36.0" fill="#144005" transform="matrix(1.00, 0.00, -0.00, -1.00, 418.5, 470.7)">n</text><text xml:space="preserve" font-family="HelveticaNeue-Light,Helvetica Neue" font-size="36.0" fill="#144005" transform="matrix(1.00, 0.00, -0.00, -1.00, 437.8, 470.7)">d</text><text xml:space="preserve" font-family="HelveticaNeue-Light,Helvetica Neue" font-size="36.0" fill="#144005" transform="matrix(1.00, 0.00, -0.00, -1.00, 458.5, 470.7)"> </text><text xml:space="preserve" font-family="HelveticaNeue-Light,Helvetica Neue" font-size="36.0" fill="#144005" transform="matrix(1.00, 0.00, -0.00, -1.00, 468.5, 470.7)">r</text><text xml:space="preserve" font-family="HelveticaNeue-Light,Helvetica Neue" font-size="36.0" fill="#144005" transform="matrix(1.00, 0.00, -0.00, -1.00, 479.8, 470.7)">u</text><text xml:space="preserve" font-family="HelveticaNeue-Light,Helvetica Neue" font-size="36.0" fill="#144005" transform="matrix(1.00, 0.00, -0.00, -1.00, 499.2, 470.7)">n</text><text xml:space="preserve" font-family="HelveticaNeue-Light,Helvetica Neue" font-size="36.0" fill="#144005" transform="matrix(1.00, 0.00, -0.00, -1.00, 518.5, 470.7)">t</text><text xml:space="preserve" font-family="HelveticaNeue-Light,Helvetica Neue" font-size="36.0" fill="#144005" transform="matrix(1.00, 0.00, -0.00, -1.00, 529.1, 470.7)">i</text><text xml:space="preserve" font-family="HelveticaNeue-Light,Helvetica Neue" font-size="36.0" fill="#144005" transform="matrix(1.00, 0.00, -0.00, -1.00, 535.8, 470.7)">m</text><text xml:space="preserve" font-family="HelveticaNeue-Light,Helvetica Neue" font-size="36.0" fill="#144005" transform="matrix(1.00, 0.00, -0.00, -1.00, 565.8, 470.7)">e</text><text xml:space="preserve" font-family="HelveticaNeue-Light,Helvetica Neue" font-size="36.0" fill="#144005" transform="matrix(1.00, 0.00, -0.00, -1.00, 584.5, 470.7)">.</text><text xml:space="preserve" font-family="HelveticaNeue-Light,Helvetica Neue" font-size="36.0" fill="#144005" transform="matrix(1.00, 0.00, -0.00, -1.00, 594.5, 470.7)"> </text><image xlink:href="../../8532EDA3-03AF-4F95-ADCC-1003E38AE155/assets/A87AE7982BF1DF835B0DCB214B9B5391.png" width="19.00" height="19.00" transform="matrix(1.00, 0.00, -0.00, -1.00, 63.0, 410.0)"></image><text xml:space="preserve" font-family="HelveticaNeue-Light,Helvetica Neue" font-size="27.0" fill="#144005" transform="matrix(1.00, 0.00, -0.00, -1.00, 66.0, 394.2)">•</text><image xlink:href="../../23E303F5-9824-457C-8C81-F8A1CCB855A7/assets/6C19EEA7A70C23E18DA336F26190834E.png" width="495.00" height="42.00" transform="matrix(1.00, 0.00, -0.00, -1.00, 98.0, 418.0)"></image><text xml:space="preserve" font-family="HelveticaNeue-Light,Helvetica Neue" font-size="36.0" fill="#144005" transform="matrix(1.00, 0.00, -0.00, -1.00, 101.0, 390.7)">S</text><text xml:space="preserve" font-family="HelveticaNeue-Light,Helvetica Neue" font-size="36.0" fill="#144005" transform="matrix(1.00, 0.00, -0.00, -1.00, 123.7, 390.7)">t</text><text xml:space="preserve" font-family="HelveticaNeue-Light,Helvetica Neue" font-size="36.0" fill="#144005" transform="matrix(1.00, 0.00, -0.00, -1.00, 134.3, 390.7)">i</text><text xml:space="preserve" font-family="HelveticaNeue-Light,Helvetica Neue" font-size="36.0" fill="#144005" transform="matrix(1.00, 0.00, -0.00, -1.00, 141.0, 390.7)">l</text><text xml:space="preserve" font-family="HelveticaNeue-Light,Helvetica Neue" font-size="36.0" fill="#144005" transform="matrix(1.00, 0.00, -0.00, -1.00, 147.7, 390.7)">l</text><text xml:space="preserve" font-family="HelveticaNeue-Light,Helvetica Neue" font-size="36.0" fill="#144005" transform="matrix(1.00, 0.00, -0.00, -1.00, 154.3, 390.7)"> </text><text xml:space="preserve" font-family="HelveticaNeue-Light,Helvetica Neue" font-size="36.0" fill="#144005" transform="matrix(1.00, 0.00, -0.00, -1.00, 164.3, 390.7)">n</text><text xml:space="preserve" font-family="HelveticaNeue-Light,Helvetica Neue" font-size="36.0" fill="#144005" transform="matrix(1.00, 0.00, -0.00, -1.00, 183.7, 390.7)">e</text><text xml:space="preserve" font-family="HelveticaNeue-Light,Helvetica Neue" font-size="36.0" fill="#144005" transform="matrix(1.00, 0.00, -0.00, -1.00, 202.3, 390.7)">e</text><text xml:space="preserve" font-family="HelveticaNeue-Light,Helvetica Neue" font-size="36.0" fill="#144005" transform="matrix(1.00, 0.00, -0.00, -1.00, 221.0, 390.7)">d</text><text xml:space="preserve" font-family="HelveticaNeue-Light,Helvetica Neue" font-size="36.0" fill="#144005" transform="matrix(1.00, 0.00, -0.00, -1.00, 241.7, 390.7)"> </text><text xml:space="preserve" font-family="HelveticaNeue-Light,Helvetica Neue" font-size="36.0" fill="#144005" transform="matrix(1.00, 0.00, -0.00, -1.00, 251.7, 390.7)">t</text><text xml:space="preserve" font-family="HelveticaNeue-Light,Helvetica Neue" font-size="36.0" fill="#144005" transform="matrix(1.00, 0.00, -0.00, -1.00, 262.4, 390.7)">o</text><text xml:space="preserve" font-family="HelveticaNeue-Light,Helvetica Neue" font-size="36.0" fill="#144005" transform="matrix(1.00, 0.00, -0.00, -1.00, 282.4, 390.7)"> </text><text xml:space="preserve" font-family="HelveticaNeue-Light,Helvetica Neue" font-size="36.0" fill="#144005" transform="matrix(1.00, 0.00, -0.00, -1.00, 292.4, 390.7)">r</text><text xml:space="preserve" font-family="HelveticaNeue-Light,Helvetica Neue" font-size="36.0" fill="#144005" transform="matrix(1.00, 0.00, -0.00, -1.00, 303.1, 390.7)">e</text><text xml:space="preserve" font-family="HelveticaNeue-Light,Helvetica Neue" font-size="36.0" fill="#144005" transform="matrix(1.00, 0.00, -0.00, -1.00, 321.8, 390.7)">ﬁ</text><text xml:space="preserve" font-family="HelveticaNeue-Light,Helvetica Neue" font-size="36.0" fill="#144005" transform="matrix(1.00, 0.00, -0.00, -1.00, 337.7, 390.7)">n</text><text xml:space="preserve" font-family="HelveticaNeue-Light,Helvetica Neue" font-size="36.0" fill="#144005" transform="matrix(1.00, 0.00, -0.00, -1.00, 357.1, 390.7)">e</text><text xml:space="preserve" font-family="HelveticaNeue-Light,Helvetica Neue" font-size="36.0" fill="#144005" transform="matrix(1.00, 0.00, -0.00, -1.00, 375.8, 390.7)"> </text><text xml:space="preserve" font-family="HelveticaNeue-Light,Helvetica Neue" font-size="36.0" fill="#144005" transform="matrix(1.00, 0.00, -0.00, -1.00, 385.8, 390.7)">t</text><text xml:space="preserve" font-family="HelveticaNeue-Light,Helvetica Neue" font-size="36.0" fill="#144005" transform="matrix(1.00, 0.00, -0.00, -1.00, 396.4, 390.7)">h</text><text xml:space="preserve" font-family="HelveticaNeue-Light,Helvetica Neue" font-size="36.0" fill="#144005" transform="matrix(1.00, 0.00, -0.00, -1.00, 415.7, 390.7)">e</text><text xml:space="preserve" font-family="HelveticaNeue-Light,Helvetica Neue" font-size="36.0" fill="#144005" transform="matrix(1.00, 0.00, -0.00, -1.00, 434.4, 390.7)"> </text><text xml:space="preserve" font-family="HelveticaNeue-Light,Helvetica Neue" font-size="36.0" fill="#144005" transform="matrix(1.00, 0.00, -0.00, -1.00, 444.4, 390.7)">o</text><text xml:space="preserve" font-family="HelveticaNeue-Light,Helvetica Neue" font-size="36.0" fill="#144005" transform="matrix(1.00, 0.00, -0.00, -1.00, 464.5, 390.7)">b</text><text xml:space="preserve" font-family="HelveticaNeue-Light,Helvetica Neue" font-size="36.0" fill="#144005" transform="matrix(1.00, 0.00, -0.00, -1.00, 485.1, 390.7)">j</text><text xml:space="preserve" font-family="HelveticaNeue-Light,Helvetica Neue" font-size="36.0" fill="#144005" transform="matrix(1.00, 0.00, -0.00, -1.00, 491.8, 390.7)">e</text><text xml:space="preserve" font-family="HelveticaNeue-Light,Helvetica Neue" font-size="36.0" fill="#144005" transform="matrix(1.00, 0.00, -0.00, -1.00, 510.5, 390.7)">c</text><text xml:space="preserve" font-family="HelveticaNeue-Light,Helvetica Neue" font-size="36.0" fill="#144005" transform="matrix(1.00, 0.00, -0.00, -1.00, 529.1, 390.7)">t</text><text xml:space="preserve" font-family="HelveticaNeue-Light,Helvetica Neue" font-size="36.0" fill="#144005" transform="matrix(1.00, 0.00, -0.00, -1.00, 539.8, 390.7)">i</text><text xml:space="preserve" font-family="HelveticaNeue-Light,Helvetica Neue" font-size="36.0" fill="#144005" transform="matrix(1.00, 0.00, -0.00, -1.00, 546.5, 390.7)">v</text><text xml:space="preserve" font-family="HelveticaNeue-Light,Helvetica Neue" font-size="36.0" fill="#144005" transform="matrix(1.00, 0.00, -0.00, -1.00, 563.1, 390.7)">e</text><text xml:space="preserve" font-family="HelveticaNeue-Light,Helvetica Neue" font-size="36.0" fill="#144005" transform="matrix(1.00, 0.00, -0.00, -1.00, 581.8, 390.7)">.</text><text xml:space="preserve" font-family="HelveticaNeue-Light,Helvetica Neue" font-size="36.0" fill="#144005" transform="matrix(1.00, 0.00, -0.00, -1.00, 591.8, 390.7)"> </text><image xlink:href="../../8532EDA3-03AF-4F95-ADCC-1003E38AE155/assets/A87AE7982BF1DF835B0DCB214B9B5391.png" width="19.00" height="19.00" transform="matrix(1.00, 0.00, -0.00, -1.00, 63.0, 330.0)"></image><text xml:space="preserve" font-family="HelveticaNeue-Light,Helvetica Neue" font-size="27.0" fill="#144005" transform="matrix(1.00, 0.00, -0.00, -1.00, 66.0, 314.2)">•</text><image xlink:href="../../23E303F5-9824-457C-8C81-F8A1CCB855A7/assets/31E9F76BDD70F702F6AEEC7A1AD82EE2.png" width="652.00" height="42.00" transform="matrix(1.00, 0.00, -0.00, -1.00, 98.0, 338.0)"></image><text xml:space="preserve" font-family="HelveticaNeue-Light,Helvetica Neue" font-size="36.0" fill="#144005" transform="matrix(1.00, 0.00, -0.00, -1.00, 101.0, 310.7)">C</text><text xml:space="preserve" font-family="HelveticaNeue-Light,Helvetica Neue" font-size="36.0" fill="#144005" transform="matrix(1.00, 0.00, -0.00, -1.00, 126.3, 310.7)">a</text><text xml:space="preserve" font-family="HelveticaNeue-Light,Helvetica Neue" font-size="36.0" fill="#144005" transform="matrix(1.00, 0.00, -0.00, -1.00, 145.0, 310.7)">n</text><text xml:space="preserve" font-family="HelveticaNeue-Light,Helvetica Neue" font-size="36.0" fill="#144005" transform="matrix(1.00, 0.00, -0.00, -1.00, 164.4, 310.7)">’</text><text xml:space="preserve" font-family="HelveticaNeue-Light,Helvetica Neue" font-size="36.0" fill="#144005" transform="matrix(1.00, 0.00, -0.00, -1.00, 173.7, 310.7)">t</text><text xml:space="preserve" font-family="HelveticaNeue-Light,Helvetica Neue" font-size="36.0" fill="#144005" transform="matrix(1.00, 0.00, -0.00, -1.00, 184.4, 310.7)"> </text><text xml:space="preserve" font-family="HelveticaNeue-Light,Helvetica Neue" font-size="36.0" fill="#144005" transform="matrix(1.00, 0.00, -0.00, -1.00, 194.4, 310.7)">d</text><text xml:space="preserve" font-family="HelveticaNeue-Light,Helvetica Neue" font-size="36.0" fill="#144005" transform="matrix(1.00, 0.00, -0.00, -1.00, 215.0, 310.7)">o</text><text xml:space="preserve" font-family="HelveticaNeue-Light,Helvetica Neue" font-size="36.0" fill="#144005" transform="matrix(1.00, 0.00, -0.00, -1.00, 235.1, 310.7)"> </text><text xml:space="preserve" font-family="HelveticaNeue-Light,Helvetica Neue" font-size="36.0" fill="#144005" transform="matrix(1.00, 0.00, -0.00, -1.00, 245.1, 310.7)">A</text><text xml:space="preserve" font-family="HelveticaNeue-Light,Helvetica Neue" font-size="36.0" fill="#144005" transform="matrix(1.00, 0.00, -0.00, -1.00, 267.8, 310.7)">B</text><text xml:space="preserve" font-family="HelveticaNeue-Light,Helvetica Neue" font-size="36.0" fill="#144005" transform="matrix(1.00, 0.00, -0.00, -1.00, 291.8, 310.7)">S</text><text xml:space="preserve" font-family="HelveticaNeue-Light,Helvetica Neue" font-size="36.0" fill="#144005" transform="matrix(1.00, 0.00, -0.00, -1.00, 314.4, 310.7)">.</text><text xml:space="preserve" font-family="HelveticaNeue-Light,Helvetica Neue" font-size="36.0" fill="#144005" transform="matrix(1.00, 0.00, -0.00, -1.00, 324.5, 310.7)">.</text><text xml:space="preserve" font-family="HelveticaNeue-Light,Helvetica Neue" font-size="36.0" fill="#144005" transform="matrix(1.00, 0.00, -0.00, -1.00, 334.5, 310.7)"> </text><text xml:space="preserve" font-family="HelveticaNeue-Light,Helvetica Neue" font-size="36.0" fill="#144005" transform="matrix(1.00, 0.00, -0.00, -1.00, 344.5, 310.7)">s</text><text xml:space="preserve" font-family="HelveticaNeue-Light,Helvetica Neue" font-size="36.0" fill="#144005" transform="matrix(1.00, 0.00, -0.00, -1.00, 361.8, 310.7)">o</text><text xml:space="preserve" font-family="HelveticaNeue-Light,Helvetica Neue" font-size="36.0" fill="#144005" transform="matrix(1.00, 0.00, -0.00, -1.00, 381.8, 310.7)">,</text><text xml:space="preserve" font-family="HelveticaNeue-Light,Helvetica Neue" font-size="36.0" fill="#144005" transform="matrix(1.00, 0.00, -0.00, -1.00, 391.8, 310.7)"> </text><text xml:space="preserve" font-family="HelveticaNeue-Light,Helvetica Neue" font-size="36.0" fill="#144005" transform="matrix(1.00, 0.00, -0.00, -1.00, 401.8, 310.7)">l</text><text xml:space="preserve" font-family="HelveticaNeue-Light,Helvetica Neue" font-size="36.0" fill="#144005" transform="matrix(1.00, 0.00, -0.00, -1.00, 408.5, 310.7)">e</text><text xml:space="preserve" font-family="HelveticaNeue-Light,Helvetica Neue" font-size="36.0" fill="#144005" transform="matrix(1.00, 0.00, -0.00, -1.00, 427.2, 310.7)">a</text><text xml:space="preserve" font-family="HelveticaNeue-Light,Helvetica Neue" font-size="36.0" fill="#144005" transform="matrix(1.00, 0.00, -0.00, -1.00, 445.8, 310.7)">r</text><text xml:space="preserve" font-family="HelveticaNeue-Light,Helvetica Neue" font-size="36.0" fill="#144005" transform="matrix(1.00, 0.00, -0.00, -1.00, 457.8, 310.7)">n</text><text xml:space="preserve" font-family="HelveticaNeue-Light,Helvetica Neue" font-size="36.0" fill="#144005" transform="matrix(1.00, 0.00, -0.00, -1.00, 477.2, 310.7)">i</text><text xml:space="preserve" font-family="HelveticaNeue-Light,Helvetica Neue" font-size="36.0" fill="#144005" transform="matrix(1.00, 0.00, -0.00, -1.00, 483.8, 310.7)">n</text><text xml:space="preserve" font-family="HelveticaNeue-Light,Helvetica Neue" font-size="36.0" fill="#144005" transform="matrix(1.00, 0.00, -0.00, -1.00, 503.2, 310.7)">g</text><text xml:space="preserve" font-family="HelveticaNeue-Light,Helvetica Neue" font-size="36.0" fill="#144005" transform="matrix(1.00, 0.00, -0.00, -1.00, 523.2, 310.7)"> </text><text xml:space="preserve" font-family="HelveticaNeue-Light,Helvetica Neue" font-size="36.0" fill="#144005" transform="matrix(1.00, 0.00, -0.00, -1.00, 533.2, 310.7)">t</text><text xml:space="preserve" font-family="HelveticaNeue-Light,Helvetica Neue" font-size="36.0" fill="#144005" transform="matrix(1.00, 0.00, -0.00, -1.00, 543.8, 310.7)">o</text><text xml:space="preserve" font-family="HelveticaNeue-Light,Helvetica Neue" font-size="36.0" fill="#144005" transform="matrix(1.00, 0.00, -0.00, -1.00, 563.9, 310.7)"> </text><text xml:space="preserve" font-family="HelveticaNeue-Light,Helvetica Neue" font-size="36.0" fill="#144005" transform="matrix(1.00, 0.00, -0.00, -1.00, 573.9, 310.7)">h</text><text xml:space="preserve" font-family="HelveticaNeue-Light,Helvetica Neue" font-size="36.0" fill="#144005" transform="matrix(1.00, 0.00, -0.00, -1.00, 593.2, 310.7)">a</text><text xml:space="preserve" font-family="HelveticaNeue-Light,Helvetica Neue" font-size="36.0" fill="#144005" transform="matrix(1.00, 0.00, -0.00, -1.00, 611.9, 310.7)">n</text><text xml:space="preserve" font-family="HelveticaNeue-Light,Helvetica Neue" font-size="36.0" fill="#144005" transform="matrix(1.00, 0.00, -0.00, -1.00, 631.2, 310.7)">d</text><text xml:space="preserve" font-family="HelveticaNeue-Light,Helvetica Neue" font-size="36.0" fill="#144005" transform="matrix(1.00, 0.00, -0.00, -1.00, 651.9, 310.7)">l</text><text xml:space="preserve" font-family="HelveticaNeue-Light,Helvetica Neue" font-size="36.0" fill="#144005" transform="matrix(1.00, 0.00, -0.00, -1.00, 658.5, 310.7)">e</text><text xml:space="preserve" font-family="HelveticaNeue-Light,Helvetica Neue" font-size="36.0" fill="#144005" transform="matrix(1.00, 0.00, -0.00, -1.00, 677.2, 310.7)"> </text><text xml:space="preserve" font-family="HelveticaNeue-Light,Helvetica Neue" font-size="36.0" fill="#144005" transform="matrix(1.00, 0.00, -0.00, -1.00, 687.2, 310.7)">t</text><text xml:space="preserve" font-family="HelveticaNeue-Light,Helvetica Neue" font-size="36.0" fill="#144005" transform="matrix(1.00, 0.00, -0.00, -1.00, 697.9, 310.7)">h</text><text xml:space="preserve" font-family="HelveticaNeue-Light,Helvetica Neue" font-size="36.0" fill="#144005" transform="matrix(1.00, 0.00, -0.00, -1.00, 717.2, 310.7)">a</text><text xml:space="preserve" font-family="HelveticaNeue-Light,Helvetica Neue" font-size="36.0" fill="#144005" transform="matrix(1.00, 0.00, -0.00, -1.00, 735.9, 310.7)">t</text><text xml:space="preserve" font-family="HelveticaNeue-Light,Helvetica Neue" font-size="36.0" fill="#144005" transform="matrix(1.00, 0.00, -0.00, -1.00, 746.6, 310.7)"> </text><image xlink:href="../../8532EDA3-03AF-4F95-ADCC-1003E38AE155/assets/A87AE7982BF1DF835B0DCB214B9B5391.png" width="19.00" height="19.00" transform="matrix(1.00, 0.00, -0.00, -1.00, 98.0, 250.0)"></image><text xml:space="preserve" font-family="HelveticaNeue-Light,Helvetica Neue" font-size="27.0" fill="#144005" transform="matrix(1.00, 0.00, -0.00, -1.00, 101.0, 234.2)">•</text><image xlink:href="../../23E303F5-9824-457C-8C81-F8A1CCB855A7/assets/35C7C75BBC63AD47B107682E3D67113B.png" width="197.00" height="35.00" transform="matrix(1.00, 0.00, -0.00, -1.00, 134.0, 258.0)"></image><text xml:space="preserve" font-family="HelveticaNeue-Light,Helvetica Neue" font-size="36.0" fill="#144005" transform="matrix(1.00, 0.00, -0.00, -1.00, 136.0, 230.7)">i</text><text xml:space="preserve" font-family="HelveticaNeue-Light,Helvetica Neue" font-size="36.0" fill="#144005" transform="matrix(1.00, 0.00, -0.00, -1.00, 142.7, 230.7)">t</text><text xml:space="preserve" font-family="HelveticaNeue-Light,Helvetica Neue" font-size="36.0" fill="#144005" transform="matrix(1.00, 0.00, -0.00, -1.00, 153.3, 230.7)">’</text><text xml:space="preserve" font-family="HelveticaNeue-Light,Helvetica Neue" font-size="36.0" fill="#144005" transform="matrix(1.00, 0.00, -0.00, -1.00, 159.3, 230.7)">s</text><text xml:space="preserve" font-family="HelveticaNeue-Light,Helvetica Neue" font-size="36.0" fill="#144005" transform="matrix(1.00, 0.00, -0.00, -1.00, 176.6, 230.7)"> </text><text xml:space="preserve" font-family="HelveticaNeue-Light,Helvetica Neue" font-size="36.0" fill="#144005" transform="matrix(1.00, 0.00, -0.00, -1.00, 186.7, 230.7)">n</text><text xml:space="preserve" font-family="HelveticaNeue-Light,Helvetica Neue" font-size="36.0" fill="#144005" transform="matrix(1.00, 0.00, -0.00, -1.00, 206.0, 230.7)">o</text><text xml:space="preserve" font-family="HelveticaNeue-Light,Helvetica Neue" font-size="36.0" fill="#144005" transform="matrix(1.00, 0.00, -0.00, -1.00, 226.0, 230.7)">n</text><text xml:space="preserve" font-family="HelveticaNeue-Light,Helvetica Neue" font-size="36.0" fill="#144005" transform="matrix(1.00, 0.00, -0.00, -1.00, 245.3, 230.7)">l</text><text xml:space="preserve" font-family="HelveticaNeue-Light,Helvetica Neue" font-size="36.0" fill="#144005" transform="matrix(1.00, 0.00, -0.00, -1.00, 252.0, 230.7)">i</text><text xml:space="preserve" font-family="HelveticaNeue-Light,Helvetica Neue" font-size="36.0" fill="#144005" transform="matrix(1.00, 0.00, -0.00, -1.00, 258.7, 230.7)">n</text><text xml:space="preserve" font-family="HelveticaNeue-Light,Helvetica Neue" font-size="36.0" fill="#144005" transform="matrix(1.00, 0.00, -0.00, -1.00, 278.0, 230.7)">e</text><text xml:space="preserve" font-family="HelveticaNeue-Light,Helvetica Neue" font-size="36.0" fill="#144005" transform="matrix(1.00, 0.00, -0.00, -1.00, 296.7, 230.7)">a</text><text xml:space="preserve" font-family="HelveticaNeue-Light,Helvetica Neue" font-size="36.0" fill="#144005" transform="matrix(1.00, 0.00, -0.00, -1.00, 315.4, 230.7)">r</text><text xml:space="preserve" font-family="HelveticaNeue-Light,Helvetica Neue" font-size="36.0" fill="#144005" transform="matrix(1.00, 0.00, -0.00, -1.00, 326.7, 230.7)"> </text><image xlink:href="../../8532EDA3-03AF-4F95-ADCC-1003E38AE155/assets/A87AE7982BF1DF835B0DCB214B9B5391.png" width="19.00" height="19.00" transform="matrix(1.00, 0.00, -0.00, -1.00, 63.0, 170.0)"></image><text xml:space="preserve" font-family="HelveticaNeue-Light,Helvetica Neue" font-size="27.0" fill="#144005" transform="matrix(1.00, 0.00, -0.00, -1.00, 66.0, 154.2)">•</text><image xlink:href="../../23E303F5-9824-457C-8C81-F8A1CCB855A7/assets/FECD603AF6F2FE1B51AAC5AEBDE66C0C.png" width="465.00" height="42.00" transform="matrix(1.00, 0.00, -0.00, -1.00, 99.0, 178.0)"></image><text xml:space="preserve" font-family="HelveticaNeue-Light,Helvetica Neue" font-size="36.0" fill="#144005" transform="matrix(1.00, 0.00, -0.00, -1.00, 101.0, 150.7)">I</text><text xml:space="preserve" font-family="HelveticaNeue-Light,Helvetica Neue" font-size="36.0" fill="#144005" transform="matrix(1.00, 0.00, -0.00, -1.00, 109.0, 150.7)">t</text><text xml:space="preserve" font-family="HelveticaNeue-Light,Helvetica Neue" font-size="36.0" fill="#144005" transform="matrix(1.00, 0.00, -0.00, -1.00, 119.6, 150.7)">’</text><text xml:space="preserve" font-family="HelveticaNeue-Light,Helvetica Neue" font-size="36.0" fill="#144005" transform="matrix(1.00, 0.00, -0.00, -1.00, 125.7, 150.7)">s</text><text xml:space="preserve" font-family="HelveticaNeue-Light,Helvetica Neue" font-size="36.0" fill="#144005" transform="matrix(1.00, 0.00, -0.00, -1.00, 143.0, 150.7)"> </text><text xml:space="preserve" font-family="HelveticaNeue-Light,Helvetica Neue" font-size="36.0" fill="#144005" transform="matrix(1.00, 0.00, -0.00, -1.00, 153.0, 150.7)">b</text><text xml:space="preserve" font-family="HelveticaNeue-Light,Helvetica Neue" font-size="36.0" fill="#144005" transform="matrix(1.00, 0.00, -0.00, -1.00, 173.6, 150.7)">e</text><text xml:space="preserve" font-family="HelveticaNeue-Light,Helvetica Neue" font-size="36.0" fill="#144005" transform="matrix(1.00, 0.00, -0.00, -1.00, 192.3, 150.7)">e</text><text xml:space="preserve" font-family="HelveticaNeue-Light,Helvetica Neue" font-size="36.0" fill="#144005" transform="matrix(1.00, 0.00, -0.00, -1.00, 211.0, 150.7)">n</text><text xml:space="preserve" font-family="HelveticaNeue-Light,Helvetica Neue" font-size="36.0" fill="#144005" transform="matrix(1.00, 0.00, -0.00, -1.00, 230.3, 150.7)"> </text><text xml:space="preserve" font-family="HelveticaNeue-Light,Helvetica Neue" font-size="36.0" fill="#144005" transform="matrix(1.00, 0.00, -0.00, -1.00, 240.4, 150.7)">a</text><text xml:space="preserve" font-family="HelveticaNeue-Light,Helvetica Neue" font-size="36.0" fill="#144005" transform="matrix(1.00, 0.00, -0.00, -1.00, 259.0, 150.7)"> </text><text xml:space="preserve" font-family="HelveticaNeue-Light,Helvetica Neue" font-size="36.0" fill="#144005" transform="matrix(1.00, 0.00, -0.00, -1.00, 269.0, 150.7)">l</text><text xml:space="preserve" font-family="HelveticaNeue-Light,Helvetica Neue" font-size="36.0" fill="#144005" transform="matrix(1.00, 0.00, -0.00, -1.00, 275.7, 150.7)">e</text><text xml:space="preserve" font-family="HelveticaNeue-Light,Helvetica Neue" font-size="36.0" fill="#144005" transform="matrix(1.00, 0.00, -0.00, -1.00, 294.4, 150.7)">a</text><text xml:space="preserve" font-family="HelveticaNeue-Light,Helvetica Neue" font-size="36.0" fill="#144005" transform="matrix(1.00, 0.00, -0.00, -1.00, 313.1, 150.7)">r</text><text xml:space="preserve" font-family="HelveticaNeue-Light,Helvetica Neue" font-size="36.0" fill="#144005" transform="matrix(1.00, 0.00, -0.00, -1.00, 325.1, 150.7)">n</text><text xml:space="preserve" font-family="HelveticaNeue-Light,Helvetica Neue" font-size="36.0" fill="#144005" transform="matrix(1.00, 0.00, -0.00, -1.00, 344.4, 150.7)">i</text><text xml:space="preserve" font-family="HelveticaNeue-Light,Helvetica Neue" font-size="36.0" fill="#144005" transform="matrix(1.00, 0.00, -0.00, -1.00, 351.1, 150.7)">n</text><text xml:space="preserve" font-family="HelveticaNeue-Light,Helvetica Neue" font-size="36.0" fill="#144005" transform="matrix(1.00, 0.00, -0.00, -1.00, 370.4, 150.7)">g</text><text xml:space="preserve" font-family="HelveticaNeue-Light,Helvetica Neue" font-size="36.0" fill="#144005" transform="matrix(1.00, 0.00, -0.00, -1.00, 390.4, 150.7)"> </text><text xml:space="preserve" font-family="HelveticaNeue-Light,Helvetica Neue" font-size="36.0" fill="#144005" transform="matrix(1.00, 0.00, -0.00, -1.00, 400.4, 150.7)">a</text><text xml:space="preserve" font-family="HelveticaNeue-Light,Helvetica Neue" font-size="36.0" fill="#144005" transform="matrix(1.00, 0.00, -0.00, -1.00, 419.1, 150.7)">d</text><text xml:space="preserve" font-family="HelveticaNeue-Light,Helvetica Neue" font-size="36.0" fill="#144005" transform="matrix(1.00, 0.00, -0.00, -1.00, 439.8, 150.7)">v</text><text xml:space="preserve" font-family="HelveticaNeue-Light,Helvetica Neue" font-size="36.0" fill="#144005" transform="matrix(1.00, 0.00, -0.00, -1.00, 456.4, 150.7)">e</text><text xml:space="preserve" font-family="HelveticaNeue-Light,Helvetica Neue" font-size="36.0" fill="#144005" transform="matrix(1.00, 0.00, -0.00, -1.00, 475.1, 150.7)">n</text><text xml:space="preserve" font-family="HelveticaNeue-Light,Helvetica Neue" font-size="36.0" fill="#144005" transform="matrix(1.00, 0.00, -0.00, -1.00, 494.4, 150.7)">t</text><text xml:space="preserve" font-family="HelveticaNeue-Light,Helvetica Neue" font-size="36.0" fill="#144005" transform="matrix(1.00, 0.00, -0.00, -1.00, 505.1, 150.7)">u</text><text xml:space="preserve" font-family="HelveticaNeue-Light,Helvetica Neue" font-size="36.0" fill="#144005" transform="matrix(1.00, 0.00, -0.00, -1.00, 524.4, 150.7)">r</text><text xml:space="preserve" font-family="HelveticaNeue-Light,Helvetica Neue" font-size="36.0" fill="#144005" transform="matrix(1.00, 0.00, -0.00, -1.00, 535.1, 150.7)">e</text><text xml:space="preserve" font-family="HelveticaNeue-Light,Helvetica Neue" font-size="36.0" fill="#144005" transform="matrix(1.00, 0.00, -0.00, -1.00, 553.8, 150.7)">!</text></g></svg>