<?xml version="1.0" encoding="UTF-8" standalone="no"?><svg xmlns="http://www.w3.org/2000/svg" xmlns:xlink="http://www.w3.org/1999/xlink" clip-rule="evenodd" stroke-miterlimit="10" viewBox="0 0 1024 768"><desc>SVG generated by Keynote</desc><defs></defs><g transform="matrix(1.00, 0.00, -0.00, -1.00, 0.0, 768.0)"><path d="M 0.0 768.0 L 1024.0 768.0 L 1024.0 0.0 L 0.0 0.0 Z M 0.0 768.0 " fill="#DCDDE0"></path><image xlink:href="9669274AB8EEE9F3B253AF01ECC5EFD8.png" width="477.00" height="62.00" transform="matrix(1.00, 0.00, -0.00, -1.00, 67.0, 678.0)"></image><text xml:space="preserve" font-family="HelveticaNeue-Light,Helvetica Neue" font-size="72.0" fill="#002451" transform="matrix(1.00, 0.00, -0.00, -1.00, 66.0, 624.4)">E</text><text xml:space="preserve" font-family="HelveticaNeue-Light,Helvetica Neue" font-size="72.0" fill="#002451" transform="matrix(1.00, 0.00, -0.00, -1.00, 108.7, 624.4)">x</text><text xml:space="preserve" font-family="HelveticaNeue-Light,Helvetica Neue" font-size="72.0" fill="#002451" transform="matrix(1.00, 0.00, -0.00, -1.00, 143.3, 624.4)">1</text><text xml:space="preserve" font-family="HelveticaNeue-Light,Helvetica Neue" font-size="72.0" fill="#002451" transform="matrix(1.00, 0.00, -0.00, -1.00, 183.4, 624.4)">:</text><text xml:space="preserve" font-family="HelveticaNeue-Light,Helvetica Neue" font-size="72.0" fill="#002451" transform="matrix(1.00, 0.00, -0.00, -1.00, 203.4, 624.4)"> </text><text xml:space="preserve" font-family="HelveticaNeue-Light,Helvetica Neue" font-size="72.0" fill="#002451" transform="matrix(1.00, 0.00, -0.00, -1.00, 223.4, 624.4)">C</text><text xml:space="preserve" font-family="HelveticaNeue-Light,Helvetica Neue" font-size="72.0" fill="#002451" transform="matrix(1.00, 0.00, -0.00, -1.00, 274.1, 624.4)">o</text><text xml:space="preserve" font-family="HelveticaNeue-Light,Helvetica Neue" font-size="72.0" fill="#002451" transform="matrix(1.00, 0.00, -0.00, -1.00, 314.1, 624.4)">n</text><text xml:space="preserve" font-family="HelveticaNeue-Light,Helvetica Neue" font-size="72.0" fill="#002451" transform="matrix(1.00, 0.00, -0.00, -1.00, 352.8, 624.4)">t</text><text xml:space="preserve" font-family="HelveticaNeue-Light,Helvetica Neue" font-size="72.0" fill="#002451" transform="matrix(1.00, 0.00, -0.00, -1.00, 374.1, 624.4)">i</text><text xml:space="preserve" font-family="HelveticaNeue-Light,Helvetica Neue" font-size="72.0" fill="#002451" transform="matrix(1.00, 0.00, -0.00, -1.00, 387.4, 624.4)">n</text><text xml:space="preserve" font-family="HelveticaNeue-Light,Helvetica Neue" font-size="72.0" fill="#002451" transform="matrix(1.00, 0.00, -0.00, -1.00, 426.1, 624.4)">u</text><text xml:space="preserve" font-family="HelveticaNeue-Light,Helvetica Neue" font-size="72.0" fill="#002451" transform="matrix(1.00, 0.00, -0.00, -1.00, 464.7, 624.4)">e</text><text xml:space="preserve" font-family="HelveticaNeue-Light,Helvetica Neue" font-size="72.0" fill="#002451" transform="matrix(1.00, 0.00, -0.00, -1.00, 502.1, 624.4)">d</text><image xlink:href="8E07E2243756D2B3FB0082840A5293D3.png" width="17.00" height="17.00" transform="matrix(1.00, 0.00, -0.00, -1.00, 63.0, 527.0)"></image><text xml:space="preserve" font-family="HelveticaNeue-Light,Helvetica Neue" font-size="22.4" fill="#144005" transform="matrix(1.00, 0.00, -0.00, -1.00, 66.0, 513.5)">•</text><image xlink:href="FECCF198A0F9CA2DA729E99DD8AFD93E.png" width="606.00" height="36.00" transform="matrix(1.00, 0.00, -0.00, -1.00, 93.0, 534.0)"></image><text xml:space="preserve" font-family="HelveticaNeue-Light,Helvetica Neue" font-size="29.9" fill="#144005" transform="matrix(1.00, 0.00, -0.00, -1.00, 95.0, 511.2)">D</text><text xml:space="preserve" font-family="HelveticaNeue-Light,Helvetica Neue" font-size="29.9" fill="#144005" transform="matrix(1.00, 0.00, -0.00, -1.00, 115.5, 511.2)">e</text><text xml:space="preserve" font-family="HelveticaNeue-Light,Helvetica Neue" font-size="29.9" fill="#144005" transform="matrix(1.00, 0.00, -0.00, -1.00, 131.0, 511.2)">ﬁ</text><text xml:space="preserve" font-family="HelveticaNeue-Light,Helvetica Neue" font-size="29.9" fill="#144005" transform="matrix(1.00, 0.00, -0.00, -1.00, 144.3, 511.2)">n</text><text xml:space="preserve" font-family="HelveticaNeue-Light,Helvetica Neue" font-size="29.9" fill="#144005" transform="matrix(1.00, 0.00, -0.00, -1.00, 160.3, 511.2)">e</text><text xml:space="preserve" font-family="HelveticaNeue-Light,Helvetica Neue" font-size="29.9" fill="#144005" transform="matrix(1.00, 0.00, -0.00, -1.00, 175.8, 511.2)">:</text><text xml:space="preserve" font-family="HelveticaNeue-Light,Helvetica Neue" font-size="29.9" fill="#144005" transform="matrix(1.00, 0.00, -0.00, -1.00, 184.2, 511.2)"> </text><text xml:space="preserve" font-family="HelveticaNeue-Light,Helvetica Neue" font-size="29.9" fill="#144005" transform="matrix(1.00, 0.00, -0.00, -1.00, 192.5, 511.2)">q</text><text xml:space="preserve" font-family="HelveticaNeue-Light,Helvetica Neue" font-size="29.9" fill="#144005" transform="matrix(1.00, 0.00, -0.00, -1.00, 209.6, 511.2)">u</text><text xml:space="preserve" font-family="HelveticaNeue-Light,Helvetica Neue" font-size="29.9" fill="#144005" transform="matrix(1.00, 0.00, -0.00, -1.00, 225.7, 511.2)">a</text><text xml:space="preserve" font-family="HelveticaNeue-Light,Helvetica Neue" font-size="29.9" fill="#144005" transform="matrix(1.00, 0.00, -0.00, -1.00, 241.2, 511.2)">n</text><text xml:space="preserve" font-family="HelveticaNeue-Light,Helvetica Neue" font-size="29.9" fill="#144005" transform="matrix(1.00, 0.00, -0.00, -1.00, 257.2, 511.2)">t</text><text xml:space="preserve" font-family="HelveticaNeue-Light,Helvetica Neue" font-size="29.9" fill="#144005" transform="matrix(1.00, 0.00, -0.00, -1.00, 266.1, 511.2)">i</text><text xml:space="preserve" font-family="HelveticaNeue-Light,Helvetica Neue" font-size="29.9" fill="#144005" transform="matrix(1.00, 0.00, -0.00, -1.00, 271.6, 511.2)">t</text><text xml:space="preserve" font-family="HelveticaNeue-Light,Helvetica Neue" font-size="29.9" fill="#144005" transform="matrix(1.00, 0.00, -0.00, -1.00, 280.4, 511.2)">y</text><text xml:space="preserve" font-family="HelveticaNeue-Light,Helvetica Neue" font-size="29.9" fill="#144005" transform="matrix(1.00, 0.00, -0.00, -1.00, 294.3, 511.2)"> </text><text xml:space="preserve" font-family="HelveticaNeue-Light,Helvetica Neue" font-size="29.9" fill="#144005" transform="matrix(1.00, 0.00, -0.00, -1.00, 302.6, 511.2)">o</text><text xml:space="preserve" font-family="HelveticaNeue-Light,Helvetica Neue" font-size="29.9" fill="#144005" transform="matrix(1.00, 0.00, -0.00, -1.00, 319.2, 511.2)">f</text><text xml:space="preserve" font-family="HelveticaNeue-Light,Helvetica Neue" font-size="29.9" fill="#144005" transform="matrix(1.00, 0.00, -0.00, -1.00, 326.9, 511.2)"> </text><text xml:space="preserve" font-family="HelveticaNeue-Light,Helvetica Neue" font-size="29.9" fill="#144005" transform="matrix(1.00, 0.00, -0.00, -1.00, 335.2, 511.2)">P</text><text xml:space="preserve" font-family="HelveticaNeue-Light,Helvetica Neue" font-size="29.9" fill="#144005" transform="matrix(1.00, 0.00, -0.00, -1.00, 354.0, 511.2)">1</text><text xml:space="preserve" font-family="HelveticaNeue-Light,Helvetica Neue" font-size="29.9" fill="#144005" transform="matrix(1.00, 0.00, -0.00, -1.00, 370.7, 511.2)">,</text><text xml:space="preserve" font-family="HelveticaNeue-Light,Helvetica Neue" font-size="29.9" fill="#144005" transform="matrix(1.00, 0.00, -0.00, -1.00, 379.0, 511.2)"> </text><text xml:space="preserve" font-family="HelveticaNeue-Light,Helvetica Neue" font-size="29.9" fill="#144005" transform="matrix(1.00, 0.00, -0.00, -1.00, 387.3, 511.2)">P</text><text xml:space="preserve" font-family="HelveticaNeue-Light,Helvetica Neue" font-size="29.9" fill="#144005" transform="matrix(1.00, 0.00, -0.00, -1.00, 406.1, 511.2)">2</text><text xml:space="preserve" font-family="HelveticaNeue-Light,Helvetica Neue" font-size="29.9" fill="#144005" transform="matrix(1.00, 0.00, -0.00, -1.00, 422.7, 511.2)"> </text><text xml:space="preserve" font-family="HelveticaNeue-Light,Helvetica Neue" font-size="29.9" fill="#144005" transform="matrix(1.00, 0.00, -0.00, -1.00, 431.0, 511.2)">a</text><text xml:space="preserve" font-family="HelveticaNeue-Light,Helvetica Neue" font-size="29.9" fill="#144005" transform="matrix(1.00, 0.00, -0.00, -1.00, 446.5, 511.2)">n</text><text xml:space="preserve" font-family="HelveticaNeue-Light,Helvetica Neue" font-size="29.9" fill="#144005" transform="matrix(1.00, 0.00, -0.00, -1.00, 462.6, 511.2)">d</text><text xml:space="preserve" font-family="HelveticaNeue-Light,Helvetica Neue" font-size="29.9" fill="#144005" transform="matrix(1.00, 0.00, -0.00, -1.00, 479.7, 511.2)"> </text><text xml:space="preserve" font-family="HelveticaNeue-Light,Helvetica Neue" font-size="29.9" fill="#144005" transform="matrix(1.00, 0.00, -0.00, -1.00, 488.0, 511.2)">P</text><text xml:space="preserve" font-family="HelveticaNeue-Light,Helvetica Neue" font-size="29.9" fill="#144005" transform="matrix(1.00, 0.00, -0.00, -1.00, 506.9, 511.2)">3</text><text xml:space="preserve" font-family="HelveticaNeue-Light,Helvetica Neue" font-size="29.9" fill="#144005" transform="matrix(1.00, 0.00, -0.00, -1.00, 523.5, 511.2)"> </text><text xml:space="preserve" font-family="HelveticaNeue-Light,Helvetica Neue" font-size="29.9" fill="#144005" transform="matrix(1.00, 0.00, -0.00, -1.00, 531.8, 511.2)">a</text><text xml:space="preserve" font-family="HelveticaNeue-Light,Helvetica Neue" font-size="29.9" fill="#144005" transform="matrix(1.00, 0.00, -0.00, -1.00, 547.3, 511.2)">s</text><text xml:space="preserve" font-family="HelveticaNeue-Light,Helvetica Neue" font-size="29.9" fill="#144005" transform="matrix(1.00, 0.00, -0.00, -1.00, 561.7, 511.2)"> </text><text xml:space="preserve" font-family="HelveticaNeue-Light,Helvetica Neue" font-size="29.9" fill="#144005" transform="matrix(1.00, 0.00, -0.00, -1.00, 570.0, 511.2)">x</text><text xml:space="preserve" font-family="HelveticaNeue-Light,Helvetica Neue" font-size="29.9" fill="#144005" transform="matrix(1.00, 0.00, -0.00, -1.00, 584.3, 511.2)">1</text><text xml:space="preserve" font-family="HelveticaNeue-Light,Helvetica Neue" font-size="29.9" fill="#144005" transform="matrix(1.00, 0.00, -0.00, -1.00, 600.9, 511.2)">,</text><text xml:space="preserve" font-family="HelveticaNeue-Light,Helvetica Neue" font-size="29.9" fill="#144005" transform="matrix(1.00, 0.00, -0.00, -1.00, 609.3, 511.2)"> </text><text xml:space="preserve" font-family="HelveticaNeue-Light,Helvetica Neue" font-size="29.9" fill="#144005" transform="matrix(1.00, 0.00, -0.00, -1.00, 617.6, 511.2)">x</text><text xml:space="preserve" font-family="HelveticaNeue-Light,Helvetica Neue" font-size="29.9" fill="#144005" transform="matrix(1.00, 0.00, -0.00, -1.00, 631.9, 511.2)">2</text><text xml:space="preserve" font-family="HelveticaNeue-Light,Helvetica Neue" font-size="29.9" fill="#144005" transform="matrix(1.00, 0.00, -0.00, -1.00, 648.5, 511.2)">,</text><text xml:space="preserve" font-family="HelveticaNeue-Light,Helvetica Neue" font-size="29.9" fill="#144005" transform="matrix(1.00, 0.00, -0.00, -1.00, 656.9, 511.2)"> </text><text xml:space="preserve" font-family="HelveticaNeue-Light,Helvetica Neue" font-size="29.9" fill="#144005" transform="matrix(1.00, 0.00, -0.00, -1.00, 665.2, 511.2)">x</text><text xml:space="preserve" font-family="HelveticaNeue-Light,Helvetica Neue" font-size="29.9" fill="#144005" transform="matrix(1.00, 0.00, -0.00, -1.00, 679.5, 511.2)">3</text><text xml:space="preserve" font-family="HelveticaNeue-Light,Helvetica Neue" font-size="29.9" fill="#144005" transform="matrix(1.00, 0.00, -0.00, -1.00, 696.1, 511.2)"> </text><image xlink:href="D05824F1FEB3C2CA3B1F32DF2054806B.png" width="17.00" height="17.00" transform="matrix(1.00, 0.00, -0.00, -1.00, 63.0, 461.0)"></image><text xml:space="preserve" font-family="HelveticaNeue-Light,Helvetica Neue" font-size="22.4" fill="#144005" transform="matrix(1.00, 0.00, -0.00, -1.00, 66.0, 447.7)">•</text><image xlink:href="A7318D287113DE58A7AB64BE6DF84009.png" width="547.00" height="37.00" transform="matrix(1.00, 0.00, -0.00, -1.00, 92.0, 469.0)"></image><text xml:space="preserve" font-family="HelveticaNeue-Light,Helvetica Neue" font-size="29.9" fill="#144005" transform="matrix(1.00, 0.00, -0.00, -1.00, 95.0, 445.4)">O</text><text xml:space="preserve" font-family="HelveticaNeue-Light,Helvetica Neue" font-size="29.9" fill="#144005" transform="matrix(1.00, 0.00, -0.00, -1.00, 117.2, 445.4)">b</text><text xml:space="preserve" font-family="HelveticaNeue-Light,Helvetica Neue" font-size="29.9" fill="#144005" transform="matrix(1.00, 0.00, -0.00, -1.00, 134.3, 445.4)">j</text><text xml:space="preserve" font-family="HelveticaNeue-Light,Helvetica Neue" font-size="29.9" fill="#144005" transform="matrix(1.00, 0.00, -0.00, -1.00, 139.9, 445.4)">e</text><text xml:space="preserve" font-family="HelveticaNeue-Light,Helvetica Neue" font-size="29.9" fill="#144005" transform="matrix(1.00, 0.00, -0.00, -1.00, 155.4, 445.4)">c</text><text xml:space="preserve" font-family="HelveticaNeue-Light,Helvetica Neue" font-size="29.9" fill="#144005" transform="matrix(1.00, 0.00, -0.00, -1.00, 170.9, 445.4)">t</text><text xml:space="preserve" font-family="HelveticaNeue-Light,Helvetica Neue" font-size="29.9" fill="#144005" transform="matrix(1.00, 0.00, -0.00, -1.00, 179.7, 445.4)">i</text><text xml:space="preserve" font-family="HelveticaNeue-Light,Helvetica Neue" font-size="29.9" fill="#144005" transform="matrix(1.00, 0.00, -0.00, -1.00, 185.3, 445.4)">v</text><text xml:space="preserve" font-family="HelveticaNeue-Light,Helvetica Neue" font-size="29.9" fill="#144005" transform="matrix(1.00, 0.00, -0.00, -1.00, 199.1, 445.4)">e</text><text xml:space="preserve" font-family="HelveticaNeue-Light,Helvetica Neue" font-size="29.9" fill="#144005" transform="matrix(1.00, 0.00, -0.00, -1.00, 214.6, 445.4)">:</text><text xml:space="preserve" font-family="HelveticaNeue-Light,Helvetica Neue" font-size="29.9" fill="#144005" transform="matrix(1.00, 0.00, -0.00, -1.00, 222.9, 445.4)"> </text><text xml:space="preserve" font-family="HelveticaNeue-Light,Helvetica Neue" font-size="29.9" fill="#144005" transform="matrix(1.00, 0.00, -0.00, -1.00, 231.2, 445.4)">M</text><text xml:space="preserve" font-family="HelveticaNeue-Light,Helvetica Neue" font-size="29.9" fill="#144005" transform="matrix(1.00, 0.00, -0.00, -1.00, 255.7, 445.4)">a</text><text xml:space="preserve" font-family="HelveticaNeue-Light,Helvetica Neue" font-size="29.9" fill="#144005" transform="matrix(1.00, 0.00, -0.00, -1.00, 271.3, 445.4)">x</text><text xml:space="preserve" font-family="HelveticaNeue-Light,Helvetica Neue" font-size="29.9" fill="#144005" transform="matrix(1.00, 0.00, -0.00, -1.00, 285.6, 445.4)"> </text><text xml:space="preserve" font-family="HelveticaNeue-Light,Helvetica Neue" font-size="29.9" fill="#144005" transform="matrix(1.00, 0.00, -0.00, -1.00, 293.9, 445.4)">z</text><text xml:space="preserve" font-family="HelveticaNeue-Light,Helvetica Neue" font-size="29.9" fill="#144005" transform="matrix(1.00, 0.00, -0.00, -1.00, 307.8, 445.4)"> </text><text xml:space="preserve" font-family="HelveticaNeue-Light,Helvetica Neue" font-size="29.9" fill="#144005" transform="matrix(1.00, 0.00, -0.00, -1.00, 316.1, 445.4)">=</text><text xml:space="preserve" font-family="HelveticaNeue-Light,Helvetica Neue" font-size="29.9" fill="#144005" transform="matrix(1.00, 0.00, -0.00, -1.00, 334.0, 445.4)"> </text><text xml:space="preserve" font-family="HelveticaNeue-Light,Helvetica Neue" font-size="29.9" fill="#144005" transform="matrix(1.00, 0.00, -0.00, -1.00, 342.3, 445.4)">5</text><text xml:space="preserve" font-family="HelveticaNeue-Light,Helvetica Neue" font-size="29.9" fill="#144005" transform="matrix(1.00, 0.00, -0.00, -1.00, 358.9, 445.4)">*</text><text xml:space="preserve" font-family="HelveticaNeue-Light,Helvetica Neue" font-size="29.9" fill="#144005" transform="matrix(1.00, 0.00, -0.00, -1.00, 369.4, 445.4)">x</text><text xml:space="preserve" font-family="HelveticaNeue-Light,Helvetica Neue" font-size="29.9" fill="#144005" transform="matrix(1.00, 0.00, -0.00, -1.00, 383.8, 445.4)">1</text><text xml:space="preserve" font-family="HelveticaNeue-Light,Helvetica Neue" font-size="29.9" fill="#144005" transform="matrix(1.00, 0.00, -0.00, -1.00, 400.4, 445.4)"> </text><text xml:space="preserve" font-family="HelveticaNeue-Light,Helvetica Neue" font-size="29.9" fill="#144005" transform="matrix(1.00, 0.00, -0.00, -1.00, 408.7, 445.4)">+</text><text xml:space="preserve" font-family="HelveticaNeue-Light,Helvetica Neue" font-size="29.9" fill="#144005" transform="matrix(1.00, 0.00, -0.00, -1.00, 426.7, 445.4)"> </text><text xml:space="preserve" font-family="HelveticaNeue-Light,Helvetica Neue" font-size="29.9" fill="#144005" transform="matrix(1.00, 0.00, -0.00, -1.00, 435.0, 445.4)">3</text><text xml:space="preserve" font-family="HelveticaNeue-Light,Helvetica Neue" font-size="29.9" fill="#144005" transform="matrix(1.00, 0.00, -0.00, -1.00, 451.6, 445.4)">.</text><text xml:space="preserve" font-family="HelveticaNeue-Light,Helvetica Neue" font-size="29.9" fill="#144005" transform="matrix(1.00, 0.00, -0.00, -1.00, 459.9, 445.4)">5</text><text xml:space="preserve" font-family="HelveticaNeue-Light,Helvetica Neue" font-size="29.9" fill="#144005" transform="matrix(1.00, 0.00, -0.00, -1.00, 476.5, 445.4)">*</text><text xml:space="preserve" font-family="HelveticaNeue-Light,Helvetica Neue" font-size="29.9" fill="#144005" transform="matrix(1.00, 0.00, -0.00, -1.00, 487.0, 445.4)">x</text><text xml:space="preserve" font-family="HelveticaNeue-Light,Helvetica Neue" font-size="29.9" fill="#144005" transform="matrix(1.00, 0.00, -0.00, -1.00, 501.4, 445.4)">2</text><text xml:space="preserve" font-family="HelveticaNeue-Light,Helvetica Neue" font-size="29.9" fill="#144005" transform="matrix(1.00, 0.00, -0.00, -1.00, 518.0, 445.4)"> </text><text xml:space="preserve" font-family="HelveticaNeue-Light,Helvetica Neue" font-size="29.9" fill="#144005" transform="matrix(1.00, 0.00, -0.00, -1.00, 526.3, 445.4)">+</text><text xml:space="preserve" font-family="HelveticaNeue-Light,Helvetica Neue" font-size="29.9" fill="#144005" transform="matrix(1.00, 0.00, -0.00, -1.00, 544.2, 445.4)"> </text><text xml:space="preserve" font-family="HelveticaNeue-Light,Helvetica Neue" font-size="29.9" fill="#144005" transform="matrix(1.00, 0.00, -0.00, -1.00, 552.5, 445.4)">4</text><text xml:space="preserve" font-family="HelveticaNeue-Light,Helvetica Neue" font-size="29.9" fill="#144005" transform="matrix(1.00, 0.00, -0.00, -1.00, 569.2, 445.4)">.</text><text xml:space="preserve" font-family="HelveticaNeue-Light,Helvetica Neue" font-size="29.9" fill="#144005" transform="matrix(1.00, 0.00, -0.00, -1.00, 577.5, 445.4)">5</text><text xml:space="preserve" font-family="HelveticaNeue-Light,Helvetica Neue" font-size="29.9" fill="#144005" transform="matrix(1.00, 0.00, -0.00, -1.00, 594.1, 445.4)">*</text><text xml:space="preserve" font-family="HelveticaNeue-Light,Helvetica Neue" font-size="29.9" fill="#144005" transform="matrix(1.00, 0.00, -0.00, -1.00, 604.6, 445.4)">x</text><text xml:space="preserve" font-family="HelveticaNeue-Light,Helvetica Neue" font-size="29.9" fill="#144005" transform="matrix(1.00, 0.00, -0.00, -1.00, 619.0, 445.4)">3</text><text xml:space="preserve" font-family="HelveticaNeue-Light,Helvetica Neue" font-size="29.9" fill="#144005" transform="matrix(1.00, 0.00, -0.00, -1.00, 635.6, 445.4)"> </text><image xlink:href="2031E8371F744E9E78D135AC46DB6B51.png" width="17.00" height="17.00" transform="matrix(1.00, 0.00, -0.00, -1.00, 63.0, 395.0)"></image><text xml:space="preserve" font-family="HelveticaNeue-Light,Helvetica Neue" font-size="22.4" fill="#144005" transform="matrix(1.00, 0.00, -0.00, -1.00, 66.0, 381.8)">•</text><image xlink:href="B1E07CEC4DA56C128987C965892FEE68.png" width="859.00" height="35.00" transform="matrix(1.00, 0.00, -0.00, -1.00, 92.0, 403.0)"></image><text xml:space="preserve" font-family="HelveticaNeue-Light,Helvetica Neue" font-size="29.9" fill="#144005" transform="matrix(1.00, 0.00, -0.00, -1.00, 95.0, 379.5)">S</text><text xml:space="preserve" font-family="HelveticaNeue-Light,Helvetica Neue" font-size="29.9" fill="#144005" transform="matrix(1.00, 0.00, -0.00, -1.00, 113.9, 379.5)">i</text><text xml:space="preserve" font-family="HelveticaNeue-Light,Helvetica Neue" font-size="29.9" fill="#144005" transform="matrix(1.00, 0.00, -0.00, -1.00, 119.4, 379.5)">n</text><text xml:space="preserve" font-family="HelveticaNeue-Light,Helvetica Neue" font-size="29.9" fill="#144005" transform="matrix(1.00, 0.00, -0.00, -1.00, 135.4, 379.5)">c</text><text xml:space="preserve" font-family="HelveticaNeue-Light,Helvetica Neue" font-size="29.9" fill="#144005" transform="matrix(1.00, 0.00, -0.00, -1.00, 151.0, 379.5)">e</text><text xml:space="preserve" font-family="HelveticaNeue-Light,Helvetica Neue" font-size="29.9" fill="#144005" transform="matrix(1.00, 0.00, -0.00, -1.00, 166.5, 379.5)"> </text><text xml:space="preserve" font-family="HelveticaNeue-Light,Helvetica Neue" font-size="29.9" fill="#144005" transform="matrix(1.00, 0.00, -0.00, -1.00, 174.8, 379.5)">e</text><text xml:space="preserve" font-family="HelveticaNeue-Light,Helvetica Neue" font-size="29.9" fill="#144005" transform="matrix(1.00, 0.00, -0.00, -1.00, 190.3, 379.5)">a</text><text xml:space="preserve" font-family="HelveticaNeue-Light,Helvetica Neue" font-size="29.9" fill="#144005" transform="matrix(1.00, 0.00, -0.00, -1.00, 205.8, 379.5)">c</text><text xml:space="preserve" font-family="HelveticaNeue-Light,Helvetica Neue" font-size="29.9" fill="#144005" transform="matrix(1.00, 0.00, -0.00, -1.00, 221.3, 379.5)">h</text><text xml:space="preserve" font-family="HelveticaNeue-Light,Helvetica Neue" font-size="29.9" fill="#144005" transform="matrix(1.00, 0.00, -0.00, -1.00, 237.3, 379.5)"> </text><text xml:space="preserve" font-family="HelveticaNeue-Light,Helvetica Neue" font-size="29.9" fill="#144005" transform="matrix(1.00, 0.00, -0.00, -1.00, 245.6, 379.5)">m</text><text xml:space="preserve" font-family="HelveticaNeue-Light,Helvetica Neue" font-size="29.9" fill="#144005" transform="matrix(1.00, 0.00, -0.00, -1.00, 270.5, 379.5)">a</text><text xml:space="preserve" font-family="HelveticaNeue-Light,Helvetica Neue" font-size="29.9" fill="#144005" transform="matrix(1.00, 0.00, -0.00, -1.00, 286.0, 379.5)">c</text><text xml:space="preserve" font-family="HelveticaNeue-Light,Helvetica Neue" font-size="29.9" fill="#144005" transform="matrix(1.00, 0.00, -0.00, -1.00, 301.6, 379.5)">h</text><text xml:space="preserve" font-family="HelveticaNeue-Light,Helvetica Neue" font-size="29.9" fill="#144005" transform="matrix(1.00, 0.00, -0.00, -1.00, 317.6, 379.5)">i</text><text xml:space="preserve" font-family="HelveticaNeue-Light,Helvetica Neue" font-size="29.9" fill="#144005" transform="matrix(1.00, 0.00, -0.00, -1.00, 323.1, 379.5)">n</text><text xml:space="preserve" font-family="HelveticaNeue-Light,Helvetica Neue" font-size="29.9" fill="#144005" transform="matrix(1.00, 0.00, -0.00, -1.00, 339.2, 379.5)">e</text><text xml:space="preserve" font-family="HelveticaNeue-Light,Helvetica Neue" font-size="29.9" fill="#144005" transform="matrix(1.00, 0.00, -0.00, -1.00, 354.7, 379.5)"> </text><text xml:space="preserve" font-family="HelveticaNeue-Light,Helvetica Neue" font-size="29.9" fill="#144005" transform="matrix(1.00, 0.00, -0.00, -1.00, 363.0, 379.5)">h</text><text xml:space="preserve" font-family="HelveticaNeue-Light,Helvetica Neue" font-size="29.9" fill="#144005" transform="matrix(1.00, 0.00, -0.00, -1.00, 379.0, 379.5)">a</text><text xml:space="preserve" font-family="HelveticaNeue-Light,Helvetica Neue" font-size="29.9" fill="#144005" transform="matrix(1.00, 0.00, -0.00, -1.00, 394.5, 379.5)">s</text><text xml:space="preserve" font-family="HelveticaNeue-Light,Helvetica Neue" font-size="29.9" fill="#144005" transform="matrix(1.00, 0.00, -0.00, -1.00, 408.9, 379.5)"> </text><text xml:space="preserve" font-family="HelveticaNeue-Light,Helvetica Neue" font-size="29.9" fill="#144005" transform="matrix(1.00, 0.00, -0.00, -1.00, 417.2, 379.5)">a</text><text xml:space="preserve" font-family="HelveticaNeue-Light,Helvetica Neue" font-size="29.9" fill="#144005" transform="matrix(1.00, 0.00, -0.00, -1.00, 432.7, 379.5)"> </text><text xml:space="preserve" font-family="HelveticaNeue-Light,Helvetica Neue" font-size="29.9" fill="#144005" transform="matrix(1.00, 0.00, -0.00, -1.00, 441.0, 379.5)">l</text><text xml:space="preserve" font-family="HelveticaNeue-Light,Helvetica Neue" font-size="29.9" fill="#144005" transform="matrix(1.00, 0.00, -0.00, -1.00, 446.6, 379.5)">i</text><text xml:space="preserve" font-family="HelveticaNeue-Light,Helvetica Neue" font-size="29.9" fill="#144005" transform="matrix(1.00, 0.00, -0.00, -1.00, 452.1, 379.5)">m</text><text xml:space="preserve" font-family="HelveticaNeue-Light,Helvetica Neue" font-size="29.9" fill="#144005" transform="matrix(1.00, 0.00, -0.00, -1.00, 477.0, 379.5)">i</text><text xml:space="preserve" font-family="HelveticaNeue-Light,Helvetica Neue" font-size="29.9" fill="#144005" transform="matrix(1.00, 0.00, -0.00, -1.00, 482.5, 379.5)">t</text><text xml:space="preserve" font-family="HelveticaNeue-Light,Helvetica Neue" font-size="29.9" fill="#144005" transform="matrix(1.00, 0.00, -0.00, -1.00, 491.3, 379.5)">e</text><text xml:space="preserve" font-family="HelveticaNeue-Light,Helvetica Neue" font-size="29.9" fill="#144005" transform="matrix(1.00, 0.00, -0.00, -1.00, 506.9, 379.5)">d</text><text xml:space="preserve" font-family="HelveticaNeue-Light,Helvetica Neue" font-size="29.9" fill="#144005" transform="matrix(1.00, 0.00, -0.00, -1.00, 524.0, 379.5)"> </text><text xml:space="preserve" font-family="HelveticaNeue-Light,Helvetica Neue" font-size="29.9" fill="#144005" transform="matrix(1.00, 0.00, -0.00, -1.00, 532.3, 379.5)">b</text><text xml:space="preserve" font-family="HelveticaNeue-Light,Helvetica Neue" font-size="29.9" fill="#144005" transform="matrix(1.00, 0.00, -0.00, -1.00, 549.5, 379.5)">a</text><text xml:space="preserve" font-family="HelveticaNeue-Light,Helvetica Neue" font-size="29.9" fill="#144005" transform="matrix(1.00, 0.00, -0.00, -1.00, 565.0, 379.5)">n</text><text xml:space="preserve" font-family="HelveticaNeue-Light,Helvetica Neue" font-size="29.9" fill="#144005" transform="matrix(1.00, 0.00, -0.00, -1.00, 581.0, 379.5)">d</text><text xml:space="preserve" font-family="HelveticaNeue-Light,Helvetica Neue" font-size="29.9" fill="#144005" transform="matrix(1.00, 0.00, -0.00, -1.00, 598.2, 379.5)">w</text><text xml:space="preserve" font-family="HelveticaNeue-Light,Helvetica Neue" font-size="29.9" fill="#144005" transform="matrix(1.00, 0.00, -0.00, -1.00, 620.3, 379.5)">i</text><text xml:space="preserve" font-family="HelveticaNeue-Light,Helvetica Neue" font-size="29.9" fill="#144005" transform="matrix(1.00, 0.00, -0.00, -1.00, 625.8, 379.5)">d</text><text xml:space="preserve" font-family="HelveticaNeue-Light,Helvetica Neue" font-size="29.9" fill="#144005" transform="matrix(1.00, 0.00, -0.00, -1.00, 643.0, 379.5)">t</text><text xml:space="preserve" font-family="HelveticaNeue-Light,Helvetica Neue" font-size="29.9" fill="#144005" transform="matrix(1.00, 0.00, -0.00, -1.00, 651.8, 379.5)">h</text><text xml:space="preserve" font-family="HelveticaNeue-Light,Helvetica Neue" font-size="29.9" fill="#144005" transform="matrix(1.00, 0.00, -0.00, -1.00, 667.9, 379.5)">,</text><text xml:space="preserve" font-family="HelveticaNeue-Light,Helvetica Neue" font-size="29.9" fill="#144005" transform="matrix(1.00, 0.00, -0.00, -1.00, 676.2, 379.5)"> </text><text xml:space="preserve" font-family="HelveticaNeue-Light,Helvetica Neue" font-size="29.9" fill="#144005" transform="matrix(1.00, 0.00, -0.00, -1.00, 684.5, 379.5)">w</text><text xml:space="preserve" font-family="HelveticaNeue-Light,Helvetica Neue" font-size="29.9" fill="#144005" transform="matrix(1.00, 0.00, -0.00, -1.00, 706.6, 379.5)">e</text><text xml:space="preserve" font-family="HelveticaNeue-Light,Helvetica Neue" font-size="29.9" fill="#144005" transform="matrix(1.00, 0.00, -0.00, -1.00, 722.1, 379.5)"> </text><text xml:space="preserve" font-family="HelveticaNeue-Light,Helvetica Neue" font-size="29.9" fill="#144005" transform="matrix(1.00, 0.00, -0.00, -1.00, 730.4, 379.5)">h</text><text xml:space="preserve" font-family="HelveticaNeue-Light,Helvetica Neue" font-size="29.9" fill="#144005" transform="matrix(1.00, 0.00, -0.00, -1.00, 746.5, 379.5)">a</text><text xml:space="preserve" font-family="HelveticaNeue-Light,Helvetica Neue" font-size="29.9" fill="#144005" transform="matrix(1.00, 0.00, -0.00, -1.00, 762.0, 379.5)">v</text><text xml:space="preserve" font-family="HelveticaNeue-Light,Helvetica Neue" font-size="29.9" fill="#144005" transform="matrix(1.00, 0.00, -0.00, -1.00, 775.8, 379.5)">e</text><text xml:space="preserve" font-family="HelveticaNeue-Light,Helvetica Neue" font-size="29.9" fill="#144005" transform="matrix(1.00, 0.00, -0.00, -1.00, 791.3, 379.5)"> </text><text xml:space="preserve" font-family="HelveticaNeue-Light,Helvetica Neue" font-size="29.9" fill="#144005" transform="matrix(1.00, 0.00, -0.00, -1.00, 799.7, 379.5)">c</text><text xml:space="preserve" font-family="HelveticaNeue-Light,Helvetica Neue" font-size="29.9" fill="#144005" transform="matrix(1.00, 0.00, -0.00, -1.00, 815.2, 379.5)">o</text><text xml:space="preserve" font-family="HelveticaNeue-Light,Helvetica Neue" font-size="29.9" fill="#144005" transform="matrix(1.00, 0.00, -0.00, -1.00, 831.8, 379.5)">n</text><text xml:space="preserve" font-family="HelveticaNeue-Light,Helvetica Neue" font-size="29.9" fill="#144005" transform="matrix(1.00, 0.00, -0.00, -1.00, 847.8, 379.5)">s</text><text xml:space="preserve" font-family="HelveticaNeue-Light,Helvetica Neue" font-size="29.9" fill="#144005" transform="matrix(1.00, 0.00, -0.00, -1.00, 862.2, 379.5)">t</text><text xml:space="preserve" font-family="HelveticaNeue-Light,Helvetica Neue" font-size="29.9" fill="#144005" transform="matrix(1.00, 0.00, -0.00, -1.00, 871.0, 379.5)">r</text><text xml:space="preserve" font-family="HelveticaNeue-Light,Helvetica Neue" font-size="29.9" fill="#144005" transform="matrix(1.00, 0.00, -0.00, -1.00, 880.4, 379.5)">a</text><text xml:space="preserve" font-family="HelveticaNeue-Light,Helvetica Neue" font-size="29.9" fill="#144005" transform="matrix(1.00, 0.00, -0.00, -1.00, 896.0, 379.5)">i</text><text xml:space="preserve" font-family="HelveticaNeue-Light,Helvetica Neue" font-size="29.9" fill="#144005" transform="matrix(1.00, 0.00, -0.00, -1.00, 901.5, 379.5)">n</text><text xml:space="preserve" font-family="HelveticaNeue-Light,Helvetica Neue" font-size="29.9" fill="#144005" transform="matrix(1.00, 0.00, -0.00, -1.00, 917.5, 379.5)">t</text><text xml:space="preserve" font-family="HelveticaNeue-Light,Helvetica Neue" font-size="29.9" fill="#144005" transform="matrix(1.00, 0.00, -0.00, -1.00, 926.4, 379.5)">s</text><text xml:space="preserve" font-family="HelveticaNeue-Light,Helvetica Neue" font-size="29.9" fill="#144005" transform="matrix(1.00, 0.00, -0.00, -1.00, 940.7, 379.5)">:</text><text xml:space="preserve" font-family="HelveticaNeue-Light,Helvetica Neue" font-size="29.9" fill="#144005" transform="matrix(1.00, 0.00, -0.00, -1.00, 949.1, 379.5)"> </text><image xlink:href="FCABE44079E55D70847EC7AE33BF9AFA.png" width="17.00" height="17.00" transform="matrix(1.00, 0.00, -0.00, -1.00, 98.0, 329.0)"></image><text xml:space="preserve" font-family="HelveticaNeue-Light,Helvetica Neue" font-size="22.4" fill="#144005" transform="matrix(1.00, 0.00, -0.00, -1.00, 101.0, 315.9)">•</text><image xlink:href="8F13F461CC51738D257FA70F316F9FA9.png" width="319.00" height="30.00" transform="matrix(1.00, 0.00, -0.00, -1.00, 127.0, 336.0)"></image><text xml:space="preserve" font-family="HelveticaNeue-Light,Helvetica Neue" font-size="29.9" fill="#144005" transform="matrix(1.00, 0.00, -0.00, -1.00, 130.1, 313.6)">3</text><text xml:space="preserve" font-family="HelveticaNeue-Light,Helvetica Neue" font-size="29.9" fill="#144005" transform="matrix(1.00, 0.00, -0.00, -1.00, 146.7, 313.6)">*</text><text xml:space="preserve" font-family="HelveticaNeue-Light,Helvetica Neue" font-size="29.9" fill="#144005" transform="matrix(1.00, 0.00, -0.00, -1.00, 157.2, 313.6)">x</text><text xml:space="preserve" font-family="HelveticaNeue-Light,Helvetica Neue" font-size="29.9" fill="#144005" transform="matrix(1.00, 0.00, -0.00, -1.00, 171.6, 313.6)">1</text><text xml:space="preserve" font-family="HelveticaNeue-Light,Helvetica Neue" font-size="29.9" fill="#144005" transform="matrix(1.00, 0.00, -0.00, -1.00, 188.2, 313.6)">+</text><text xml:space="preserve" font-family="HelveticaNeue-Light,Helvetica Neue" font-size="29.9" fill="#144005" transform="matrix(1.00, 0.00, -0.00, -1.00, 206.1, 313.6)">5</text><text xml:space="preserve" font-family="HelveticaNeue-Light,Helvetica Neue" font-size="29.9" fill="#144005" transform="matrix(1.00, 0.00, -0.00, -1.00, 222.7, 313.6)">*</text><text xml:space="preserve" font-family="HelveticaNeue-Light,Helvetica Neue" font-size="29.9" fill="#144005" transform="matrix(1.00, 0.00, -0.00, -1.00, 233.2, 313.6)">x</text><text xml:space="preserve" font-family="HelveticaNeue-Light,Helvetica Neue" font-size="29.9" fill="#144005" transform="matrix(1.00, 0.00, -0.00, -1.00, 247.6, 313.6)">2</text><text xml:space="preserve" font-family="HelveticaNeue-Light,Helvetica Neue" font-size="29.9" fill="#144005" transform="matrix(1.00, 0.00, -0.00, -1.00, 264.2, 313.6)">+</text><text xml:space="preserve" font-family="HelveticaNeue-Light,Helvetica Neue" font-size="29.9" fill="#144005" transform="matrix(1.00, 0.00, -0.00, -1.00, 282.1, 313.6)">4</text><text xml:space="preserve" font-family="HelveticaNeue-Light,Helvetica Neue" font-size="29.9" fill="#144005" transform="matrix(1.00, 0.00, -0.00, -1.00, 298.8, 313.6)">*</text><text xml:space="preserve" font-family="HelveticaNeue-Light,Helvetica Neue" font-size="29.9" fill="#144005" transform="matrix(1.00, 0.00, -0.00, -1.00, 309.3, 313.6)">x</text><text xml:space="preserve" font-family="HelveticaNeue-Light,Helvetica Neue" font-size="29.9" fill="#144005" transform="matrix(1.00, 0.00, -0.00, -1.00, 323.6, 313.6)">2</text><text xml:space="preserve" font-family="HelveticaNeue-Light,Helvetica Neue" font-size="29.9" fill="#144005" transform="matrix(1.00, 0.00, -0.00, -1.00, 340.3, 313.6)"> </text><text xml:space="preserve" font-family="HelveticaNeue-Light,Helvetica Neue" font-size="29.9" fill="#144005" transform="matrix(1.00, 0.00, -0.00, -1.00, 348.6, 313.6)">&lt;</text><text xml:space="preserve" font-family="HelveticaNeue-Light,Helvetica Neue" font-size="29.9" fill="#144005" transform="matrix(1.00, 0.00, -0.00, -1.00, 366.5, 313.6)">=</text><text xml:space="preserve" font-family="HelveticaNeue-Light,Helvetica Neue" font-size="29.9" fill="#144005" transform="matrix(1.00, 0.00, -0.00, -1.00, 384.4, 313.6)"> </text><text xml:space="preserve" font-family="HelveticaNeue-Light,Helvetica Neue" font-size="29.9" fill="#144005" transform="matrix(1.00, 0.00, -0.00, -1.00, 392.7, 313.6)">5</text><text xml:space="preserve" font-family="HelveticaNeue-Light,Helvetica Neue" font-size="29.9" fill="#144005" transform="matrix(1.00, 0.00, -0.00, -1.00, 409.3, 313.6)">4</text><text xml:space="preserve" font-family="HelveticaNeue-Light,Helvetica Neue" font-size="29.9" fill="#144005" transform="matrix(1.00, 0.00, -0.00, -1.00, 426.0, 313.6)">0</text><text xml:space="preserve" font-family="HelveticaNeue-Light,Helvetica Neue" font-size="29.9" fill="#144005" transform="matrix(1.00, 0.00, -0.00, -1.00, 442.6, 313.6)"> </text><image xlink:href="DEA17C6C845B14241BE0CFDEEE967FCF.png" width="17.00" height="17.00" transform="matrix(1.00, 0.00, -0.00, -1.00, 98.0, 263.0)"></image><text xml:space="preserve" font-family="HelveticaNeue-Light,Helvetica Neue" font-size="22.4" fill="#144005" transform="matrix(1.00, 0.00, -0.00, -1.00, 101.0, 250.0)">•</text><image xlink:href="FAADBEF2AB5931890E1D318455906C29.png" width="319.00" height="31.00" transform="matrix(1.00, 0.00, -0.00, -1.00, 127.0, 271.0)"></image><text xml:space="preserve" font-family="HelveticaNeue-Light,Helvetica Neue" font-size="29.9" fill="#144005" transform="matrix(1.00, 0.00, -0.00, -1.00, 130.1, 247.7)">6</text><text xml:space="preserve" font-family="HelveticaNeue-Light,Helvetica Neue" font-size="29.9" fill="#144005" transform="matrix(1.00, 0.00, -0.00, -1.00, 146.7, 247.7)">*</text><text xml:space="preserve" font-family="HelveticaNeue-Light,Helvetica Neue" font-size="29.9" fill="#144005" transform="matrix(1.00, 0.00, -0.00, -1.00, 157.2, 247.7)">x</text><text xml:space="preserve" font-family="HelveticaNeue-Light,Helvetica Neue" font-size="29.9" fill="#144005" transform="matrix(1.00, 0.00, -0.00, -1.00, 171.6, 247.7)">1</text><text xml:space="preserve" font-family="HelveticaNeue-Light,Helvetica Neue" font-size="29.9" fill="#144005" transform="matrix(1.00, 0.00, -0.00, -1.00, 188.2, 247.7)">+</text><text xml:space="preserve" font-family="HelveticaNeue-Light,Helvetica Neue" font-size="29.9" fill="#144005" transform="matrix(1.00, 0.00, -0.00, -1.00, 206.1, 247.7)">1</text><text xml:space="preserve" font-family="HelveticaNeue-Light,Helvetica Neue" font-size="29.9" fill="#144005" transform="matrix(1.00, 0.00, -0.00, -1.00, 222.7, 247.7)">*</text><text xml:space="preserve" font-family="HelveticaNeue-Light,Helvetica Neue" font-size="29.9" fill="#144005" transform="matrix(1.00, 0.00, -0.00, -1.00, 233.2, 247.7)">x</text><text xml:space="preserve" font-family="HelveticaNeue-Light,Helvetica Neue" font-size="29.9" fill="#144005" transform="matrix(1.00, 0.00, -0.00, -1.00, 247.6, 247.7)">2</text><text xml:space="preserve" font-family="HelveticaNeue-Light,Helvetica Neue" font-size="29.9" fill="#144005" transform="matrix(1.00, 0.00, -0.00, -1.00, 264.2, 247.7)">+</text><text xml:space="preserve" font-family="HelveticaNeue-Light,Helvetica Neue" font-size="29.9" fill="#144005" transform="matrix(1.00, 0.00, -0.00, -1.00, 282.1, 247.7)">3</text><text xml:space="preserve" font-family="HelveticaNeue-Light,Helvetica Neue" font-size="29.9" fill="#144005" transform="matrix(1.00, 0.00, -0.00, -1.00, 298.8, 247.7)">*</text><text xml:space="preserve" font-family="HelveticaNeue-Light,Helvetica Neue" font-size="29.9" fill="#144005" transform="matrix(1.00, 0.00, -0.00, -1.00, 309.3, 247.7)">x</text><text xml:space="preserve" font-family="HelveticaNeue-Light,Helvetica Neue" font-size="29.9" fill="#144005" transform="matrix(1.00, 0.00, -0.00, -1.00, 323.6, 247.7)">3</text><text xml:space="preserve" font-family="HelveticaNeue-Light,Helvetica Neue" font-size="29.9" fill="#144005" transform="matrix(1.00, 0.00, -0.00, -1.00, 340.3, 247.7)"> </text><text xml:space="preserve" font-family="HelveticaNeue-Light,Helvetica Neue" font-size="29.9" fill="#144005" transform="matrix(1.00, 0.00, -0.00, -1.00, 348.6, 247.7)">&lt;</text><text xml:space="preserve" font-family="HelveticaNeue-Light,Helvetica Neue" font-size="29.9" fill="#144005" transform="matrix(1.00, 0.00, -0.00, -1.00, 366.5, 247.7)">=</text><text xml:space="preserve" font-family="HelveticaNeue-Light,Helvetica Neue" font-size="29.9" fill="#144005" transform="matrix(1.00, 0.00, -0.00, -1.00, 384.4, 247.7)"> </text><text xml:space="preserve" font-family="HelveticaNeue-Light,Helvetica Neue" font-size="29.9" fill="#144005" transform="matrix(1.00, 0.00, -0.00, -1.00, 392.7, 247.7)">4</text><text xml:space="preserve" font-family="HelveticaNeue-Light,Helvetica Neue" font-size="29.9" fill="#144005" transform="matrix(1.00, 0.00, -0.00, -1.00, 409.3, 247.7)">8</text><text xml:space="preserve" font-family="HelveticaNeue-Light,Helvetica Neue" font-size="29.9" fill="#144005" transform="matrix(1.00, 0.00, -0.00, -1.00, 426.0, 247.7)">0</text><text xml:space="preserve" font-family="HelveticaNeue-Light,Helvetica Neue" font-size="29.9" fill="#144005" transform="matrix(1.00, 0.00, -0.00, -1.00, 442.6, 247.7)"> </text><image xlink:href="4F4CD95C0B4F7A2F0BF463A730BCD99E.png" width="17.00" height="17.00" transform="matrix(1.00, 0.00, -0.00, -1.00, 98.0, 198.0)"></image><text xml:space="preserve" font-family="HelveticaNeue-Light,Helvetica Neue" font-size="22.4" fill="#144005" transform="matrix(1.00, 0.00, -0.00, -1.00, 101.0, 184.1)">•</text><image xlink:href="983B06AE502FA65EBEAD5DB86C21F772.png" width="203.00" height="34.00" transform="matrix(1.00, 0.00, -0.00, -1.00, 126.0, 204.0)"></image><text xml:space="preserve" font-family="HelveticaNeue-Light,Helvetica Neue" font-size="29.9" fill="#144005" transform="matrix(1.00, 0.00, -0.00, -1.00, 130.1, 181.8)">x</text><text xml:space="preserve" font-family="HelveticaNeue-Light,Helvetica Neue" font-size="29.9" fill="#144005" transform="matrix(1.00, 0.00, -0.00, -1.00, 144.4, 181.8)">1</text><text xml:space="preserve" font-family="HelveticaNeue-Light,Helvetica Neue" font-size="29.9" fill="#144005" transform="matrix(1.00, 0.00, -0.00, -1.00, 161.0, 181.8)">,</text><text xml:space="preserve" font-family="HelveticaNeue-Light,Helvetica Neue" font-size="29.9" fill="#144005" transform="matrix(1.00, 0.00, -0.00, -1.00, 169.3, 181.8)"> </text><text xml:space="preserve" font-family="HelveticaNeue-Light,Helvetica Neue" font-size="29.9" fill="#144005" transform="matrix(1.00, 0.00, -0.00, -1.00, 177.6, 181.8)">x</text><text xml:space="preserve" font-family="HelveticaNeue-Light,Helvetica Neue" font-size="29.9" fill="#144005" transform="matrix(1.00, 0.00, -0.00, -1.00, 192.0, 181.8)">2</text><text xml:space="preserve" font-family="HelveticaNeue-Light,Helvetica Neue" font-size="29.9" fill="#144005" transform="matrix(1.00, 0.00, -0.00, -1.00, 208.6, 181.8)">,</text><text xml:space="preserve" font-family="HelveticaNeue-Light,Helvetica Neue" font-size="29.9" fill="#144005" transform="matrix(1.00, 0.00, -0.00, -1.00, 216.9, 181.8)"> </text><text xml:space="preserve" font-family="HelveticaNeue-Light,Helvetica Neue" font-size="29.9" fill="#144005" transform="matrix(1.00, 0.00, -0.00, -1.00, 225.2, 181.8)">x</text><text xml:space="preserve" font-family="HelveticaNeue-Light,Helvetica Neue" font-size="29.9" fill="#144005" transform="matrix(1.00, 0.00, -0.00, -1.00, 239.6, 181.8)">3</text><text xml:space="preserve" font-family="HelveticaNeue-Light,Helvetica Neue" font-size="29.9" fill="#144005" transform="matrix(1.00, 0.00, -0.00, -1.00, 256.2, 181.8)"> </text><text xml:space="preserve" font-family="HelveticaNeue-Light,Helvetica Neue" font-size="29.9" fill="#144005" transform="matrix(1.00, 0.00, -0.00, -1.00, 264.5, 181.8)">&gt;</text><text xml:space="preserve" font-family="HelveticaNeue-Light,Helvetica Neue" font-size="29.9" fill="#144005" transform="matrix(1.00, 0.00, -0.00, -1.00, 282.5, 181.8)">=</text><text xml:space="preserve" font-family="HelveticaNeue-Light,Helvetica Neue" font-size="29.9" fill="#144005" transform="matrix(1.00, 0.00, -0.00, -1.00, 300.4, 181.8)"> </text><text xml:space="preserve" font-family="HelveticaNeue-Light,Helvetica Neue" font-size="29.9" fill="#144005" transform="matrix(1.00, 0.00, -0.00, -1.00, 308.7, 181.8)">0</text><text xml:space="preserve" font-family="HelveticaNeue-Light,Helvetica Neue" font-size="29.9" fill="#144005" transform="matrix(1.00, 0.00, -0.00, -1.00, 325.3, 181.8)"> </text><image xlink:href="A370A85EDFD33A15CABC10787952303E.png" width="17.00" height="17.00" transform="matrix(1.00, 0.00, -0.00, -1.00, 63.0, 132.0)"></image><text xml:space="preserve" font-family="HelveticaNeue-Light,Helvetica Neue" font-size="22.4" fill="#144005" transform="matrix(1.00, 0.00, -0.00, -1.00, 66.0, 118.3)">•</text><image xlink:href="B4F2684A5C6C271647F92AB64623CB9A.png" width="407.00" height="35.00" transform="matrix(1.00, 0.00, -0.00, -1.00, 92.0, 139.0)"></image><text xml:space="preserve" font-family="HelveticaNeue-Light,Helvetica Neue" font-size="29.9" fill="#144005" transform="matrix(1.00, 0.00, -0.00, -1.00, 95.0, 116.0)">S</text><text xml:space="preserve" font-family="HelveticaNeue-Light,Helvetica Neue" font-size="29.9" fill="#144005" transform="matrix(1.00, 0.00, -0.00, -1.00, 113.9, 116.0)">o</text><text xml:space="preserve" font-family="HelveticaNeue-Light,Helvetica Neue" font-size="29.9" fill="#144005" transform="matrix(1.00, 0.00, -0.00, -1.00, 130.5, 116.0)">l</text><text xml:space="preserve" font-family="HelveticaNeue-Light,Helvetica Neue" font-size="29.9" fill="#144005" transform="matrix(1.00, 0.00, -0.00, -1.00, 136.0, 116.0)">u</text><text xml:space="preserve" font-family="HelveticaNeue-Light,Helvetica Neue" font-size="29.9" fill="#144005" transform="matrix(1.00, 0.00, -0.00, -1.00, 152.1, 116.0)">t</text><text xml:space="preserve" font-family="HelveticaNeue-Light,Helvetica Neue" font-size="29.9" fill="#144005" transform="matrix(1.00, 0.00, -0.00, -1.00, 160.9, 116.0)">i</text><text xml:space="preserve" font-family="HelveticaNeue-Light,Helvetica Neue" font-size="29.9" fill="#144005" transform="matrix(1.00, 0.00, -0.00, -1.00, 166.4, 116.0)">o</text><text xml:space="preserve" font-family="HelveticaNeue-Light,Helvetica Neue" font-size="29.9" fill="#144005" transform="matrix(1.00, 0.00, -0.00, -1.00, 183.0, 116.0)">n</text><text xml:space="preserve" font-family="HelveticaNeue-Light,Helvetica Neue" font-size="29.9" fill="#144005" transform="matrix(1.00, 0.00, -0.00, -1.00, 199.1, 116.0)">:</text><text xml:space="preserve" font-family="HelveticaNeue-Light,Helvetica Neue" font-size="29.9" fill="#144005" transform="matrix(1.00, 0.00, -0.00, -1.00, 207.4, 116.0)"> </text><text xml:space="preserve" font-family="HelveticaNeue-Light,Helvetica Neue" font-size="29.9" fill="#144005" transform="matrix(1.00, 0.00, -0.00, -1.00, 215.7, 116.0)">x</text><text xml:space="preserve" font-family="HelveticaNeue-Light,Helvetica Neue" font-size="29.9" fill="#144005" transform="matrix(1.00, 0.00, -0.00, -1.00, 230.1, 116.0)">1</text><text xml:space="preserve" font-family="HelveticaNeue-Light,Helvetica Neue" font-size="29.9" fill="#144005" transform="matrix(1.00, 0.00, -0.00, -1.00, 246.7, 116.0)">=</text><text xml:space="preserve" font-family="HelveticaNeue-Light,Helvetica Neue" font-size="29.9" fill="#144005" transform="matrix(1.00, 0.00, -0.00, -1.00, 264.6, 116.0)">2</text><text xml:space="preserve" font-family="HelveticaNeue-Light,Helvetica Neue" font-size="29.9" fill="#144005" transform="matrix(1.00, 0.00, -0.00, -1.00, 281.2, 116.0)">0</text><text xml:space="preserve" font-family="HelveticaNeue-Light,Helvetica Neue" font-size="29.9" fill="#144005" transform="matrix(1.00, 0.00, -0.00, -1.00, 297.8, 116.0)">,</text><text xml:space="preserve" font-family="HelveticaNeue-Light,Helvetica Neue" font-size="29.9" fill="#144005" transform="matrix(1.00, 0.00, -0.00, -1.00, 306.2, 116.0)"> </text><text xml:space="preserve" font-family="HelveticaNeue-Light,Helvetica Neue" font-size="29.9" fill="#144005" transform="matrix(1.00, 0.00, -0.00, -1.00, 314.5, 116.0)">x</text><text xml:space="preserve" font-family="HelveticaNeue-Light,Helvetica Neue" font-size="29.9" fill="#144005" transform="matrix(1.00, 0.00, -0.00, -1.00, 328.8, 116.0)">2</text><text xml:space="preserve" font-family="HelveticaNeue-Light,Helvetica Neue" font-size="29.9" fill="#144005" transform="matrix(1.00, 0.00, -0.00, -1.00, 345.4, 116.0)">=</text><text xml:space="preserve" font-family="HelveticaNeue-Light,Helvetica Neue" font-size="29.9" fill="#144005" transform="matrix(1.00, 0.00, -0.00, -1.00, 363.4, 116.0)">0</text><text xml:space="preserve" font-family="HelveticaNeue-Light,Helvetica Neue" font-size="29.9" fill="#144005" transform="matrix(1.00, 0.00, -0.00, -1.00, 380.0, 116.0)">,</text><text xml:space="preserve" font-family="HelveticaNeue-Light,Helvetica Neue" font-size="29.9" fill="#144005" transform="matrix(1.00, 0.00, -0.00, -1.00, 388.3, 116.0)"> </text><text xml:space="preserve" font-family="HelveticaNeue-Light,Helvetica Neue" font-size="29.9" fill="#144005" transform="matrix(1.00, 0.00, -0.00, -1.00, 396.6, 116.0)">x</text><text xml:space="preserve" font-family="HelveticaNeue-Light,Helvetica Neue" font-size="29.9" fill="#144005" transform="matrix(1.00, 0.00, -0.00, -1.00, 411.0, 116.0)">3</text><text xml:space="preserve" font-family="HelveticaNeue-Light,Helvetica Neue" font-size="29.9" fill="#144005" transform="matrix(1.00, 0.00, -0.00, -1.00, 427.6, 116.0)">=</text><text xml:space="preserve" font-family="HelveticaNeue-Light,Helvetica Neue" font-size="29.9" fill="#144005" transform="matrix(1.00, 0.00, -0.00, -1.00, 445.5, 116.0)">1</text><text xml:space="preserve" font-family="HelveticaNeue-Light,Helvetica Neue" font-size="29.9" fill="#144005" transform="matrix(1.00, 0.00, -0.00, -1.00, 462.1, 116.0)">2</text><text xml:space="preserve" font-family="HelveticaNeue-Light,Helvetica Neue" font-size="29.9" fill="#144005" transform="matrix(1.00, 0.00, -0.00, -1.00, 478.7, 116.0)">0</text></g></svg>