<?xml version="1.0" encoding="UTF-8" standalone="no"?><svg xmlns="http://www.w3.org/2000/svg" xmlns:xlink="http://www.w3.org/1999/xlink" clip-rule="evenodd" stroke-miterlimit="10" viewBox="0 0 1024 768"><desc>SVG generated by Keynote</desc><defs></defs><g transform="matrix(1.00, 0.00, -0.00, -1.00, 0.0, 768.0)"><path d="M 0.0 768.0 L 1024.0 768.0 L 1024.0 0.0 L 0.0 0.0 Z M 0.0 768.0 " fill="#DCDDE0"></path><image xlink:href="477464D489B2AF5B494F7C259B760C67.png" width="506.00" height="65.00" transform="matrix(1.00, 0.00, -0.00, -1.00, 266.0, 674.0)"></image><text xml:space="preserve" font-family="HelveticaNeue-Light,Helvetica Neue" font-size="62.0" fill="#002451" transform="matrix(1.00, 0.00, -0.00, -1.00, 266.0, 628.1)">D</text><text xml:space="preserve" font-family="HelveticaNeue-Light,Helvetica Neue" font-size="62.0" fill="#002451" transform="matrix(1.00, 0.00, -0.00, -1.00, 308.5, 628.1)">e</text><text xml:space="preserve" font-family="HelveticaNeue-Light,Helvetica Neue" font-size="62.0" fill="#002451" transform="matrix(1.00, 0.00, -0.00, -1.00, 340.6, 628.1)">ï¬</text><text xml:space="preserve" font-family="HelveticaNeue-Light,Helvetica Neue" font-size="62.0" fill="#002451" transform="matrix(1.00, 0.00, -0.00, -1.00, 368.2, 628.1)">n</text><text xml:space="preserve" font-family="HelveticaNeue-Light,Helvetica Neue" font-size="62.0" fill="#002451" transform="matrix(1.00, 0.00, -0.00, -1.00, 401.5, 628.1)">e</text><text xml:space="preserve" font-family="HelveticaNeue-Light,Helvetica Neue" font-size="62.0" fill="#002451" transform="matrix(1.00, 0.00, -0.00, -1.00, 433.6, 628.1)"> </text><text xml:space="preserve" font-family="HelveticaNeue-Light,Helvetica Neue" font-size="62.0" fill="#002451" transform="matrix(1.00, 0.00, -0.00, -1.00, 450.9, 628.1)">t</text><text xml:space="preserve" font-family="HelveticaNeue-Light,Helvetica Neue" font-size="62.0" fill="#002451" transform="matrix(1.00, 0.00, -0.00, -1.00, 469.2, 628.1)">h</text><text xml:space="preserve" font-family="HelveticaNeue-Light,Helvetica Neue" font-size="62.0" fill="#002451" transform="matrix(1.00, 0.00, -0.00, -1.00, 502.5, 628.1)">e</text><text xml:space="preserve" font-family="HelveticaNeue-Light,Helvetica Neue" font-size="62.0" fill="#002451" transform="matrix(1.00, 0.00, -0.00, -1.00, 534.7, 628.1)"> </text><text xml:space="preserve" font-family="HelveticaNeue-Light,Helvetica Neue" font-size="62.0" fill="#002451" transform="matrix(1.00, 0.00, -0.00, -1.00, 551.9, 628.1)">p</text><text xml:space="preserve" font-family="HelveticaNeue-Light,Helvetica Neue" font-size="62.0" fill="#002451" transform="matrix(1.00, 0.00, -0.00, -1.00, 587.5, 628.1)">r</text><text xml:space="preserve" font-family="HelveticaNeue-Light,Helvetica Neue" font-size="62.0" fill="#002451" transform="matrix(1.00, 0.00, -0.00, -1.00, 605.9, 628.1)">o</text><text xml:space="preserve" font-family="HelveticaNeue-Light,Helvetica Neue" font-size="62.0" fill="#002451" transform="matrix(1.00, 0.00, -0.00, -1.00, 640.4, 628.1)">b</text><text xml:space="preserve" font-family="HelveticaNeue-Light,Helvetica Neue" font-size="62.0" fill="#002451" transform="matrix(1.00, 0.00, -0.00, -1.00, 676.0, 628.1)">l</text><text xml:space="preserve" font-family="HelveticaNeue-Light,Helvetica Neue" font-size="62.0" fill="#002451" transform="matrix(1.00, 0.00, -0.00, -1.00, 687.5, 628.1)">e</text><text xml:space="preserve" font-family="HelveticaNeue-Light,Helvetica Neue" font-size="62.0" fill="#002451" transform="matrix(1.00, 0.00, -0.00, -1.00, 719.7, 628.1)">m</text><text xml:space="preserve" font-family="Courier,Courier" font-size="17.0" fill="#000000" transform="matrix(1.00, 0.00, -0.00, -1.00, 166.7, 522.7)"> </text><text xml:space="preserve" font-family="Courier,Courier" font-size="17.0" fill="#000000" transform="matrix(1.00, 0.00, -0.00, -1.00, 176.9, 522.7)"> </text><text xml:space="preserve" font-family="Courier,Courier" font-size="17.0" fill="#000000" transform="matrix(1.00, 0.00, -0.00, -1.00, 187.1, 522.7)"> </text><text xml:space="preserve" font-family="Courier,Courier" font-size="17.0" fill="#000000" transform="matrix(1.00, 0.00, -0.00, -1.00, 197.3, 522.7)"> </text><text xml:space="preserve" font-family="Courier,Courier" font-size="17.0" fill="#000000" transform="matrix(1.00, 0.00, -0.00, -1.00, 207.5, 522.7)"> </text><text xml:space="preserve" font-family="Courier,Courier" font-size="17.0" fill="#000000" transform="matrix(1.00, 0.00, -0.00, -1.00, 217.7, 522.7)"> </text><text xml:space="preserve" font-family="Courier,Courier" font-size="17.0" fill="#000000" transform="matrix(1.00, 0.00, -0.00, -1.00, 227.9, 522.7)"> </text><text xml:space="preserve" font-family="Courier,Courier" font-size="17.0" fill="#000000" transform="matrix(1.00, 0.00, -0.00, -1.00, 238.1, 522.7)">s</text><text xml:space="preserve" font-family="Courier,Courier" font-size="17.0" fill="#000000" transform="matrix(1.00, 0.00, -0.00, -1.00, 248.3, 522.7)">e</text><text xml:space="preserve" font-family="Courier,Courier" font-size="17.0" fill="#000000" transform="matrix(1.00, 0.00, -0.00, -1.00, 258.5, 522.7)">l</text><text xml:space="preserve" font-family="Courier,Courier" font-size="17.0" fill="#000000" transform="matrix(1.00, 0.00, -0.00, -1.00, 268.7, 522.7)">f</text><text xml:space="preserve" font-family="Courier,Courier" font-size="17.0" fill="#000000" transform="matrix(1.00, 0.00, -0.00, -1.00, 278.9, 522.7)">.</text><text xml:space="preserve" font-family="Courier,Courier" font-size="17.0" fill="#000000" transform="matrix(1.00, 0.00, -0.00, -1.00, 289.1, 522.7)">p</text><text xml:space="preserve" font-family="Courier,Courier" font-size="17.0" fill="#000000" transform="matrix(1.00, 0.00, -0.00, -1.00, 299.3, 522.7)">r</text><text xml:space="preserve" font-family="Courier,Courier" font-size="17.0" fill="#000000" transform="matrix(1.00, 0.00, -0.00, -1.00, 309.5, 522.7)">o</text><text xml:space="preserve" font-family="Courier,Courier" font-size="17.0" fill="#000000" transform="matrix(1.00, 0.00, -0.00, -1.00, 319.7, 522.7)">b</text><text xml:space="preserve" font-family="Courier,Courier" font-size="17.0" fill="#000000" transform="matrix(1.00, 0.00, -0.00, -1.00, 329.9, 522.7)"> </text><text xml:space="preserve" font-family="Courier,Courier" font-size="17.0" fill="#797979" transform="matrix(1.00, 0.00, -0.00, -1.00, 340.1, 522.7)">=</text><text xml:space="preserve" font-family="Courier,Courier" font-size="17.0" fill="#000000" transform="matrix(1.00, 0.00, -0.00, -1.00, 350.3, 522.7)"> </text><text xml:space="preserve" font-family="Courier,Courier" font-size="17.0" fill="#000000" transform="matrix(1.00, 0.00, -0.00, -1.00, 360.5, 522.7)">L</text><text xml:space="preserve" font-family="Courier,Courier" font-size="17.0" fill="#000000" transform="matrix(1.00, 0.00, -0.00, -1.00, 370.7, 522.7)">p</text><text xml:space="preserve" font-family="Courier,Courier" font-size="17.0" fill="#000000" transform="matrix(1.00, 0.00, -0.00, -1.00, 380.9, 522.7)">P</text><text xml:space="preserve" font-family="Courier,Courier" font-size="17.0" fill="#000000" transform="matrix(1.00, 0.00, -0.00, -1.00, 391.1, 522.7)">r</text><text xml:space="preserve" font-family="Courier,Courier" font-size="17.0" fill="#000000" transform="matrix(1.00, 0.00, -0.00, -1.00, 401.3, 522.7)">o</text><text xml:space="preserve" font-family="Courier,Courier" font-size="17.0" fill="#000000" transform="matrix(1.00, 0.00, -0.00, -1.00, 411.5, 522.7)">b</text><text xml:space="preserve" font-family="Courier,Courier" font-size="17.0" fill="#000000" transform="matrix(1.00, 0.00, -0.00, -1.00, 421.7, 522.7)">l</text><text xml:space="preserve" font-family="Courier,Courier" font-size="17.0" fill="#000000" transform="matrix(1.00, 0.00, -0.00, -1.00, 431.9, 522.7)">e</text><text xml:space="preserve" font-family="Courier,Courier" font-size="17.0" fill="#000000" transform="matrix(1.00, 0.00, -0.00, -1.00, 442.2, 522.7)">m</text><text xml:space="preserve" font-family="Courier,Courier" font-size="17.0" fill="#000000" transform="matrix(1.00, 0.00, -0.00, -1.00, 452.4, 522.7)">(</text><text xml:space="preserve" font-family="Courier,Courier" font-size="17.0" fill="#C8352B" transform="matrix(1.00, 0.00, -0.00, -1.00, 462.5, 522.7)">"</text><text xml:space="preserve" font-family="Courier,Courier" font-size="17.0" fill="#C8352B" transform="matrix(1.00, 0.00, -0.00, -1.00, 472.7, 522.7)">T</text><text xml:space="preserve" font-family="Courier,Courier" font-size="17.0" fill="#C8352B" transform="matrix(1.00, 0.00, -0.00, -1.00, 482.9, 522.7)">e</text><text xml:space="preserve" font-family="Courier,Courier" font-size="17.0" fill="#C8352B" transform="matrix(1.00, 0.00, -0.00, -1.00, 493.2, 522.7)">n</text><text xml:space="preserve" font-family="Courier,Courier" font-size="17.0" fill="#C8352B" transform="matrix(1.00, 0.00, -0.00, -1.00, 503.4, 522.7)">n</text><text xml:space="preserve" font-family="Courier,Courier" font-size="17.0" fill="#C8352B" transform="matrix(1.00, 0.00, -0.00, -1.00, 513.6, 522.7)">i</text><text xml:space="preserve" font-family="Courier,Courier" font-size="17.0" fill="#C8352B" transform="matrix(1.00, 0.00, -0.00, -1.00, 523.8, 522.7)">s</text><text xml:space="preserve" font-family="Courier,Courier" font-size="17.0" fill="#C8352B" transform="matrix(1.00, 0.00, -0.00, -1.00, 534.0, 522.7)">B</text><text xml:space="preserve" font-family="Courier,Courier" font-size="17.0" fill="#C8352B" transform="matrix(1.00, 0.00, -0.00, -1.00, 544.2, 522.7)">l</text><text xml:space="preserve" font-family="Courier,Courier" font-size="17.0" fill="#C8352B" transform="matrix(1.00, 0.00, -0.00, -1.00, 554.4, 522.7)">o</text><text xml:space="preserve" font-family="Courier,Courier" font-size="17.0" fill="#C8352B" transform="matrix(1.00, 0.00, -0.00, -1.00, 564.6, 522.7)">c</text><text xml:space="preserve" font-family="Courier,Courier" font-size="17.0" fill="#C8352B" transform="matrix(1.00, 0.00, -0.00, -1.00, 574.8, 522.7)">k</text><text xml:space="preserve" font-family="Courier,Courier" font-size="17.0" fill="#C8352B" transform="matrix(1.00, 0.00, -0.00, -1.00, 585.0, 522.7)"> </text><text xml:space="preserve" font-family="Courier,Courier" font-size="17.0" fill="#C8352B" transform="matrix(1.00, 0.00, -0.00, -1.00, 595.2, 522.7)">O</text><text xml:space="preserve" font-family="Courier,Courier" font-size="17.0" fill="#C8352B" transform="matrix(1.00, 0.00, -0.00, -1.00, 605.4, 522.7)">p</text><text xml:space="preserve" font-family="Courier,Courier" font-size="17.0" fill="#C8352B" transform="matrix(1.00, 0.00, -0.00, -1.00, 615.6, 522.7)">t</text><text xml:space="preserve" font-family="Courier,Courier" font-size="17.0" fill="#C8352B" transform="matrix(1.00, 0.00, -0.00, -1.00, 625.8, 522.7)">i</text><text xml:space="preserve" font-family="Courier,Courier" font-size="17.0" fill="#C8352B" transform="matrix(1.00, 0.00, -0.00, -1.00, 636.0, 522.7)">m</text><text xml:space="preserve" font-family="Courier,Courier" font-size="17.0" fill="#C8352B" transform="matrix(1.00, 0.00, -0.00, -1.00, 646.2, 522.7)">i</text><text xml:space="preserve" font-family="Courier,Courier" font-size="17.0" fill="#C8352B" transform="matrix(1.00, 0.00, -0.00, -1.00, 656.4, 522.7)">z</text><text xml:space="preserve" font-family="Courier,Courier" font-size="17.0" fill="#C8352B" transform="matrix(1.00, 0.00, -0.00, -1.00, 666.6, 522.7)">a</text><text xml:space="preserve" font-family="Courier,Courier" font-size="17.0" fill="#C8352B" transform="matrix(1.00, 0.00, -0.00, -1.00, 676.8, 522.7)">t</text><text xml:space="preserve" font-family="Courier,Courier" font-size="17.0" fill="#C8352B" transform="matrix(1.00, 0.00, -0.00, -1.00, 687.0, 522.7)">i</text><text xml:space="preserve" font-family="Courier,Courier" font-size="17.0" fill="#C8352B" transform="matrix(1.00, 0.00, -0.00, -1.00, 697.2, 522.7)">o</text><text xml:space="preserve" font-family="Courier,Courier" font-size="17.0" fill="#C8352B" transform="matrix(1.00, 0.00, -0.00, -1.00, 707.4, 522.7)">n</text><text xml:space="preserve" font-family="Courier,Courier" font-size="17.0" fill="#C8352B" transform="matrix(1.00, 0.00, -0.00, -1.00, 717.6, 522.7)">"</text><text xml:space="preserve" font-family="Courier,Courier" font-size="17.0" fill="#000000" transform="matrix(1.00, 0.00, -0.00, -1.00, 727.8, 522.7)">,</text><text xml:space="preserve" font-family="Courier,Courier" font-size="17.0" fill="#000000" transform="matrix(1.00, 0.00, -0.00, -1.00, 738.0, 522.7)"> </text><text xml:space="preserve" font-family="Courier,Courier" font-size="17.0" fill="#000000" transform="matrix(1.00, 0.00, -0.00, -1.00, 748.2, 522.7)">L</text><text xml:space="preserve" font-family="Courier,Courier" font-size="17.0" fill="#000000" transform="matrix(1.00, 0.00, -0.00, -1.00, 758.4, 522.7)">p</text><text xml:space="preserve" font-family="Courier,Courier" font-size="17.0" fill="#000000" transform="matrix(1.00, 0.00, -0.00, -1.00, 768.6, 522.7)">M</text><text xml:space="preserve" font-family="Courier,Courier" font-size="17.0" fill="#000000" transform="matrix(1.00, 0.00, -0.00, -1.00, 778.8, 522.7)">i</text><text xml:space="preserve" font-family="Courier,Courier" font-size="17.0" fill="#000000" transform="matrix(1.00, 0.00, -0.00, -1.00, 789.0, 522.7)">n</text><text xml:space="preserve" font-family="Courier,Courier" font-size="17.0" fill="#000000" transform="matrix(1.00, 0.00, -0.00, -1.00, 799.2, 522.7)">i</text><text xml:space="preserve" font-family="Courier,Courier" font-size="17.0" fill="#000000" transform="matrix(1.00, 0.00, -0.00, -1.00, 809.4, 522.7)">m</text><text xml:space="preserve" font-family="Courier,Courier" font-size="17.0" fill="#000000" transform="matrix(1.00, 0.00, -0.00, -1.00, 819.6, 522.7)">i</text><text xml:space="preserve" font-family="Courier,Courier" font-size="17.0" fill="#000000" transform="matrix(1.00, 0.00, -0.00, -1.00, 829.8, 522.7)">z</text><text xml:space="preserve" font-family="Courier,Courier" font-size="17.0" fill="#000000" transform="matrix(1.00, 0.00, -0.00, -1.00, 840.0, 522.7)">e</text><text xml:space="preserve" font-family="Courier,Courier" font-size="17.0" fill="#000000" transform="matrix(1.00, 0.00, -0.00, -1.00, 850.2, 522.7)">)</text></g></svg>