<?xml version="1.0" encoding="UTF-8" standalone="no"?><svg xmlns="http://www.w3.org/2000/svg" xmlns:xlink="http://www.w3.org/1999/xlink" clip-rule="evenodd" stroke-miterlimit="10" viewBox="0 0 1024 768"><desc>SVG generated by Keynote</desc><defs></defs><g transform="matrix(1.00, 0.00, -0.00, -1.00, 0.0, 768.0)"><path d="M 0.0 768.0 L 1024.0 768.0 L 1024.0 0.0 L 0.0 0.0 Z M 0.0 768.0 " fill="#DCDDE0"></path><image xlink:href="F3D07450BCEF3D3DAF086D2025B5A643.png" width="704.00" height="75.00" transform="matrix(1.00, 0.00, -0.00, -1.00, 64.0, 678.0)"></image><text xml:space="preserve" font-family="HelveticaNeue-Light,Helvetica Neue" font-size="72.0" fill="#002451" transform="matrix(1.00, 0.00, -0.00, -1.00, 66.0, 624.4)">O</text><text xml:space="preserve" font-family="HelveticaNeue-Light,Helvetica Neue" font-size="72.0" fill="#002451" transform="matrix(1.00, 0.00, -0.00, -1.00, 119.4, 624.4)">p</text><text xml:space="preserve" font-family="HelveticaNeue-Light,Helvetica Neue" font-size="72.0" fill="#002451" transform="matrix(1.00, 0.00, -0.00, -1.00, 160.7, 624.4)">t</text><text xml:space="preserve" font-family="HelveticaNeue-Light,Helvetica Neue" font-size="72.0" fill="#002451" transform="matrix(1.00, 0.00, -0.00, -1.00, 182.0, 624.4)">i</text><text xml:space="preserve" font-family="HelveticaNeue-Light,Helvetica Neue" font-size="72.0" fill="#002451" transform="matrix(1.00, 0.00, -0.00, -1.00, 195.3, 624.4)">m</text><text xml:space="preserve" font-family="HelveticaNeue-Light,Helvetica Neue" font-size="72.0" fill="#002451" transform="matrix(1.00, 0.00, -0.00, -1.00, 255.3, 624.4)">i</text><text xml:space="preserve" font-family="HelveticaNeue-Light,Helvetica Neue" font-size="72.0" fill="#002451" transform="matrix(1.00, 0.00, -0.00, -1.00, 268.6, 624.4)">z</text><text xml:space="preserve" font-family="HelveticaNeue-Light,Helvetica Neue" font-size="72.0" fill="#002451" transform="matrix(1.00, 0.00, -0.00, -1.00, 301.9, 624.4)">a</text><text xml:space="preserve" font-family="HelveticaNeue-Light,Helvetica Neue" font-size="72.0" fill="#002451" transform="matrix(1.00, 0.00, -0.00, -1.00, 339.3, 624.4)">t</text><text xml:space="preserve" font-family="HelveticaNeue-Light,Helvetica Neue" font-size="72.0" fill="#002451" transform="matrix(1.00, 0.00, -0.00, -1.00, 360.6, 624.4)">i</text><text xml:space="preserve" font-family="HelveticaNeue-Light,Helvetica Neue" font-size="72.0" fill="#002451" transform="matrix(1.00, 0.00, -0.00, -1.00, 373.9, 624.4)">o</text><text xml:space="preserve" font-family="HelveticaNeue-Light,Helvetica Neue" font-size="72.0" fill="#002451" transform="matrix(1.00, 0.00, -0.00, -1.00, 414.0, 624.4)">n</text><text xml:space="preserve" font-family="HelveticaNeue-Light,Helvetica Neue" font-size="72.0" fill="#002451" transform="matrix(1.00, 0.00, -0.00, -1.00, 452.6, 624.4)"> </text><text xml:space="preserve" font-family="HelveticaNeue-Light,Helvetica Neue" font-size="72.0" fill="#002451" transform="matrix(1.00, 0.00, -0.00, -1.00, 472.7, 624.4)">P</text><text xml:space="preserve" font-family="HelveticaNeue-Light,Helvetica Neue" font-size="72.0" fill="#002451" transform="matrix(1.00, 0.00, -0.00, -1.00, 518.0, 624.4)">r</text><text xml:space="preserve" font-family="HelveticaNeue-Light,Helvetica Neue" font-size="72.0" fill="#002451" transform="matrix(1.00, 0.00, -0.00, -1.00, 539.4, 624.4)">o</text><text xml:space="preserve" font-family="HelveticaNeue-Light,Helvetica Neue" font-size="72.0" fill="#002451" transform="matrix(1.00, 0.00, -0.00, -1.00, 579.4, 624.4)">b</text><text xml:space="preserve" font-family="HelveticaNeue-Light,Helvetica Neue" font-size="72.0" fill="#002451" transform="matrix(1.00, 0.00, -0.00, -1.00, 620.8, 624.4)">l</text><text xml:space="preserve" font-family="HelveticaNeue-Light,Helvetica Neue" font-size="72.0" fill="#002451" transform="matrix(1.00, 0.00, -0.00, -1.00, 634.1, 624.4)">e</text><text xml:space="preserve" font-family="HelveticaNeue-Light,Helvetica Neue" font-size="72.0" fill="#002451" transform="matrix(1.00, 0.00, -0.00, -1.00, 671.4, 624.4)">m</text><text xml:space="preserve" font-family="HelveticaNeue-Light,Helvetica Neue" font-size="72.0" fill="#002451" transform="matrix(1.00, 0.00, -0.00, -1.00, 731.4, 624.4)">s</text><image xlink:href="A87AE7982BF1DF835B0DCB214B9B5391.png" width="19.00" height="19.00" transform="matrix(1.00, 0.00, -0.00, -1.00, 63.0, 450.0)"></image><text xml:space="preserve" font-family="HelveticaNeue-Light,Helvetica Neue" font-size="27.0" fill="#144005" transform="matrix(1.00, 0.00, -0.00, -1.00, 66.0, 434.2)">•</text><image xlink:href="C5CE8038BC44E9071202EE9497AD2E0C.png" width="659.00" height="42.00" transform="matrix(1.00, 0.00, -0.00, -1.00, 99.0, 458.0)"></image><text xml:space="preserve" font-family="HelveticaNeue-Light,Helvetica Neue" font-size="36.0" fill="#144005" transform="matrix(1.00, 0.00, -0.00, -1.00, 101.0, 430.7)">M</text><text xml:space="preserve" font-family="HelveticaNeue-Light,Helvetica Neue" font-size="36.0" fill="#144005" transform="matrix(1.00, 0.00, -0.00, -1.00, 130.6, 430.7)">o</text><text xml:space="preserve" font-family="HelveticaNeue-Light,Helvetica Neue" font-size="36.0" fill="#144005" transform="matrix(1.00, 0.00, -0.00, -1.00, 150.6, 430.7)">d</text><text xml:space="preserve" font-family="HelveticaNeue-Light,Helvetica Neue" font-size="36.0" fill="#144005" transform="matrix(1.00, 0.00, -0.00, -1.00, 171.2, 430.7)">e</text><text xml:space="preserve" font-family="HelveticaNeue-Light,Helvetica Neue" font-size="36.0" fill="#144005" transform="matrix(1.00, 0.00, -0.00, -1.00, 189.9, 430.7)">l</text><text xml:space="preserve" font-family="HelveticaNeue-Light,Helvetica Neue" font-size="36.0" fill="#144005" transform="matrix(1.00, 0.00, -0.00, -1.00, 196.6, 430.7)"> </text><text xml:space="preserve" font-family="HelveticaNeue-Light,Helvetica Neue" font-size="36.0" fill="#144005" transform="matrix(1.00, 0.00, -0.00, -1.00, 206.6, 430.7)">r</text><text xml:space="preserve" font-family="HelveticaNeue-Light,Helvetica Neue" font-size="36.0" fill="#144005" transform="matrix(1.00, 0.00, -0.00, -1.00, 217.3, 430.7)">e</text><text xml:space="preserve" font-family="HelveticaNeue-Light,Helvetica Neue" font-size="36.0" fill="#144005" transform="matrix(1.00, 0.00, -0.00, -1.00, 236.0, 430.7)">a</text><text xml:space="preserve" font-family="HelveticaNeue-Light,Helvetica Neue" font-size="36.0" fill="#144005" transform="matrix(1.00, 0.00, -0.00, -1.00, 254.6, 430.7)">l</text><text xml:space="preserve" font-family="HelveticaNeue-Light,Helvetica Neue" font-size="36.0" fill="#144005" transform="matrix(1.00, 0.00, -0.00, -1.00, 261.3, 430.7)"> </text><text xml:space="preserve" font-family="HelveticaNeue-Light,Helvetica Neue" font-size="36.0" fill="#144005" transform="matrix(1.00, 0.00, -0.00, -1.00, 271.3, 430.7)">w</text><text xml:space="preserve" font-family="HelveticaNeue-Light,Helvetica Neue" font-size="36.0" fill="#144005" transform="matrix(1.00, 0.00, -0.00, -1.00, 298.0, 430.7)">o</text><text xml:space="preserve" font-family="HelveticaNeue-Light,Helvetica Neue" font-size="36.0" fill="#144005" transform="matrix(1.00, 0.00, -0.00, -1.00, 318.0, 430.7)">r</text><text xml:space="preserve" font-family="HelveticaNeue-Light,Helvetica Neue" font-size="36.0" fill="#144005" transform="matrix(1.00, 0.00, -0.00, -1.00, 329.3, 430.7)">l</text><text xml:space="preserve" font-family="HelveticaNeue-Light,Helvetica Neue" font-size="36.0" fill="#144005" transform="matrix(1.00, 0.00, -0.00, -1.00, 336.0, 430.7)">d</text><text xml:space="preserve" font-family="HelveticaNeue-Light,Helvetica Neue" font-size="36.0" fill="#144005" transform="matrix(1.00, 0.00, -0.00, -1.00, 356.7, 430.7)"> </text><text xml:space="preserve" font-family="HelveticaNeue-Light,Helvetica Neue" font-size="36.0" fill="#144005" transform="matrix(1.00, 0.00, -0.00, -1.00, 366.7, 430.7)">s</text><text xml:space="preserve" font-family="HelveticaNeue-Light,Helvetica Neue" font-size="36.0" fill="#144005" transform="matrix(1.00, 0.00, -0.00, -1.00, 384.0, 430.7)">i</text><text xml:space="preserve" font-family="HelveticaNeue-Light,Helvetica Neue" font-size="36.0" fill="#144005" transform="matrix(1.00, 0.00, -0.00, -1.00, 390.7, 430.7)">t</text><text xml:space="preserve" font-family="HelveticaNeue-Light,Helvetica Neue" font-size="36.0" fill="#144005" transform="matrix(1.00, 0.00, -0.00, -1.00, 401.3, 430.7)">u</text><text xml:space="preserve" font-family="HelveticaNeue-Light,Helvetica Neue" font-size="36.0" fill="#144005" transform="matrix(1.00, 0.00, -0.00, -1.00, 420.6, 430.7)">a</text><text xml:space="preserve" font-family="HelveticaNeue-Light,Helvetica Neue" font-size="36.0" fill="#144005" transform="matrix(1.00, 0.00, -0.00, -1.00, 439.3, 430.7)">t</text><text xml:space="preserve" font-family="HelveticaNeue-Light,Helvetica Neue" font-size="36.0" fill="#144005" transform="matrix(1.00, 0.00, -0.00, -1.00, 450.0, 430.7)">i</text><text xml:space="preserve" font-family="HelveticaNeue-Light,Helvetica Neue" font-size="36.0" fill="#144005" transform="matrix(1.00, 0.00, -0.00, -1.00, 456.6, 430.7)">o</text><text xml:space="preserve" font-family="HelveticaNeue-Light,Helvetica Neue" font-size="36.0" fill="#144005" transform="matrix(1.00, 0.00, -0.00, -1.00, 476.7, 430.7)">n</text><text xml:space="preserve" font-family="HelveticaNeue-Light,Helvetica Neue" font-size="36.0" fill="#144005" transform="matrix(1.00, 0.00, -0.00, -1.00, 496.0, 430.7)">s</text><text xml:space="preserve" font-family="HelveticaNeue-Light,Helvetica Neue" font-size="36.0" fill="#144005" transform="matrix(1.00, 0.00, -0.00, -1.00, 513.3, 430.7)"> </text><text xml:space="preserve" font-family="HelveticaNeue-Light,Helvetica Neue" font-size="36.0" fill="#144005" transform="matrix(1.00, 0.00, -0.00, -1.00, 523.3, 430.7)">m</text><text xml:space="preserve" font-family="HelveticaNeue-Light,Helvetica Neue" font-size="36.0" fill="#144005" transform="matrix(1.00, 0.00, -0.00, -1.00, 553.3, 430.7)">a</text><text xml:space="preserve" font-family="HelveticaNeue-Light,Helvetica Neue" font-size="36.0" fill="#144005" transform="matrix(1.00, 0.00, -0.00, -1.00, 572.0, 430.7)">t</text><text xml:space="preserve" font-family="HelveticaNeue-Light,Helvetica Neue" font-size="36.0" fill="#144005" transform="matrix(1.00, 0.00, -0.00, -1.00, 582.6, 430.7)">h</text><text xml:space="preserve" font-family="HelveticaNeue-Light,Helvetica Neue" font-size="36.0" fill="#144005" transform="matrix(1.00, 0.00, -0.00, -1.00, 602.0, 430.7)">e</text><text xml:space="preserve" font-family="HelveticaNeue-Light,Helvetica Neue" font-size="36.0" fill="#144005" transform="matrix(1.00, 0.00, -0.00, -1.00, 620.7, 430.7)">m</text><text xml:space="preserve" font-family="HelveticaNeue-Light,Helvetica Neue" font-size="36.0" fill="#144005" transform="matrix(1.00, 0.00, -0.00, -1.00, 650.6, 430.7)">a</text><text xml:space="preserve" font-family="HelveticaNeue-Light,Helvetica Neue" font-size="36.0" fill="#144005" transform="matrix(1.00, 0.00, -0.00, -1.00, 669.3, 430.7)">t</text><text xml:space="preserve" font-family="HelveticaNeue-Light,Helvetica Neue" font-size="36.0" fill="#144005" transform="matrix(1.00, 0.00, -0.00, -1.00, 680.0, 430.7)">i</text><text xml:space="preserve" font-family="HelveticaNeue-Light,Helvetica Neue" font-size="36.0" fill="#144005" transform="matrix(1.00, 0.00, -0.00, -1.00, 686.6, 430.7)">c</text><text xml:space="preserve" font-family="HelveticaNeue-Light,Helvetica Neue" font-size="36.0" fill="#144005" transform="matrix(1.00, 0.00, -0.00, -1.00, 705.3, 430.7)">a</text><text xml:space="preserve" font-family="HelveticaNeue-Light,Helvetica Neue" font-size="36.0" fill="#144005" transform="matrix(1.00, 0.00, -0.00, -1.00, 724.0, 430.7)">l</text><text xml:space="preserve" font-family="HelveticaNeue-Light,Helvetica Neue" font-size="36.0" fill="#144005" transform="matrix(1.00, 0.00, -0.00, -1.00, 730.7, 430.7)">l</text><text xml:space="preserve" font-family="HelveticaNeue-Light,Helvetica Neue" font-size="36.0" fill="#144005" transform="matrix(1.00, 0.00, -0.00, -1.00, 737.3, 430.7)">y</text><text xml:space="preserve" font-family="HelveticaNeue-Light,Helvetica Neue" font-size="36.0" fill="#144005" transform="matrix(1.00, 0.00, -0.00, -1.00, 754.0, 430.7)"> </text><image xlink:href="../../8532EDA3-03AF-4F95-ADCC-1003E38AE155/assets/A87AE7982BF1DF835B0DCB214B9B5391.png" width="19.00" height="19.00" transform="matrix(1.00, 0.00, -0.00, -1.00, 63.0, 370.0)"></image><text xml:space="preserve" font-family="HelveticaNeue-Light,Helvetica Neue" font-size="27.0" fill="#144005" transform="matrix(1.00, 0.00, -0.00, -1.00, 66.0, 354.2)">•</text><image xlink:href="D7CF49ED1EC2C80593408C24BA1E3F30.png" width="488.00" height="42.00" transform="matrix(1.00, 0.00, -0.00, -1.00, 96.0, 378.0)"></image><text xml:space="preserve" font-family="HelveticaNeue-Light,Helvetica Neue" font-size="36.0" fill="#144005" transform="matrix(1.00, 0.00, -0.00, -1.00, 101.0, 350.7)">A</text><text xml:space="preserve" font-family="HelveticaNeue-Light,Helvetica Neue" font-size="36.0" fill="#144005" transform="matrix(1.00, 0.00, -0.00, -1.00, 123.7, 350.7)">d</text><text xml:space="preserve" font-family="HelveticaNeue-Light,Helvetica Neue" font-size="36.0" fill="#144005" transform="matrix(1.00, 0.00, -0.00, -1.00, 144.3, 350.7)">d</text><text xml:space="preserve" font-family="HelveticaNeue-Light,Helvetica Neue" font-size="36.0" fill="#144005" transform="matrix(1.00, 0.00, -0.00, -1.00, 165.0, 350.7)"> </text><text xml:space="preserve" font-family="HelveticaNeue-Light,Helvetica Neue" font-size="36.0" fill="#144005" transform="matrix(1.00, 0.00, -0.00, -1.00, 175.0, 350.7)">c</text><text xml:space="preserve" font-family="HelveticaNeue-Light,Helvetica Neue" font-size="36.0" fill="#144005" transform="matrix(1.00, 0.00, -0.00, -1.00, 193.7, 350.7)">o</text><text xml:space="preserve" font-family="HelveticaNeue-Light,Helvetica Neue" font-size="36.0" fill="#144005" transform="matrix(1.00, 0.00, -0.00, -1.00, 213.7, 350.7)">n</text><text xml:space="preserve" font-family="HelveticaNeue-Light,Helvetica Neue" font-size="36.0" fill="#144005" transform="matrix(1.00, 0.00, -0.00, -1.00, 233.0, 350.7)">s</text><text xml:space="preserve" font-family="HelveticaNeue-Light,Helvetica Neue" font-size="36.0" fill="#144005" transform="matrix(1.00, 0.00, -0.00, -1.00, 250.4, 350.7)">t</text><text xml:space="preserve" font-family="HelveticaNeue-Light,Helvetica Neue" font-size="36.0" fill="#144005" transform="matrix(1.00, 0.00, -0.00, -1.00, 261.0, 350.7)">r</text><text xml:space="preserve" font-family="HelveticaNeue-Light,Helvetica Neue" font-size="36.0" fill="#144005" transform="matrix(1.00, 0.00, -0.00, -1.00, 272.4, 350.7)">a</text><text xml:space="preserve" font-family="HelveticaNeue-Light,Helvetica Neue" font-size="36.0" fill="#144005" transform="matrix(1.00, 0.00, -0.00, -1.00, 291.0, 350.7)">i</text><text xml:space="preserve" font-family="HelveticaNeue-Light,Helvetica Neue" font-size="36.0" fill="#144005" transform="matrix(1.00, 0.00, -0.00, -1.00, 297.7, 350.7)">n</text><text xml:space="preserve" font-family="HelveticaNeue-Light,Helvetica Neue" font-size="36.0" fill="#144005" transform="matrix(1.00, 0.00, -0.00, -1.00, 317.0, 350.7)">t</text><text xml:space="preserve" font-family="HelveticaNeue-Light,Helvetica Neue" font-size="36.0" fill="#144005" transform="matrix(1.00, 0.00, -0.00, -1.00, 327.7, 350.7)">s</text><text xml:space="preserve" font-family="HelveticaNeue-Light,Helvetica Neue" font-size="36.0" fill="#144005" transform="matrix(1.00, 0.00, -0.00, -1.00, 345.0, 350.7)"> </text><text xml:space="preserve" font-family="HelveticaNeue-Light,Helvetica Neue" font-size="36.0" fill="#144005" transform="matrix(1.00, 0.00, -0.00, -1.00, 355.0, 350.7)">t</text><text xml:space="preserve" font-family="HelveticaNeue-Light,Helvetica Neue" font-size="36.0" fill="#144005" transform="matrix(1.00, 0.00, -0.00, -1.00, 365.7, 350.7)">o</text><text xml:space="preserve" font-family="HelveticaNeue-Light,Helvetica Neue" font-size="36.0" fill="#144005" transform="matrix(1.00, 0.00, -0.00, -1.00, 385.7, 350.7)"> </text><text xml:space="preserve" font-family="HelveticaNeue-Light,Helvetica Neue" font-size="36.0" fill="#144005" transform="matrix(1.00, 0.00, -0.00, -1.00, 395.7, 350.7)">t</text><text xml:space="preserve" font-family="HelveticaNeue-Light,Helvetica Neue" font-size="36.0" fill="#144005" transform="matrix(1.00, 0.00, -0.00, -1.00, 406.4, 350.7)">h</text><text xml:space="preserve" font-family="HelveticaNeue-Light,Helvetica Neue" font-size="36.0" fill="#144005" transform="matrix(1.00, 0.00, -0.00, -1.00, 425.7, 350.7)">e</text><text xml:space="preserve" font-family="HelveticaNeue-Light,Helvetica Neue" font-size="36.0" fill="#144005" transform="matrix(1.00, 0.00, -0.00, -1.00, 444.4, 350.7)"> </text><text xml:space="preserve" font-family="HelveticaNeue-Light,Helvetica Neue" font-size="36.0" fill="#144005" transform="matrix(1.00, 0.00, -0.00, -1.00, 454.4, 350.7)">p</text><text xml:space="preserve" font-family="HelveticaNeue-Light,Helvetica Neue" font-size="36.0" fill="#144005" transform="matrix(1.00, 0.00, -0.00, -1.00, 475.0, 350.7)">r</text><text xml:space="preserve" font-family="HelveticaNeue-Light,Helvetica Neue" font-size="36.0" fill="#144005" transform="matrix(1.00, 0.00, -0.00, -1.00, 485.7, 350.7)">o</text><text xml:space="preserve" font-family="HelveticaNeue-Light,Helvetica Neue" font-size="36.0" fill="#144005" transform="matrix(1.00, 0.00, -0.00, -1.00, 505.7, 350.7)">b</text><text xml:space="preserve" font-family="HelveticaNeue-Light,Helvetica Neue" font-size="36.0" fill="#144005" transform="matrix(1.00, 0.00, -0.00, -1.00, 526.4, 350.7)">l</text><text xml:space="preserve" font-family="HelveticaNeue-Light,Helvetica Neue" font-size="36.0" fill="#144005" transform="matrix(1.00, 0.00, -0.00, -1.00, 533.1, 350.7)">e</text><text xml:space="preserve" font-family="HelveticaNeue-Light,Helvetica Neue" font-size="36.0" fill="#144005" transform="matrix(1.00, 0.00, -0.00, -1.00, 551.8, 350.7)">m</text><text xml:space="preserve" font-family="HelveticaNeue-Light,Helvetica Neue" font-size="36.0" fill="#144005" transform="matrix(1.00, 0.00, -0.00, -1.00, 581.7, 350.7)"> </text><image xlink:href="../../8532EDA3-03AF-4F95-ADCC-1003E38AE155/assets/A87AE7982BF1DF835B0DCB214B9B5391.png" width="19.00" height="19.00" transform="matrix(1.00, 0.00, -0.00, -1.00, 63.0, 290.0)"></image><text xml:space="preserve" font-family="HelveticaNeue-Light,Helvetica Neue" font-size="27.0" fill="#144005" transform="matrix(1.00, 0.00, -0.00, -1.00, 66.0, 274.2)">•</text><image xlink:href="E20841820E80F6E649D8C57EAD175F74.png" width="268.00" height="42.00" transform="matrix(1.00, 0.00, -0.00, -1.00, 96.0, 298.0)"></image><text xml:space="preserve" font-family="HelveticaNeue-Light,Helvetica Neue" font-size="36.0" fill="#144005" transform="matrix(1.00, 0.00, -0.00, -1.00, 101.0, 270.7)">A</text><text xml:space="preserve" font-family="HelveticaNeue-Light,Helvetica Neue" font-size="36.0" fill="#144005" transform="matrix(1.00, 0.00, -0.00, -1.00, 123.7, 270.7)">d</text><text xml:space="preserve" font-family="HelveticaNeue-Light,Helvetica Neue" font-size="36.0" fill="#144005" transform="matrix(1.00, 0.00, -0.00, -1.00, 144.3, 270.7)">d</text><text xml:space="preserve" font-family="HelveticaNeue-Light,Helvetica Neue" font-size="36.0" fill="#144005" transform="matrix(1.00, 0.00, -0.00, -1.00, 165.0, 270.7)"> </text><text xml:space="preserve" font-family="HelveticaNeue-Light,Helvetica Neue" font-size="36.0" fill="#144005" transform="matrix(1.00, 0.00, -0.00, -1.00, 175.0, 270.7)">a</text><text xml:space="preserve" font-family="HelveticaNeue-Light,Helvetica Neue" font-size="36.0" fill="#144005" transform="matrix(1.00, 0.00, -0.00, -1.00, 193.7, 270.7)">n</text><text xml:space="preserve" font-family="HelveticaNeue-Light,Helvetica Neue" font-size="36.0" fill="#144005" transform="matrix(1.00, 0.00, -0.00, -1.00, 213.0, 270.7)"> </text><text xml:space="preserve" font-family="HelveticaNeue-Light,Helvetica Neue" font-size="36.0" fill="#144005" transform="matrix(1.00, 0.00, -0.00, -1.00, 223.0, 270.7)">o</text><text xml:space="preserve" font-family="HelveticaNeue-Light,Helvetica Neue" font-size="36.0" fill="#144005" transform="matrix(1.00, 0.00, -0.00, -1.00, 243.1, 270.7)">b</text><text xml:space="preserve" font-family="HelveticaNeue-Light,Helvetica Neue" font-size="36.0" fill="#144005" transform="matrix(1.00, 0.00, -0.00, -1.00, 263.7, 270.7)">j</text><text xml:space="preserve" font-family="HelveticaNeue-Light,Helvetica Neue" font-size="36.0" fill="#144005" transform="matrix(1.00, 0.00, -0.00, -1.00, 270.4, 270.7)">e</text><text xml:space="preserve" font-family="HelveticaNeue-Light,Helvetica Neue" font-size="36.0" fill="#144005" transform="matrix(1.00, 0.00, -0.00, -1.00, 289.1, 270.7)">c</text><text xml:space="preserve" font-family="HelveticaNeue-Light,Helvetica Neue" font-size="36.0" fill="#144005" transform="matrix(1.00, 0.00, -0.00, -1.00, 307.7, 270.7)">t</text><text xml:space="preserve" font-family="HelveticaNeue-Light,Helvetica Neue" font-size="36.0" fill="#144005" transform="matrix(1.00, 0.00, -0.00, -1.00, 318.4, 270.7)">i</text><text xml:space="preserve" font-family="HelveticaNeue-Light,Helvetica Neue" font-size="36.0" fill="#144005" transform="matrix(1.00, 0.00, -0.00, -1.00, 325.1, 270.7)">v</text><text xml:space="preserve" font-family="HelveticaNeue-Light,Helvetica Neue" font-size="36.0" fill="#144005" transform="matrix(1.00, 0.00, -0.00, -1.00, 341.7, 270.7)">e</text><text xml:space="preserve" font-family="HelveticaNeue-Light,Helvetica Neue" font-size="36.0" fill="#144005" transform="matrix(1.00, 0.00, -0.00, -1.00, 360.4, 270.7)"> </text><image xlink:href="../../8532EDA3-03AF-4F95-ADCC-1003E38AE155/assets/A87AE7982BF1DF835B0DCB214B9B5391.png" width="19.00" height="19.00" transform="matrix(1.00, 0.00, -0.00, -1.00, 63.0, 210.0)"></image><text xml:space="preserve" font-family="HelveticaNeue-Light,Helvetica Neue" font-size="27.0" fill="#144005" transform="matrix(1.00, 0.00, -0.00, -1.00, 66.0, 194.2)">•</text><image xlink:href="71857898542DF0CD611DB5D1D8DC5C77.png" width="382.00" height="42.00" transform="matrix(1.00, 0.00, -0.00, -1.00, 99.0, 218.0)"></image><text xml:space="preserve" font-family="HelveticaNeue-Light,Helvetica Neue" font-size="36.0" fill="#144005" transform="matrix(1.00, 0.00, -0.00, -1.00, 101.0, 190.7)">F</text><text xml:space="preserve" font-family="HelveticaNeue-Light,Helvetica Neue" font-size="36.0" fill="#144005" transform="matrix(1.00, 0.00, -0.00, -1.00, 120.3, 190.7)">i</text><text xml:space="preserve" font-family="HelveticaNeue-Light,Helvetica Neue" font-size="36.0" fill="#144005" transform="matrix(1.00, 0.00, -0.00, -1.00, 127.0, 190.7)">n</text><text xml:space="preserve" font-family="HelveticaNeue-Light,Helvetica Neue" font-size="36.0" fill="#144005" transform="matrix(1.00, 0.00, -0.00, -1.00, 146.3, 190.7)">d</text><text xml:space="preserve" font-family="HelveticaNeue-Light,Helvetica Neue" font-size="36.0" fill="#144005" transform="matrix(1.00, 0.00, -0.00, -1.00, 167.0, 190.7)"> </text><text xml:space="preserve" font-family="HelveticaNeue-Light,Helvetica Neue" font-size="36.0" fill="#144005" transform="matrix(1.00, 0.00, -0.00, -1.00, 177.0, 190.7)">t</text><text xml:space="preserve" font-family="HelveticaNeue-Light,Helvetica Neue" font-size="36.0" fill="#144005" transform="matrix(1.00, 0.00, -0.00, -1.00, 187.7, 190.7)">h</text><text xml:space="preserve" font-family="HelveticaNeue-Light,Helvetica Neue" font-size="36.0" fill="#144005" transform="matrix(1.00, 0.00, -0.00, -1.00, 207.0, 190.7)">e</text><text xml:space="preserve" font-family="HelveticaNeue-Light,Helvetica Neue" font-size="36.0" fill="#144005" transform="matrix(1.00, 0.00, -0.00, -1.00, 225.7, 190.7)"> </text><text xml:space="preserve" font-family="HelveticaNeue-Light,Helvetica Neue" font-size="36.0" fill="#144005" transform="matrix(1.00, 0.00, -0.00, -1.00, 235.7, 190.7)">o</text><text xml:space="preserve" font-family="HelveticaNeue-Light,Helvetica Neue" font-size="36.0" fill="#144005" transform="matrix(1.00, 0.00, -0.00, -1.00, 255.7, 190.7)">p</text><text xml:space="preserve" font-family="HelveticaNeue-Light,Helvetica Neue" font-size="36.0" fill="#144005" transform="matrix(1.00, 0.00, -0.00, -1.00, 276.4, 190.7)">t</text><text xml:space="preserve" font-family="HelveticaNeue-Light,Helvetica Neue" font-size="36.0" fill="#144005" transform="matrix(1.00, 0.00, -0.00, -1.00, 287.0, 190.7)">i</text><text xml:space="preserve" font-family="HelveticaNeue-Light,Helvetica Neue" font-size="36.0" fill="#144005" transform="matrix(1.00, 0.00, -0.00, -1.00, 293.7, 190.7)">m</text><text xml:space="preserve" font-family="HelveticaNeue-Light,Helvetica Neue" font-size="36.0" fill="#144005" transform="matrix(1.00, 0.00, -0.00, -1.00, 323.7, 190.7)">a</text><text xml:space="preserve" font-family="HelveticaNeue-Light,Helvetica Neue" font-size="36.0" fill="#144005" transform="matrix(1.00, 0.00, -0.00, -1.00, 342.3, 190.7)">l</text><text xml:space="preserve" font-family="HelveticaNeue-Light,Helvetica Neue" font-size="36.0" fill="#144005" transform="matrix(1.00, 0.00, -0.00, -1.00, 349.0, 190.7)"> </text><text xml:space="preserve" font-family="HelveticaNeue-Light,Helvetica Neue" font-size="36.0" fill="#144005" transform="matrix(1.00, 0.00, -0.00, -1.00, 359.0, 190.7)">s</text><text xml:space="preserve" font-family="HelveticaNeue-Light,Helvetica Neue" font-size="36.0" fill="#144005" transform="matrix(1.00, 0.00, -0.00, -1.00, 376.3, 190.7)">o</text><text xml:space="preserve" font-family="HelveticaNeue-Light,Helvetica Neue" font-size="36.0" fill="#144005" transform="matrix(1.00, 0.00, -0.00, -1.00, 396.3, 190.7)">l</text><text xml:space="preserve" font-family="HelveticaNeue-Light,Helvetica Neue" font-size="36.0" fill="#144005" transform="matrix(1.00, 0.00, -0.00, -1.00, 403.0, 190.7)">u</text><text xml:space="preserve" font-family="HelveticaNeue-Light,Helvetica Neue" font-size="36.0" fill="#144005" transform="matrix(1.00, 0.00, -0.00, -1.00, 422.3, 190.7)">t</text><text xml:space="preserve" font-family="HelveticaNeue-Light,Helvetica Neue" font-size="36.0" fill="#144005" transform="matrix(1.00, 0.00, -0.00, -1.00, 433.0, 190.7)">i</text><text xml:space="preserve" font-family="HelveticaNeue-Light,Helvetica Neue" font-size="36.0" fill="#144005" transform="matrix(1.00, 0.00, -0.00, -1.00, 439.7, 190.7)">o</text><text xml:space="preserve" font-family="HelveticaNeue-Light,Helvetica Neue" font-size="36.0" fill="#144005" transform="matrix(1.00, 0.00, -0.00, -1.00, 459.7, 190.7)">n</text></g></svg>