<?xml version="1.0" encoding="UTF-8" standalone="no"?><svg xmlns="http://www.w3.org/2000/svg" xmlns:xlink="http://www.w3.org/1999/xlink" clip-rule="evenodd" stroke-miterlimit="10" viewBox="0 0 1024 768"><desc>SVG generated by Keynote</desc><defs></defs><g transform="matrix(1.00, 0.00, -0.00, -1.00, 0.0, 768.0)"><path d="M 0.0 768.0 L 1024.0 768.0 L 1024.0 0.0 L 0.0 0.0 Z M 0.0 768.0 " fill="#DCDDE0"></path><image xlink:href="../../08CB1A3D-660B-46BD-B846-C681FFACE412/assets/52A17532D21900BB4FEAF571FA807A6E.png" width="779.00" height="75.00" transform="matrix(1.00, 0.00, -0.00, -1.00, 67.0, 713.0)"></image><text xml:space="preserve" font-family="HelveticaNeue-Light,Helvetica Neue" font-size="72.0" fill="#002451" transform="matrix(1.00, 0.00, -0.00, -1.00, 66.0, 660.4)">E</text><text xml:space="preserve" font-family="HelveticaNeue-Light,Helvetica Neue" font-size="72.0" fill="#002451" transform="matrix(1.00, 0.00, -0.00, -1.00, 108.7, 660.4)">x</text><text xml:space="preserve" font-family="HelveticaNeue-Light,Helvetica Neue" font-size="72.0" fill="#002451" transform="matrix(1.00, 0.00, -0.00, -1.00, 143.3, 660.4)">1</text><text xml:space="preserve" font-family="HelveticaNeue-Light,Helvetica Neue" font-size="72.0" fill="#002451" transform="matrix(1.00, 0.00, -0.00, -1.00, 183.4, 660.4)">:</text><text xml:space="preserve" font-family="HelveticaNeue-Light,Helvetica Neue" font-size="72.0" fill="#002451" transform="matrix(1.00, 0.00, -0.00, -1.00, 203.4, 660.4)"> </text><text xml:space="preserve" font-family="HelveticaNeue-Light,Helvetica Neue" font-size="72.0" fill="#002451" transform="matrix(1.00, 0.00, -0.00, -1.00, 223.4, 660.4)">P</text><text xml:space="preserve" font-family="HelveticaNeue-Light,Helvetica Neue" font-size="72.0" fill="#002451" transform="matrix(1.00, 0.00, -0.00, -1.00, 268.8, 660.4)">r</text><text xml:space="preserve" font-family="HelveticaNeue-Light,Helvetica Neue" font-size="72.0" fill="#002451" transform="matrix(1.00, 0.00, -0.00, -1.00, 290.1, 660.4)">o</text><text xml:space="preserve" font-family="HelveticaNeue-Light,Helvetica Neue" font-size="72.0" fill="#002451" transform="matrix(1.00, 0.00, -0.00, -1.00, 330.2, 660.4)">d</text><text xml:space="preserve" font-family="HelveticaNeue-Light,Helvetica Neue" font-size="72.0" fill="#002451" transform="matrix(1.00, 0.00, -0.00, -1.00, 371.5, 660.4)">u</text><text xml:space="preserve" font-family="HelveticaNeue-Light,Helvetica Neue" font-size="72.0" fill="#002451" transform="matrix(1.00, 0.00, -0.00, -1.00, 410.2, 660.4)">c</text><text xml:space="preserve" font-family="HelveticaNeue-Light,Helvetica Neue" font-size="72.0" fill="#002451" transform="matrix(1.00, 0.00, -0.00, -1.00, 447.5, 660.4)">t</text><text xml:space="preserve" font-family="HelveticaNeue-Light,Helvetica Neue" font-size="72.0" fill="#002451" transform="matrix(1.00, 0.00, -0.00, -1.00, 468.8, 660.4)">i</text><text xml:space="preserve" font-family="HelveticaNeue-Light,Helvetica Neue" font-size="72.0" fill="#002451" transform="matrix(1.00, 0.00, -0.00, -1.00, 482.2, 660.4)">o</text><text xml:space="preserve" font-family="HelveticaNeue-Light,Helvetica Neue" font-size="72.0" fill="#002451" transform="matrix(1.00, 0.00, -0.00, -1.00, 522.2, 660.4)">n</text><text xml:space="preserve" font-family="HelveticaNeue-Light,Helvetica Neue" font-size="72.0" fill="#002451" transform="matrix(1.00, 0.00, -0.00, -1.00, 560.9, 660.4)"> </text><text xml:space="preserve" font-family="HelveticaNeue-Light,Helvetica Neue" font-size="72.0" fill="#002451" transform="matrix(1.00, 0.00, -0.00, -1.00, 580.9, 660.4)">P</text><text xml:space="preserve" font-family="HelveticaNeue-Light,Helvetica Neue" font-size="72.0" fill="#002451" transform="matrix(1.00, 0.00, -0.00, -1.00, 626.2, 660.4)">l</text><text xml:space="preserve" font-family="HelveticaNeue-Light,Helvetica Neue" font-size="72.0" fill="#002451" transform="matrix(1.00, 0.00, -0.00, -1.00, 639.6, 660.4)">a</text><text xml:space="preserve" font-family="HelveticaNeue-Light,Helvetica Neue" font-size="72.0" fill="#002451" transform="matrix(1.00, 0.00, -0.00, -1.00, 676.9, 660.4)">n</text><text xml:space="preserve" font-family="HelveticaNeue-Light,Helvetica Neue" font-size="72.0" fill="#002451" transform="matrix(1.00, 0.00, -0.00, -1.00, 715.6, 660.4)">n</text><text xml:space="preserve" font-family="HelveticaNeue-Light,Helvetica Neue" font-size="72.0" fill="#002451" transform="matrix(1.00, 0.00, -0.00, -1.00, 754.2, 660.4)">i</text><text xml:space="preserve" font-family="HelveticaNeue-Light,Helvetica Neue" font-size="72.0" fill="#002451" transform="matrix(1.00, 0.00, -0.00, -1.00, 767.6, 660.4)">n</text><text xml:space="preserve" font-family="HelveticaNeue-Light,Helvetica Neue" font-size="72.0" fill="#002451" transform="matrix(1.00, 0.00, -0.00, -1.00, 806.2, 660.4)">g</text><image xlink:href="../../8532EDA3-03AF-4F95-ADCC-1003E38AE155/assets/A87AE7982BF1DF835B0DCB214B9B5391.png" width="19.00" height="19.00" transform="matrix(1.00, 0.00, -0.00, -1.00, 63.0, 585.0)"></image><text xml:space="preserve" font-family="HelveticaNeue-Light,Helvetica Neue" font-size="27.0" fill="#144005" transform="matrix(1.00, 0.00, -0.00, -1.00, 66.0, 569.2)">•</text><image xlink:href="../../08CB1A3D-660B-46BD-B846-C681FFACE412/assets/CDC30FC0CB3AFA0620C221C8962C3ED5.png" width="686.00" height="42.00" transform="matrix(1.00, 0.00, -0.00, -1.00, 97.0, 593.0)"></image><text xml:space="preserve" font-family="HelveticaNeue-Light,Helvetica Neue" font-size="36.0" fill="#144005" transform="matrix(1.00, 0.00, -0.00, -1.00, 101.0, 565.7)">W</text><text xml:space="preserve" font-family="HelveticaNeue-Light,Helvetica Neue" font-size="36.0" fill="#144005" transform="matrix(1.00, 0.00, -0.00, -1.00, 133.0, 565.7)">e</text><text xml:space="preserve" font-family="HelveticaNeue-Light,Helvetica Neue" font-size="36.0" fill="#144005" transform="matrix(1.00, 0.00, -0.00, -1.00, 151.7, 565.7)"> </text><text xml:space="preserve" font-family="HelveticaNeue-Light,Helvetica Neue" font-size="36.0" fill="#144005" transform="matrix(1.00, 0.00, -0.00, -1.00, 161.7, 565.7)">m</text><text xml:space="preserve" font-family="HelveticaNeue-Light,Helvetica Neue" font-size="36.0" fill="#144005" transform="matrix(1.00, 0.00, -0.00, -1.00, 191.7, 565.7)">a</text><text xml:space="preserve" font-family="HelveticaNeue-Light,Helvetica Neue" font-size="36.0" fill="#144005" transform="matrix(1.00, 0.00, -0.00, -1.00, 210.4, 565.7)">n</text><text xml:space="preserve" font-family="HelveticaNeue-Light,Helvetica Neue" font-size="36.0" fill="#144005" transform="matrix(1.00, 0.00, -0.00, -1.00, 229.7, 565.7)">u</text><text xml:space="preserve" font-family="HelveticaNeue-Light,Helvetica Neue" font-size="36.0" fill="#144005" transform="matrix(1.00, 0.00, -0.00, -1.00, 249.0, 565.7)">f</text><text xml:space="preserve" font-family="HelveticaNeue-Light,Helvetica Neue" font-size="36.0" fill="#144005" transform="matrix(1.00, 0.00, -0.00, -1.00, 258.4, 565.7)">a</text><text xml:space="preserve" font-family="HelveticaNeue-Light,Helvetica Neue" font-size="36.0" fill="#144005" transform="matrix(1.00, 0.00, -0.00, -1.00, 277.0, 565.7)">c</text><text xml:space="preserve" font-family="HelveticaNeue-Light,Helvetica Neue" font-size="36.0" fill="#144005" transform="matrix(1.00, 0.00, -0.00, -1.00, 295.7, 565.7)">t</text><text xml:space="preserve" font-family="HelveticaNeue-Light,Helvetica Neue" font-size="36.0" fill="#144005" transform="matrix(1.00, 0.00, -0.00, -1.00, 306.4, 565.7)">u</text><text xml:space="preserve" font-family="HelveticaNeue-Light,Helvetica Neue" font-size="36.0" fill="#144005" transform="matrix(1.00, 0.00, -0.00, -1.00, 325.7, 565.7)">r</text><text xml:space="preserve" font-family="HelveticaNeue-Light,Helvetica Neue" font-size="36.0" fill="#144005" transform="matrix(1.00, 0.00, -0.00, -1.00, 336.4, 565.7)">e</text><text xml:space="preserve" font-family="HelveticaNeue-Light,Helvetica Neue" font-size="36.0" fill="#144005" transform="matrix(1.00, 0.00, -0.00, -1.00, 355.1, 565.7)"> </text><text xml:space="preserve" font-family="HelveticaNeue-Light,Helvetica Neue" font-size="36.0" fill="#144005" transform="matrix(1.00, 0.00, -0.00, -1.00, 365.1, 565.7)">3</text><text xml:space="preserve" font-family="HelveticaNeue-Light,Helvetica Neue" font-size="36.0" fill="#144005" transform="matrix(1.00, 0.00, -0.00, -1.00, 385.1, 565.7)"> </text><text xml:space="preserve" font-family="HelveticaNeue-Light,Helvetica Neue" font-size="36.0" fill="#144005" transform="matrix(1.00, 0.00, -0.00, -1.00, 395.1, 565.7)">p</text><text xml:space="preserve" font-family="HelveticaNeue-Light,Helvetica Neue" font-size="36.0" fill="#144005" transform="matrix(1.00, 0.00, -0.00, -1.00, 415.8, 565.7)">r</text><text xml:space="preserve" font-family="HelveticaNeue-Light,Helvetica Neue" font-size="36.0" fill="#144005" transform="matrix(1.00, 0.00, -0.00, -1.00, 426.5, 565.7)">o</text><text xml:space="preserve" font-family="HelveticaNeue-Light,Helvetica Neue" font-size="36.0" fill="#144005" transform="matrix(1.00, 0.00, -0.00, -1.00, 446.5, 565.7)">d</text><text xml:space="preserve" font-family="HelveticaNeue-Light,Helvetica Neue" font-size="36.0" fill="#144005" transform="matrix(1.00, 0.00, -0.00, -1.00, 467.2, 565.7)">u</text><text xml:space="preserve" font-family="HelveticaNeue-Light,Helvetica Neue" font-size="36.0" fill="#144005" transform="matrix(1.00, 0.00, -0.00, -1.00, 486.5, 565.7)">c</text><text xml:space="preserve" font-family="HelveticaNeue-Light,Helvetica Neue" font-size="36.0" fill="#144005" transform="matrix(1.00, 0.00, -0.00, -1.00, 505.2, 565.7)">t</text><text xml:space="preserve" font-family="HelveticaNeue-Light,Helvetica Neue" font-size="36.0" fill="#144005" transform="matrix(1.00, 0.00, -0.00, -1.00, 515.8, 565.7)">s</text><text xml:space="preserve" font-family="HelveticaNeue-Light,Helvetica Neue" font-size="36.0" fill="#144005" transform="matrix(1.00, 0.00, -0.00, -1.00, 533.1, 565.7)">.</text><text xml:space="preserve" font-family="HelveticaNeue-Light,Helvetica Neue" font-size="36.0" fill="#144005" transform="matrix(1.00, 0.00, -0.00, -1.00, 543.2, 565.7)"> </text><text xml:space="preserve" font-family="HelveticaNeue-Light,Helvetica Neue" font-size="36.0" fill="#144005" transform="matrix(1.00, 0.00, -0.00, -1.00, 553.2, 565.7)">P</text><text xml:space="preserve" font-family="HelveticaNeue-Light,Helvetica Neue" font-size="36.0" fill="#144005" transform="matrix(1.00, 0.00, -0.00, -1.00, 575.8, 565.7)">1</text><text xml:space="preserve" font-family="HelveticaNeue-Light,Helvetica Neue" font-size="36.0" fill="#144005" transform="matrix(1.00, 0.00, -0.00, -1.00, 595.9, 565.7)">,</text><text xml:space="preserve" font-family="HelveticaNeue-Light,Helvetica Neue" font-size="36.0" fill="#144005" transform="matrix(1.00, 0.00, -0.00, -1.00, 605.9, 565.7)">P</text><text xml:space="preserve" font-family="HelveticaNeue-Light,Helvetica Neue" font-size="36.0" fill="#144005" transform="matrix(1.00, 0.00, -0.00, -1.00, 628.5, 565.7)">2</text><text xml:space="preserve" font-family="HelveticaNeue-Light,Helvetica Neue" font-size="36.0" fill="#144005" transform="matrix(1.00, 0.00, -0.00, -1.00, 648.6, 565.7)">,</text><text xml:space="preserve" font-family="HelveticaNeue-Light,Helvetica Neue" font-size="36.0" fill="#144005" transform="matrix(1.00, 0.00, -0.00, -1.00, 658.6, 565.7)"> </text><text xml:space="preserve" font-family="HelveticaNeue-Light,Helvetica Neue" font-size="36.0" fill="#144005" transform="matrix(1.00, 0.00, -0.00, -1.00, 668.6, 565.7)">a</text><text xml:space="preserve" font-family="HelveticaNeue-Light,Helvetica Neue" font-size="36.0" fill="#144005" transform="matrix(1.00, 0.00, -0.00, -1.00, 687.3, 565.7)">n</text><text xml:space="preserve" font-family="HelveticaNeue-Light,Helvetica Neue" font-size="36.0" fill="#144005" transform="matrix(1.00, 0.00, -0.00, -1.00, 706.6, 565.7)">d</text><text xml:space="preserve" font-family="HelveticaNeue-Light,Helvetica Neue" font-size="36.0" fill="#144005" transform="matrix(1.00, 0.00, -0.00, -1.00, 727.3, 565.7)"> </text><text xml:space="preserve" font-family="HelveticaNeue-Light,Helvetica Neue" font-size="36.0" fill="#144005" transform="matrix(1.00, 0.00, -0.00, -1.00, 737.3, 565.7)">P</text><text xml:space="preserve" font-family="HelveticaNeue-Light,Helvetica Neue" font-size="36.0" fill="#144005" transform="matrix(1.00, 0.00, -0.00, -1.00, 759.9, 565.7)">3</text><text xml:space="preserve" font-family="HelveticaNeue-Light,Helvetica Neue" font-size="36.0" fill="#144005" transform="matrix(1.00, 0.00, -0.00, -1.00, 780.0, 565.7)"> </text><image xlink:href="../../8532EDA3-03AF-4F95-ADCC-1003E38AE155/assets/A87AE7982BF1DF835B0DCB214B9B5391.png" width="19.00" height="19.00" transform="matrix(1.00, 0.00, -0.00, -1.00, 63.0, 505.0)"></image><text xml:space="preserve" font-family="HelveticaNeue-Light,Helvetica Neue" font-size="27.0" fill="#144005" transform="matrix(1.00, 0.00, -0.00, -1.00, 66.0, 489.2)">•</text><image xlink:href="../../08CB1A3D-660B-46BD-B846-C681FFACE412/assets/515AEDE29FD8E5E9782EE11C9F839D85.png" width="684.00" height="45.00" transform="matrix(1.00, 0.00, -0.00, -1.00, 96.0, 516.0)"></image><text xml:space="preserve" font-family="HelveticaNeue-Light,Helvetica Neue" font-size="36.0" fill="#144005" transform="matrix(1.00, 0.00, -0.00, -1.00, 101.0, 485.7)">T</text><text xml:space="preserve" font-family="HelveticaNeue-Light,Helvetica Neue" font-size="36.0" fill="#144005" transform="matrix(1.00, 0.00, -0.00, -1.00, 121.0, 485.7)">h</text><text xml:space="preserve" font-family="HelveticaNeue-Light,Helvetica Neue" font-size="36.0" fill="#144005" transform="matrix(1.00, 0.00, -0.00, -1.00, 140.3, 485.7)">e</text><text xml:space="preserve" font-family="HelveticaNeue-Light,Helvetica Neue" font-size="36.0" fill="#144005" transform="matrix(1.00, 0.00, -0.00, -1.00, 159.0, 485.7)">y</text><text xml:space="preserve" font-family="HelveticaNeue-Light,Helvetica Neue" font-size="36.0" fill="#144005" transform="matrix(1.00, 0.00, -0.00, -1.00, 175.7, 485.7)"> </text><text xml:space="preserve" font-family="HelveticaNeue-Light,Helvetica Neue" font-size="36.0" fill="#144005" transform="matrix(1.00, 0.00, -0.00, -1.00, 185.7, 485.7)">s</text><text xml:space="preserve" font-family="HelveticaNeue-Light,Helvetica Neue" font-size="36.0" fill="#144005" transform="matrix(1.00, 0.00, -0.00, -1.00, 203.0, 485.7)">e</text><text xml:space="preserve" font-family="HelveticaNeue-Light,Helvetica Neue" font-size="36.0" fill="#144005" transform="matrix(1.00, 0.00, -0.00, -1.00, 221.7, 485.7)">l</text><text xml:space="preserve" font-family="HelveticaNeue-Light,Helvetica Neue" font-size="36.0" fill="#144005" transform="matrix(1.00, 0.00, -0.00, -1.00, 228.4, 485.7)">l</text><text xml:space="preserve" font-family="HelveticaNeue-Light,Helvetica Neue" font-size="36.0" fill="#144005" transform="matrix(1.00, 0.00, -0.00, -1.00, 235.0, 485.7)"> </text><text xml:space="preserve" font-family="HelveticaNeue-Light,Helvetica Neue" font-size="36.0" fill="#144005" transform="matrix(1.00, 0.00, -0.00, -1.00, 245.0, 485.7)">f</text><text xml:space="preserve" font-family="HelveticaNeue-Light,Helvetica Neue" font-size="36.0" fill="#144005" transform="matrix(1.00, 0.00, -0.00, -1.00, 254.4, 485.7)">o</text><text xml:space="preserve" font-family="HelveticaNeue-Light,Helvetica Neue" font-size="36.0" fill="#144005" transform="matrix(1.00, 0.00, -0.00, -1.00, 274.4, 485.7)">r</text><text xml:space="preserve" font-family="HelveticaNeue-Light,Helvetica Neue" font-size="36.0" fill="#144005" transform="matrix(1.00, 0.00, -0.00, -1.00, 285.7, 485.7)"> </text><text xml:space="preserve" font-family="HelveticaNeue-Light,Helvetica Neue" font-size="36.0" fill="#144005" transform="matrix(1.00, 0.00, -0.00, -1.00, 295.7, 485.7)">$</text><text xml:space="preserve" font-family="HelveticaNeue-Light,Helvetica Neue" font-size="36.0" fill="#144005" transform="matrix(1.00, 0.00, -0.00, -1.00, 315.7, 485.7)">2</text><text xml:space="preserve" font-family="HelveticaNeue-Light,Helvetica Neue" font-size="36.0" fill="#144005" transform="matrix(1.00, 0.00, -0.00, -1.00, 335.8, 485.7)">0</text><text xml:space="preserve" font-family="HelveticaNeue-Light,Helvetica Neue" font-size="36.0" fill="#144005" transform="matrix(1.00, 0.00, -0.00, -1.00, 355.8, 485.7)">,</text><text xml:space="preserve" font-family="HelveticaNeue-Light,Helvetica Neue" font-size="36.0" fill="#144005" transform="matrix(1.00, 0.00, -0.00, -1.00, 365.8, 485.7)"> </text><text xml:space="preserve" font-family="HelveticaNeue-Light,Helvetica Neue" font-size="36.0" fill="#144005" transform="matrix(1.00, 0.00, -0.00, -1.00, 375.8, 485.7)">$</text><text xml:space="preserve" font-family="HelveticaNeue-Light,Helvetica Neue" font-size="36.0" fill="#144005" transform="matrix(1.00, 0.00, -0.00, -1.00, 395.8, 485.7)">1</text><text xml:space="preserve" font-family="HelveticaNeue-Light,Helvetica Neue" font-size="36.0" fill="#144005" transform="matrix(1.00, 0.00, -0.00, -1.00, 415.8, 485.7)">5</text><text xml:space="preserve" font-family="HelveticaNeue-Light,Helvetica Neue" font-size="36.0" fill="#144005" transform="matrix(1.00, 0.00, -0.00, -1.00, 435.8, 485.7)">,</text><text xml:space="preserve" font-family="HelveticaNeue-Light,Helvetica Neue" font-size="36.0" fill="#144005" transform="matrix(1.00, 0.00, -0.00, -1.00, 445.8, 485.7)"> </text><text xml:space="preserve" font-family="HelveticaNeue-Light,Helvetica Neue" font-size="36.0" fill="#144005" transform="matrix(1.00, 0.00, -0.00, -1.00, 455.9, 485.7)">a</text><text xml:space="preserve" font-family="HelveticaNeue-Light,Helvetica Neue" font-size="36.0" fill="#144005" transform="matrix(1.00, 0.00, -0.00, -1.00, 474.5, 485.7)">n</text><text xml:space="preserve" font-family="HelveticaNeue-Light,Helvetica Neue" font-size="36.0" fill="#144005" transform="matrix(1.00, 0.00, -0.00, -1.00, 493.9, 485.7)">d</text><text xml:space="preserve" font-family="HelveticaNeue-Light,Helvetica Neue" font-size="36.0" fill="#144005" transform="matrix(1.00, 0.00, -0.00, -1.00, 514.5, 485.7)"> </text><text xml:space="preserve" font-family="HelveticaNeue-Light,Helvetica Neue" font-size="36.0" fill="#144005" transform="matrix(1.00, 0.00, -0.00, -1.00, 524.5, 485.7)">$</text><text xml:space="preserve" font-family="HelveticaNeue-Light,Helvetica Neue" font-size="36.0" fill="#144005" transform="matrix(1.00, 0.00, -0.00, -1.00, 544.6, 485.7)">1</text><text xml:space="preserve" font-family="HelveticaNeue-Light,Helvetica Neue" font-size="36.0" fill="#144005" transform="matrix(1.00, 0.00, -0.00, -1.00, 564.6, 485.7)">7</text><text xml:space="preserve" font-family="HelveticaNeue-Light,Helvetica Neue" font-size="36.0" fill="#144005" transform="matrix(1.00, 0.00, -0.00, -1.00, 584.6, 485.7)"> </text><text xml:space="preserve" font-family="HelveticaNeue-Light,Helvetica Neue" font-size="36.0" fill="#144005" transform="matrix(1.00, 0.00, -0.00, -1.00, 594.6, 485.7)">r</text><text xml:space="preserve" font-family="HelveticaNeue-Light,Helvetica Neue" font-size="36.0" fill="#144005" transform="matrix(1.00, 0.00, -0.00, -1.00, 605.3, 485.7)">e</text><text xml:space="preserve" font-family="HelveticaNeue-Light,Helvetica Neue" font-size="36.0" fill="#144005" transform="matrix(1.00, 0.00, -0.00, -1.00, 624.0, 485.7)">s</text><text xml:space="preserve" font-family="HelveticaNeue-Light,Helvetica Neue" font-size="36.0" fill="#144005" transform="matrix(1.00, 0.00, -0.00, -1.00, 641.3, 485.7)">p</text><text xml:space="preserve" font-family="HelveticaNeue-Light,Helvetica Neue" font-size="36.0" fill="#144005" transform="matrix(1.00, 0.00, -0.00, -1.00, 662.0, 485.7)">e</text><text xml:space="preserve" font-family="HelveticaNeue-Light,Helvetica Neue" font-size="36.0" fill="#144005" transform="matrix(1.00, 0.00, -0.00, -1.00, 680.6, 485.7)">c</text><text xml:space="preserve" font-family="HelveticaNeue-Light,Helvetica Neue" font-size="36.0" fill="#144005" transform="matrix(1.00, 0.00, -0.00, -1.00, 699.3, 485.7)">t</text><text xml:space="preserve" font-family="HelveticaNeue-Light,Helvetica Neue" font-size="36.0" fill="#144005" transform="matrix(1.00, 0.00, -0.00, -1.00, 710.0, 485.7)">i</text><text xml:space="preserve" font-family="HelveticaNeue-Light,Helvetica Neue" font-size="36.0" fill="#144005" transform="matrix(1.00, 0.00, -0.00, -1.00, 716.6, 485.7)">v</text><text xml:space="preserve" font-family="HelveticaNeue-Light,Helvetica Neue" font-size="36.0" fill="#144005" transform="matrix(1.00, 0.00, -0.00, -1.00, 733.3, 485.7)">e</text><text xml:space="preserve" font-family="HelveticaNeue-Light,Helvetica Neue" font-size="36.0" fill="#144005" transform="matrix(1.00, 0.00, -0.00, -1.00, 752.0, 485.7)">l</text><text xml:space="preserve" font-family="HelveticaNeue-Light,Helvetica Neue" font-size="36.0" fill="#144005" transform="matrix(1.00, 0.00, -0.00, -1.00, 758.6, 485.7)">y</text><text xml:space="preserve" font-family="HelveticaNeue-Light,Helvetica Neue" font-size="36.0" fill="#144005" transform="matrix(1.00, 0.00, -0.00, -1.00, 775.3, 485.7)"> </text><image xlink:href="../../8532EDA3-03AF-4F95-ADCC-1003E38AE155/assets/A87AE7982BF1DF835B0DCB214B9B5391.png" width="19.00" height="19.00" transform="matrix(1.00, 0.00, -0.00, -1.00, 63.0, 425.0)"></image><text xml:space="preserve" font-family="HelveticaNeue-Light,Helvetica Neue" font-size="27.0" fill="#144005" transform="matrix(1.00, 0.00, -0.00, -1.00, 66.0, 409.2)">•</text><image xlink:href="../../08CB1A3D-660B-46BD-B846-C681FFACE412/assets/C6BD1ADF637AE908615EE9D908D1583C.png" width="654.00" height="40.00" transform="matrix(1.00, 0.00, -0.00, -1.00, 99.0, 433.0)"></image><text xml:space="preserve" font-family="HelveticaNeue-Light,Helvetica Neue" font-size="36.0" fill="#144005" transform="matrix(1.00, 0.00, -0.00, -1.00, 101.0, 405.7)">M</text><text xml:space="preserve" font-family="HelveticaNeue-Light,Helvetica Neue" font-size="36.0" fill="#144005" transform="matrix(1.00, 0.00, -0.00, -1.00, 130.6, 405.7)">a</text><text xml:space="preserve" font-family="HelveticaNeue-Light,Helvetica Neue" font-size="36.0" fill="#144005" transform="matrix(1.00, 0.00, -0.00, -1.00, 149.2, 405.7)">n</text><text xml:space="preserve" font-family="HelveticaNeue-Light,Helvetica Neue" font-size="36.0" fill="#144005" transform="matrix(1.00, 0.00, -0.00, -1.00, 168.6, 405.7)">u</text><text xml:space="preserve" font-family="HelveticaNeue-Light,Helvetica Neue" font-size="36.0" fill="#144005" transform="matrix(1.00, 0.00, -0.00, -1.00, 187.9, 405.7)">f</text><text xml:space="preserve" font-family="HelveticaNeue-Light,Helvetica Neue" font-size="36.0" fill="#144005" transform="matrix(1.00, 0.00, -0.00, -1.00, 197.2, 405.7)">a</text><text xml:space="preserve" font-family="HelveticaNeue-Light,Helvetica Neue" font-size="36.0" fill="#144005" transform="matrix(1.00, 0.00, -0.00, -1.00, 215.9, 405.7)">c</text><text xml:space="preserve" font-family="HelveticaNeue-Light,Helvetica Neue" font-size="36.0" fill="#144005" transform="matrix(1.00, 0.00, -0.00, -1.00, 234.6, 405.7)">t</text><text xml:space="preserve" font-family="HelveticaNeue-Light,Helvetica Neue" font-size="36.0" fill="#144005" transform="matrix(1.00, 0.00, -0.00, -1.00, 245.3, 405.7)">u</text><text xml:space="preserve" font-family="HelveticaNeue-Light,Helvetica Neue" font-size="36.0" fill="#144005" transform="matrix(1.00, 0.00, -0.00, -1.00, 264.6, 405.7)">r</text><text xml:space="preserve" font-family="HelveticaNeue-Light,Helvetica Neue" font-size="36.0" fill="#144005" transform="matrix(1.00, 0.00, -0.00, -1.00, 275.3, 405.7)">e</text><text xml:space="preserve" font-family="HelveticaNeue-Light,Helvetica Neue" font-size="36.0" fill="#144005" transform="matrix(1.00, 0.00, -0.00, -1.00, 294.0, 405.7)">d</text><text xml:space="preserve" font-family="HelveticaNeue-Light,Helvetica Neue" font-size="36.0" fill="#144005" transform="matrix(1.00, 0.00, -0.00, -1.00, 314.6, 405.7)"> </text><text xml:space="preserve" font-family="HelveticaNeue-Light,Helvetica Neue" font-size="36.0" fill="#144005" transform="matrix(1.00, 0.00, -0.00, -1.00, 324.6, 405.7)">o</text><text xml:space="preserve" font-family="HelveticaNeue-Light,Helvetica Neue" font-size="36.0" fill="#144005" transform="matrix(1.00, 0.00, -0.00, -1.00, 344.6, 405.7)">n</text><text xml:space="preserve" font-family="HelveticaNeue-Light,Helvetica Neue" font-size="36.0" fill="#144005" transform="matrix(1.00, 0.00, -0.00, -1.00, 364.0, 405.7)"> </text><text xml:space="preserve" font-family="HelveticaNeue-Light,Helvetica Neue" font-size="36.0" fill="#144005" transform="matrix(1.00, 0.00, -0.00, -1.00, 374.0, 405.7)">2</text><text xml:space="preserve" font-family="HelveticaNeue-Light,Helvetica Neue" font-size="36.0" fill="#144005" transform="matrix(1.00, 0.00, -0.00, -1.00, 394.0, 405.7)"> </text><text xml:space="preserve" font-family="HelveticaNeue-Light,Helvetica Neue" font-size="36.0" fill="#144005" transform="matrix(1.00, 0.00, -0.00, -1.00, 404.0, 405.7)">m</text><text xml:space="preserve" font-family="HelveticaNeue-Light,Helvetica Neue" font-size="36.0" fill="#144005" transform="matrix(1.00, 0.00, -0.00, -1.00, 434.0, 405.7)">a</text><text xml:space="preserve" font-family="HelveticaNeue-Light,Helvetica Neue" font-size="36.0" fill="#144005" transform="matrix(1.00, 0.00, -0.00, -1.00, 452.7, 405.7)">c</text><text xml:space="preserve" font-family="HelveticaNeue-Light,Helvetica Neue" font-size="36.0" fill="#144005" transform="matrix(1.00, 0.00, -0.00, -1.00, 471.4, 405.7)">h</text><text xml:space="preserve" font-family="HelveticaNeue-Light,Helvetica Neue" font-size="36.0" fill="#144005" transform="matrix(1.00, 0.00, -0.00, -1.00, 490.7, 405.7)">i</text><text xml:space="preserve" font-family="HelveticaNeue-Light,Helvetica Neue" font-size="36.0" fill="#144005" transform="matrix(1.00, 0.00, -0.00, -1.00, 497.4, 405.7)">n</text><text xml:space="preserve" font-family="HelveticaNeue-Light,Helvetica Neue" font-size="36.0" fill="#144005" transform="matrix(1.00, 0.00, -0.00, -1.00, 516.7, 405.7)">e</text><text xml:space="preserve" font-family="HelveticaNeue-Light,Helvetica Neue" font-size="36.0" fill="#144005" transform="matrix(1.00, 0.00, -0.00, -1.00, 535.4, 405.7)">s</text><text xml:space="preserve" font-family="HelveticaNeue-Light,Helvetica Neue" font-size="36.0" fill="#144005" transform="matrix(1.00, 0.00, -0.00, -1.00, 552.7, 405.7)">,</text><text xml:space="preserve" font-family="HelveticaNeue-Light,Helvetica Neue" font-size="36.0" fill="#144005" transform="matrix(1.00, 0.00, -0.00, -1.00, 562.7, 405.7)"> </text><text xml:space="preserve" font-family="HelveticaNeue-Light,Helvetica Neue" font-size="36.0" fill="#144005" transform="matrix(1.00, 0.00, -0.00, -1.00, 572.7, 405.7)">M</text><text xml:space="preserve" font-family="HelveticaNeue-Light,Helvetica Neue" font-size="36.0" fill="#144005" transform="matrix(1.00, 0.00, -0.00, -1.00, 602.3, 405.7)">1</text><text xml:space="preserve" font-family="HelveticaNeue-Light,Helvetica Neue" font-size="36.0" fill="#144005" transform="matrix(1.00, 0.00, -0.00, -1.00, 622.3, 405.7)"> </text><text xml:space="preserve" font-family="HelveticaNeue-Light,Helvetica Neue" font-size="36.0" fill="#144005" transform="matrix(1.00, 0.00, -0.00, -1.00, 632.3, 405.7)">a</text><text xml:space="preserve" font-family="HelveticaNeue-Light,Helvetica Neue" font-size="36.0" fill="#144005" transform="matrix(1.00, 0.00, -0.00, -1.00, 651.0, 405.7)">n</text><text xml:space="preserve" font-family="HelveticaNeue-Light,Helvetica Neue" font-size="36.0" fill="#144005" transform="matrix(1.00, 0.00, -0.00, -1.00, 670.3, 405.7)">d</text><text xml:space="preserve" font-family="HelveticaNeue-Light,Helvetica Neue" font-size="36.0" fill="#144005" transform="matrix(1.00, 0.00, -0.00, -1.00, 691.0, 405.7)"> </text><text xml:space="preserve" font-family="HelveticaNeue-Light,Helvetica Neue" font-size="36.0" fill="#144005" transform="matrix(1.00, 0.00, -0.00, -1.00, 701.0, 405.7)">M</text><text xml:space="preserve" font-family="HelveticaNeue-Light,Helvetica Neue" font-size="36.0" fill="#144005" transform="matrix(1.00, 0.00, -0.00, -1.00, 730.5, 405.7)">2</text><text xml:space="preserve" font-family="HelveticaNeue-Light,Helvetica Neue" font-size="36.0" fill="#144005" transform="matrix(1.00, 0.00, -0.00, -1.00, 750.5, 405.7)"> </text><image xlink:href="../../8532EDA3-03AF-4F95-ADCC-1003E38AE155/assets/A87AE7982BF1DF835B0DCB214B9B5391.png" width="19.00" height="19.00" transform="matrix(1.00, 0.00, -0.00, -1.00, 63.0, 345.0)"></image><text xml:space="preserve" font-family="HelveticaNeue-Light,Helvetica Neue" font-size="27.0" fill="#144005" transform="matrix(1.00, 0.00, -0.00, -1.00, 66.0, 329.2)">•</text><image xlink:href="../../08CB1A3D-660B-46BD-B846-C681FFACE412/assets/76685F32041D703E92BA42460314B922.png" width="579.00" height="42.00" transform="matrix(1.00, 0.00, -0.00, -1.00, 99.0, 353.0)"></image><text xml:space="preserve" font-family="HelveticaNeue-Light,Helvetica Neue" font-size="36.0" fill="#144005" transform="matrix(1.00, 0.00, -0.00, -1.00, 101.0, 325.7)">E</text><text xml:space="preserve" font-family="HelveticaNeue-Light,Helvetica Neue" font-size="36.0" fill="#144005" transform="matrix(1.00, 0.00, -0.00, -1.00, 122.3, 325.7)">a</text><text xml:space="preserve" font-family="HelveticaNeue-Light,Helvetica Neue" font-size="36.0" fill="#144005" transform="matrix(1.00, 0.00, -0.00, -1.00, 141.0, 325.7)">c</text><text xml:space="preserve" font-family="HelveticaNeue-Light,Helvetica Neue" font-size="36.0" fill="#144005" transform="matrix(1.00, 0.00, -0.00, -1.00, 159.7, 325.7)">h</text><text xml:space="preserve" font-family="HelveticaNeue-Light,Helvetica Neue" font-size="36.0" fill="#144005" transform="matrix(1.00, 0.00, -0.00, -1.00, 179.0, 325.7)"> </text><text xml:space="preserve" font-family="HelveticaNeue-Light,Helvetica Neue" font-size="36.0" fill="#144005" transform="matrix(1.00, 0.00, -0.00, -1.00, 189.1, 325.7)">i</text><text xml:space="preserve" font-family="HelveticaNeue-Light,Helvetica Neue" font-size="36.0" fill="#144005" transform="matrix(1.00, 0.00, -0.00, -1.00, 195.7, 325.7)">s</text><text xml:space="preserve" font-family="HelveticaNeue-Light,Helvetica Neue" font-size="36.0" fill="#144005" transform="matrix(1.00, 0.00, -0.00, -1.00, 213.0, 325.7)"> </text><text xml:space="preserve" font-family="HelveticaNeue-Light,Helvetica Neue" font-size="36.0" fill="#144005" transform="matrix(1.00, 0.00, -0.00, -1.00, 223.0, 325.7)">p</text><text xml:space="preserve" font-family="HelveticaNeue-Light,Helvetica Neue" font-size="36.0" fill="#144005" transform="matrix(1.00, 0.00, -0.00, -1.00, 243.7, 325.7)">r</text><text xml:space="preserve" font-family="HelveticaNeue-Light,Helvetica Neue" font-size="36.0" fill="#144005" transform="matrix(1.00, 0.00, -0.00, -1.00, 254.4, 325.7)">o</text><text xml:space="preserve" font-family="HelveticaNeue-Light,Helvetica Neue" font-size="36.0" fill="#144005" transform="matrix(1.00, 0.00, -0.00, -1.00, 274.4, 325.7)">c</text><text xml:space="preserve" font-family="HelveticaNeue-Light,Helvetica Neue" font-size="36.0" fill="#144005" transform="matrix(1.00, 0.00, -0.00, -1.00, 293.1, 325.7)">e</text><text xml:space="preserve" font-family="HelveticaNeue-Light,Helvetica Neue" font-size="36.0" fill="#144005" transform="matrix(1.00, 0.00, -0.00, -1.00, 311.8, 325.7)">s</text><text xml:space="preserve" font-family="HelveticaNeue-Light,Helvetica Neue" font-size="36.0" fill="#144005" transform="matrix(1.00, 0.00, -0.00, -1.00, 329.1, 325.7)">s</text><text xml:space="preserve" font-family="HelveticaNeue-Light,Helvetica Neue" font-size="36.0" fill="#144005" transform="matrix(1.00, 0.00, -0.00, -1.00, 346.4, 325.7)">e</text><text xml:space="preserve" font-family="HelveticaNeue-Light,Helvetica Neue" font-size="36.0" fill="#144005" transform="matrix(1.00, 0.00, -0.00, -1.00, 365.1, 325.7)">d</text><text xml:space="preserve" font-family="HelveticaNeue-Light,Helvetica Neue" font-size="36.0" fill="#144005" transform="matrix(1.00, 0.00, -0.00, -1.00, 385.8, 325.7)"> </text><text xml:space="preserve" font-family="HelveticaNeue-Light,Helvetica Neue" font-size="36.0" fill="#144005" transform="matrix(1.00, 0.00, -0.00, -1.00, 395.8, 325.7)">o</text><text xml:space="preserve" font-family="HelveticaNeue-Light,Helvetica Neue" font-size="36.0" fill="#144005" transform="matrix(1.00, 0.00, -0.00, -1.00, 415.8, 325.7)">n</text><text xml:space="preserve" font-family="HelveticaNeue-Light,Helvetica Neue" font-size="36.0" fill="#144005" transform="matrix(1.00, 0.00, -0.00, -1.00, 435.1, 325.7)"> </text><text xml:space="preserve" font-family="HelveticaNeue-Light,Helvetica Neue" font-size="36.0" fill="#144005" transform="matrix(1.00, 0.00, -0.00, -1.00, 445.1, 325.7)">b</text><text xml:space="preserve" font-family="HelveticaNeue-Light,Helvetica Neue" font-size="36.0" fill="#144005" transform="matrix(1.00, 0.00, -0.00, -1.00, 465.8, 325.7)">o</text><text xml:space="preserve" font-family="HelveticaNeue-Light,Helvetica Neue" font-size="36.0" fill="#144005" transform="matrix(1.00, 0.00, -0.00, -1.00, 485.8, 325.7)">t</text><text xml:space="preserve" font-family="HelveticaNeue-Light,Helvetica Neue" font-size="36.0" fill="#144005" transform="matrix(1.00, 0.00, -0.00, -1.00, 496.5, 325.7)">h</text><text xml:space="preserve" font-family="HelveticaNeue-Light,Helvetica Neue" font-size="36.0" fill="#144005" transform="matrix(1.00, 0.00, -0.00, -1.00, 515.8, 325.7)"> </text><text xml:space="preserve" font-family="HelveticaNeue-Light,Helvetica Neue" font-size="36.0" fill="#144005" transform="matrix(1.00, 0.00, -0.00, -1.00, 525.8, 325.7)">m</text><text xml:space="preserve" font-family="HelveticaNeue-Light,Helvetica Neue" font-size="36.0" fill="#144005" transform="matrix(1.00, 0.00, -0.00, -1.00, 555.8, 325.7)">a</text><text xml:space="preserve" font-family="HelveticaNeue-Light,Helvetica Neue" font-size="36.0" fill="#144005" transform="matrix(1.00, 0.00, -0.00, -1.00, 574.5, 325.7)">c</text><text xml:space="preserve" font-family="HelveticaNeue-Light,Helvetica Neue" font-size="36.0" fill="#144005" transform="matrix(1.00, 0.00, -0.00, -1.00, 593.2, 325.7)">h</text><text xml:space="preserve" font-family="HelveticaNeue-Light,Helvetica Neue" font-size="36.0" fill="#144005" transform="matrix(1.00, 0.00, -0.00, -1.00, 612.5, 325.7)">i</text><text xml:space="preserve" font-family="HelveticaNeue-Light,Helvetica Neue" font-size="36.0" fill="#144005" transform="matrix(1.00, 0.00, -0.00, -1.00, 619.1, 325.7)">n</text><text xml:space="preserve" font-family="HelveticaNeue-Light,Helvetica Neue" font-size="36.0" fill="#144005" transform="matrix(1.00, 0.00, -0.00, -1.00, 638.5, 325.7)">e</text><text xml:space="preserve" font-family="HelveticaNeue-Light,Helvetica Neue" font-size="36.0" fill="#144005" transform="matrix(1.00, 0.00, -0.00, -1.00, 657.2, 325.7)">s</text><text xml:space="preserve" font-family="HelveticaNeue-Light,Helvetica Neue" font-size="36.0" fill="#144005" transform="matrix(1.00, 0.00, -0.00, -1.00, 674.5, 325.7)"> </text><image xlink:href="../../8532EDA3-03AF-4F95-ADCC-1003E38AE155/assets/A87AE7982BF1DF835B0DCB214B9B5391.png" width="19.00" height="19.00" transform="matrix(1.00, 0.00, -0.00, -1.00, 63.0, 265.0)"></image><text xml:space="preserve" font-family="HelveticaNeue-Light,Helvetica Neue" font-size="27.0" fill="#144005" transform="matrix(1.00, 0.00, -0.00, -1.00, 66.0, 249.2)">•</text><image xlink:href="../../08CB1A3D-660B-46BD-B846-C681FFACE412/assets/8623FDB56D7C82FFA66CF06F7F9DECE6.png" width="714.00" height="42.00" transform="matrix(1.00, 0.00, -0.00, -1.00, 99.0, 273.0)"></image><text xml:space="preserve" font-family="HelveticaNeue-Light,Helvetica Neue" font-size="36.0" fill="#144005" transform="matrix(1.00, 0.00, -0.00, -1.00, 101.0, 245.7)">M</text><text xml:space="preserve" font-family="HelveticaNeue-Light,Helvetica Neue" font-size="36.0" fill="#144005" transform="matrix(1.00, 0.00, -0.00, -1.00, 130.6, 245.7)">a</text><text xml:space="preserve" font-family="HelveticaNeue-Light,Helvetica Neue" font-size="36.0" fill="#144005" transform="matrix(1.00, 0.00, -0.00, -1.00, 149.2, 245.7)">c</text><text xml:space="preserve" font-family="HelveticaNeue-Light,Helvetica Neue" font-size="36.0" fill="#144005" transform="matrix(1.00, 0.00, -0.00, -1.00, 167.9, 245.7)">h</text><text xml:space="preserve" font-family="HelveticaNeue-Light,Helvetica Neue" font-size="36.0" fill="#144005" transform="matrix(1.00, 0.00, -0.00, -1.00, 187.3, 245.7)">i</text><text xml:space="preserve" font-family="HelveticaNeue-Light,Helvetica Neue" font-size="36.0" fill="#144005" transform="matrix(1.00, 0.00, -0.00, -1.00, 193.9, 245.7)">n</text><text xml:space="preserve" font-family="HelveticaNeue-Light,Helvetica Neue" font-size="36.0" fill="#144005" transform="matrix(1.00, 0.00, -0.00, -1.00, 213.2, 245.7)">e</text><text xml:space="preserve" font-family="HelveticaNeue-Light,Helvetica Neue" font-size="36.0" fill="#144005" transform="matrix(1.00, 0.00, -0.00, -1.00, 231.9, 245.7)">s</text><text xml:space="preserve" font-family="HelveticaNeue-Light,Helvetica Neue" font-size="36.0" fill="#144005" transform="matrix(1.00, 0.00, -0.00, -1.00, 249.2, 245.7)"> </text><text xml:space="preserve" font-family="HelveticaNeue-Light,Helvetica Neue" font-size="36.0" fill="#144005" transform="matrix(1.00, 0.00, -0.00, -1.00, 259.3, 245.7)">r</text><text xml:space="preserve" font-family="HelveticaNeue-Light,Helvetica Neue" font-size="36.0" fill="#144005" transform="matrix(1.00, 0.00, -0.00, -1.00, 270.6, 245.7)">u</text><text xml:space="preserve" font-family="HelveticaNeue-Light,Helvetica Neue" font-size="36.0" fill="#144005" transform="matrix(1.00, 0.00, -0.00, -1.00, 289.9, 245.7)">n</text><text xml:space="preserve" font-family="HelveticaNeue-Light,Helvetica Neue" font-size="36.0" fill="#144005" transform="matrix(1.00, 0.00, -0.00, -1.00, 309.3, 245.7)"> </text><text xml:space="preserve" font-family="HelveticaNeue-Light,Helvetica Neue" font-size="36.0" fill="#144005" transform="matrix(1.00, 0.00, -0.00, -1.00, 319.3, 245.7)">f</text><text xml:space="preserve" font-family="HelveticaNeue-Light,Helvetica Neue" font-size="36.0" fill="#144005" transform="matrix(1.00, 0.00, -0.00, -1.00, 328.6, 245.7)">o</text><text xml:space="preserve" font-family="HelveticaNeue-Light,Helvetica Neue" font-size="36.0" fill="#144005" transform="matrix(1.00, 0.00, -0.00, -1.00, 348.6, 245.7)">r</text><text xml:space="preserve" font-family="HelveticaNeue-Light,Helvetica Neue" font-size="36.0" fill="#144005" transform="matrix(1.00, 0.00, -0.00, -1.00, 359.9, 245.7)"> </text><text xml:space="preserve" font-family="HelveticaNeue-Light,Helvetica Neue" font-size="36.0" fill="#144005" transform="matrix(1.00, 0.00, -0.00, -1.00, 370.0, 245.7)">8</text><text xml:space="preserve" font-family="HelveticaNeue-Light,Helvetica Neue" font-size="36.0" fill="#144005" transform="matrix(1.00, 0.00, -0.00, -1.00, 390.0, 245.7)">h</text><text xml:space="preserve" font-family="HelveticaNeue-Light,Helvetica Neue" font-size="36.0" fill="#144005" transform="matrix(1.00, 0.00, -0.00, -1.00, 409.3, 245.7)">,</text><text xml:space="preserve" font-family="HelveticaNeue-Light,Helvetica Neue" font-size="36.0" fill="#144005" transform="matrix(1.00, 0.00, -0.00, -1.00, 419.3, 245.7)"> </text><text xml:space="preserve" font-family="HelveticaNeue-Light,Helvetica Neue" font-size="36.0" fill="#144005" transform="matrix(1.00, 0.00, -0.00, -1.00, 429.3, 245.7)">a</text><text xml:space="preserve" font-family="HelveticaNeue-Light,Helvetica Neue" font-size="36.0" fill="#144005" transform="matrix(1.00, 0.00, -0.00, -1.00, 448.0, 245.7)">n</text><text xml:space="preserve" font-family="HelveticaNeue-Light,Helvetica Neue" font-size="36.0" fill="#144005" transform="matrix(1.00, 0.00, -0.00, -1.00, 467.3, 245.7)">d</text><text xml:space="preserve" font-family="HelveticaNeue-Light,Helvetica Neue" font-size="36.0" fill="#144005" transform="matrix(1.00, 0.00, -0.00, -1.00, 488.0, 245.7)"> </text><text xml:space="preserve" font-family="HelveticaNeue-Light,Helvetica Neue" font-size="36.0" fill="#144005" transform="matrix(1.00, 0.00, -0.00, -1.00, 498.0, 245.7)">9</text><text xml:space="preserve" font-family="HelveticaNeue-Light,Helvetica Neue" font-size="36.0" fill="#144005" transform="matrix(1.00, 0.00, -0.00, -1.00, 518.0, 245.7)">h</text><text xml:space="preserve" font-family="HelveticaNeue-Light,Helvetica Neue" font-size="36.0" fill="#144005" transform="matrix(1.00, 0.00, -0.00, -1.00, 537.4, 245.7)">,</text><text xml:space="preserve" font-family="HelveticaNeue-Light,Helvetica Neue" font-size="36.0" fill="#144005" transform="matrix(1.00, 0.00, -0.00, -1.00, 547.4, 245.7)"> </text><text xml:space="preserve" font-family="HelveticaNeue-Light,Helvetica Neue" font-size="36.0" fill="#144005" transform="matrix(1.00, 0.00, -0.00, -1.00, 557.4, 245.7)">a</text><text xml:space="preserve" font-family="HelveticaNeue-Light,Helvetica Neue" font-size="36.0" fill="#144005" transform="matrix(1.00, 0.00, -0.00, -1.00, 576.1, 245.7)">n</text><text xml:space="preserve" font-family="HelveticaNeue-Light,Helvetica Neue" font-size="36.0" fill="#144005" transform="matrix(1.00, 0.00, -0.00, -1.00, 595.4, 245.7)">d</text><text xml:space="preserve" font-family="HelveticaNeue-Light,Helvetica Neue" font-size="36.0" fill="#144005" transform="matrix(1.00, 0.00, -0.00, -1.00, 616.1, 245.7)"> </text><text xml:space="preserve" font-family="HelveticaNeue-Light,Helvetica Neue" font-size="36.0" fill="#144005" transform="matrix(1.00, 0.00, -0.00, -1.00, 626.1, 245.7)">t</text><text xml:space="preserve" font-family="HelveticaNeue-Light,Helvetica Neue" font-size="36.0" fill="#144005" transform="matrix(1.00, 0.00, -0.00, -1.00, 636.7, 245.7)">h</text><text xml:space="preserve" font-family="HelveticaNeue-Light,Helvetica Neue" font-size="36.0" fill="#144005" transform="matrix(1.00, 0.00, -0.00, -1.00, 656.0, 245.7)">e</text><text xml:space="preserve" font-family="HelveticaNeue-Light,Helvetica Neue" font-size="36.0" fill="#144005" transform="matrix(1.00, 0.00, -0.00, -1.00, 674.7, 245.7)">n</text><text xml:space="preserve" font-family="HelveticaNeue-Light,Helvetica Neue" font-size="36.0" fill="#144005" transform="matrix(1.00, 0.00, -0.00, -1.00, 694.1, 245.7)"> </text><text xml:space="preserve" font-family="HelveticaNeue-Light,Helvetica Neue" font-size="36.0" fill="#144005" transform="matrix(1.00, 0.00, -0.00, -1.00, 704.1, 245.7)">r</text><text xml:space="preserve" font-family="HelveticaNeue-Light,Helvetica Neue" font-size="36.0" fill="#144005" transform="matrix(1.00, 0.00, -0.00, -1.00, 714.8, 245.7)">e</text><text xml:space="preserve" font-family="HelveticaNeue-Light,Helvetica Neue" font-size="36.0" fill="#144005" transform="matrix(1.00, 0.00, -0.00, -1.00, 733.4, 245.7)">q</text><text xml:space="preserve" font-family="HelveticaNeue-Light,Helvetica Neue" font-size="36.0" fill="#144005" transform="matrix(1.00, 0.00, -0.00, -1.00, 754.1, 245.7)">u</text><text xml:space="preserve" font-family="HelveticaNeue-Light,Helvetica Neue" font-size="36.0" fill="#144005" transform="matrix(1.00, 0.00, -0.00, -1.00, 773.4, 245.7)">i</text><text xml:space="preserve" font-family="HelveticaNeue-Light,Helvetica Neue" font-size="36.0" fill="#144005" transform="matrix(1.00, 0.00, -0.00, -1.00, 780.1, 245.7)">r</text><text xml:space="preserve" font-family="HelveticaNeue-Light,Helvetica Neue" font-size="36.0" fill="#144005" transform="matrix(1.00, 0.00, -0.00, -1.00, 790.8, 245.7)">e</text><text xml:space="preserve" font-family="HelveticaNeue-Light,Helvetica Neue" font-size="36.0" fill="#144005" transform="matrix(1.00, 0.00, -0.00, -1.00, 809.5, 245.7)"> </text><image xlink:href="../../08CB1A3D-660B-46BD-B846-C681FFACE412/assets/ACD4754EC9B7E730B11623E0A8B77613.png" width="212.00" height="35.00" transform="matrix(1.00, 0.00, -0.00, -1.00, 99.0, 229.0)"></image><text xml:space="preserve" font-family="HelveticaNeue-Light,Helvetica Neue" font-size="36.0" fill="#144005" transform="matrix(1.00, 0.00, -0.00, -1.00, 101.0, 201.7)">m</text><text xml:space="preserve" font-family="HelveticaNeue-Light,Helvetica Neue" font-size="36.0" fill="#144005" transform="matrix(1.00, 0.00, -0.00, -1.00, 131.0, 201.7)">a</text><text xml:space="preserve" font-family="HelveticaNeue-Light,Helvetica Neue" font-size="36.0" fill="#144005" transform="matrix(1.00, 0.00, -0.00, -1.00, 149.7, 201.7)">i</text><text xml:space="preserve" font-family="HelveticaNeue-Light,Helvetica Neue" font-size="36.0" fill="#144005" transform="matrix(1.00, 0.00, -0.00, -1.00, 156.3, 201.7)">n</text><text xml:space="preserve" font-family="HelveticaNeue-Light,Helvetica Neue" font-size="36.0" fill="#144005" transform="matrix(1.00, 0.00, -0.00, -1.00, 175.7, 201.7)">t</text><text xml:space="preserve" font-family="HelveticaNeue-Light,Helvetica Neue" font-size="36.0" fill="#144005" transform="matrix(1.00, 0.00, -0.00, -1.00, 186.3, 201.7)">e</text><text xml:space="preserve" font-family="HelveticaNeue-Light,Helvetica Neue" font-size="36.0" fill="#144005" transform="matrix(1.00, 0.00, -0.00, -1.00, 205.0, 201.7)">n</text><text xml:space="preserve" font-family="HelveticaNeue-Light,Helvetica Neue" font-size="36.0" fill="#144005" transform="matrix(1.00, 0.00, -0.00, -1.00, 224.3, 201.7)">a</text><text xml:space="preserve" font-family="HelveticaNeue-Light,Helvetica Neue" font-size="36.0" fill="#144005" transform="matrix(1.00, 0.00, -0.00, -1.00, 243.0, 201.7)">n</text><text xml:space="preserve" font-family="HelveticaNeue-Light,Helvetica Neue" font-size="36.0" fill="#144005" transform="matrix(1.00, 0.00, -0.00, -1.00, 262.4, 201.7)">c</text><text xml:space="preserve" font-family="HelveticaNeue-Light,Helvetica Neue" font-size="36.0" fill="#144005" transform="matrix(1.00, 0.00, -0.00, -1.00, 281.0, 201.7)">e</text><text xml:space="preserve" font-family="HelveticaNeue-Light,Helvetica Neue" font-size="36.0" fill="#144005" transform="matrix(1.00, 0.00, -0.00, -1.00, 299.7, 201.7)">.</text></g></svg>