<?xml version="1.0" encoding="UTF-8" standalone="no"?><svg xmlns="http://www.w3.org/2000/svg" xmlns:xlink="http://www.w3.org/1999/xlink" clip-rule="evenodd" stroke-miterlimit="10" viewBox="0 0 1024 768"><desc>SVG generated by Keynote</desc><defs></defs><g transform="matrix(1.00, 0.00, -0.00, -1.00, 0.0, 768.0)"><path d="M 0.0 768.0 L 1024.0 768.0 L 1024.0 0.0 L 0.0 0.0 Z M 0.0 768.0 " fill="#DCDDE0"></path><image xlink:href="221220B41AF911472EDCD4F2C9ABC68E.png" width="789.00" height="74.00" transform="matrix(1.00, 0.00, -0.00, -1.00, 67.0, 677.0)"></image><text xml:space="preserve" font-family="HelveticaNeue-Light,Helvetica Neue" font-size="72.0" fill="#002451" transform="matrix(1.00, 0.00, -0.00, -1.00, 66.0, 624.4)">E</text><text xml:space="preserve" font-family="HelveticaNeue-Light,Helvetica Neue" font-size="72.0" fill="#002451" transform="matrix(1.00, 0.00, -0.00, -1.00, 108.7, 624.4)">x</text><text xml:space="preserve" font-family="HelveticaNeue-Light,Helvetica Neue" font-size="72.0" fill="#002451" transform="matrix(1.00, 0.00, -0.00, -1.00, 143.3, 624.4)">a</text><text xml:space="preserve" font-family="HelveticaNeue-Light,Helvetica Neue" font-size="72.0" fill="#002451" transform="matrix(1.00, 0.00, -0.00, -1.00, 180.7, 624.4)">m</text><text xml:space="preserve" font-family="HelveticaNeue-Light,Helvetica Neue" font-size="72.0" fill="#002451" transform="matrix(1.00, 0.00, -0.00, -1.00, 240.7, 624.4)">p</text><text xml:space="preserve" font-family="HelveticaNeue-Light,Helvetica Neue" font-size="72.0" fill="#002451" transform="matrix(1.00, 0.00, -0.00, -1.00, 282.0, 624.4)">l</text><text xml:space="preserve" font-family="HelveticaNeue-Light,Helvetica Neue" font-size="72.0" fill="#002451" transform="matrix(1.00, 0.00, -0.00, -1.00, 295.3, 624.4)">e</text><text xml:space="preserve" font-family="HelveticaNeue-Light,Helvetica Neue" font-size="72.0" fill="#002451" transform="matrix(1.00, 0.00, -0.00, -1.00, 332.7, 624.4)"> </text><text xml:space="preserve" font-family="HelveticaNeue-Light,Helvetica Neue" font-size="72.0" fill="#002451" transform="matrix(1.00, 0.00, -0.00, -1.00, 352.7, 624.4)">2</text><text xml:space="preserve" font-family="HelveticaNeue-Light,Helvetica Neue" font-size="72.0" fill="#002451" transform="matrix(1.00, 0.00, -0.00, -1.00, 392.7, 624.4)">:</text><text xml:space="preserve" font-family="HelveticaNeue-Light,Helvetica Neue" font-size="72.0" fill="#002451" transform="matrix(1.00, 0.00, -0.00, -1.00, 412.8, 624.4)"> </text><text xml:space="preserve" font-family="HelveticaNeue-Light,Helvetica Neue" font-size="72.0" fill="#002451" transform="matrix(1.00, 0.00, -0.00, -1.00, 432.8, 624.4)">T</text><text xml:space="preserve" font-family="HelveticaNeue-Light,Helvetica Neue" font-size="72.0" fill="#002451" transform="matrix(1.00, 0.00, -0.00, -1.00, 464.8, 624.4)">e</text><text xml:space="preserve" font-family="HelveticaNeue-Light,Helvetica Neue" font-size="72.0" fill="#002451" transform="matrix(1.00, 0.00, -0.00, -1.00, 502.2, 624.4)">n</text><text xml:space="preserve" font-family="HelveticaNeue-Light,Helvetica Neue" font-size="72.0" fill="#002451" transform="matrix(1.00, 0.00, -0.00, -1.00, 540.8, 624.4)">n</text><text xml:space="preserve" font-family="HelveticaNeue-Light,Helvetica Neue" font-size="72.0" fill="#002451" transform="matrix(1.00, 0.00, -0.00, -1.00, 579.5, 624.4)">i</text><text xml:space="preserve" font-family="HelveticaNeue-Light,Helvetica Neue" font-size="72.0" fill="#002451" transform="matrix(1.00, 0.00, -0.00, -1.00, 592.8, 624.4)">s</text><text xml:space="preserve" font-family="HelveticaNeue-Light,Helvetica Neue" font-size="72.0" fill="#002451" transform="matrix(1.00, 0.00, -0.00, -1.00, 627.5, 624.4)"> </text><text xml:space="preserve" font-family="HelveticaNeue-Light,Helvetica Neue" font-size="72.0" fill="#002451" transform="matrix(1.00, 0.00, -0.00, -1.00, 647.5, 624.4)">R</text><text xml:space="preserve" font-family="HelveticaNeue-Light,Helvetica Neue" font-size="72.0" fill="#002451" transform="matrix(1.00, 0.00, -0.00, -1.00, 695.5, 624.4)">o</text><text xml:space="preserve" font-family="HelveticaNeue-Light,Helvetica Neue" font-size="72.0" fill="#002451" transform="matrix(1.00, 0.00, -0.00, -1.00, 735.5, 624.4)">s</text><text xml:space="preserve" font-family="HelveticaNeue-Light,Helvetica Neue" font-size="72.0" fill="#002451" transform="matrix(1.00, 0.00, -0.00, -1.00, 770.2, 624.4)">t</text><text xml:space="preserve" font-family="HelveticaNeue-Light,Helvetica Neue" font-size="72.0" fill="#002451" transform="matrix(1.00, 0.00, -0.00, -1.00, 791.5, 624.4)">e</text><text xml:space="preserve" font-family="HelveticaNeue-Light,Helvetica Neue" font-size="72.0" fill="#002451" transform="matrix(1.00, 0.00, -0.00, -1.00, 828.8, 624.4)">r</text><image xlink:href="2A8B406EF79FD5624412A42FF36FCB35.png" width="19.00" height="18.00" transform="matrix(1.00, 0.00, -0.00, -1.00, 63.0, 527.0)"></image><text xml:space="preserve" font-family="HelveticaNeue-Light,Helvetica Neue" font-size="26.7" fill="#144005" transform="matrix(1.00, 0.00, -0.00, -1.00, 66.0, 511.6)">•</text><image xlink:href="090C71879018A1A1FE7F802EEAA3E61F.png" width="441.00" height="42.00" transform="matrix(1.00, 0.00, -0.00, -1.00, 100.0, 536.0)"></image><text xml:space="preserve" font-family="HelveticaNeue-Light,Helvetica Neue" font-size="35.6" fill="#144005" transform="matrix(1.00, 0.00, -0.00, -1.00, 100.7, 508.6)">1</text><text xml:space="preserve" font-family="HelveticaNeue-Light,Helvetica Neue" font-size="35.6" fill="#144005" transform="matrix(1.00, 0.00, -0.00, -1.00, 120.5, 508.6)">6</text><text xml:space="preserve" font-family="HelveticaNeue-Light,Helvetica Neue" font-size="35.6" fill="#144005" transform="matrix(1.00, 0.00, -0.00, -1.00, 140.3, 508.6)"> </text><text xml:space="preserve" font-family="HelveticaNeue-Light,Helvetica Neue" font-size="35.6" fill="#144005" transform="matrix(1.00, 0.00, -0.00, -1.00, 150.2, 508.6)">p</text><text xml:space="preserve" font-family="HelveticaNeue-Light,Helvetica Neue" font-size="35.6" fill="#144005" transform="matrix(1.00, 0.00, -0.00, -1.00, 170.6, 508.6)">l</text><text xml:space="preserve" font-family="HelveticaNeue-Light,Helvetica Neue" font-size="35.6" fill="#144005" transform="matrix(1.00, 0.00, -0.00, -1.00, 177.2, 508.6)">a</text><text xml:space="preserve" font-family="HelveticaNeue-Light,Helvetica Neue" font-size="35.6" fill="#144005" transform="matrix(1.00, 0.00, -0.00, -1.00, 195.7, 508.6)">y</text><text xml:space="preserve" font-family="HelveticaNeue-Light,Helvetica Neue" font-size="35.6" fill="#144005" transform="matrix(1.00, 0.00, -0.00, -1.00, 212.2, 508.6)">e</text><text xml:space="preserve" font-family="HelveticaNeue-Light,Helvetica Neue" font-size="35.6" fill="#144005" transform="matrix(1.00, 0.00, -0.00, -1.00, 230.7, 508.6)">r</text><text xml:space="preserve" font-family="HelveticaNeue-Light,Helvetica Neue" font-size="35.6" fill="#144005" transform="matrix(1.00, 0.00, -0.00, -1.00, 242.0, 508.6)">s</text><text xml:space="preserve" font-family="HelveticaNeue-Light,Helvetica Neue" font-size="35.6" fill="#144005" transform="matrix(1.00, 0.00, -0.00, -1.00, 259.1, 508.6)">,</text><text xml:space="preserve" font-family="HelveticaNeue-Light,Helvetica Neue" font-size="35.6" fill="#144005" transform="matrix(1.00, 0.00, -0.00, -1.00, 269.0, 508.6)"> </text><text xml:space="preserve" font-family="HelveticaNeue-Light,Helvetica Neue" font-size="35.6" fill="#144005" transform="matrix(1.00, 0.00, -0.00, -1.00, 278.9, 508.6)">8</text><text xml:space="preserve" font-family="HelveticaNeue-Light,Helvetica Neue" font-size="35.6" fill="#144005" transform="matrix(1.00, 0.00, -0.00, -1.00, 298.7, 508.6)"> </text><text xml:space="preserve" font-family="HelveticaNeue-Light,Helvetica Neue" font-size="35.6" fill="#144005" transform="matrix(1.00, 0.00, -0.00, -1.00, 308.6, 508.6)">m</text><text xml:space="preserve" font-family="HelveticaNeue-Light,Helvetica Neue" font-size="35.6" fill="#144005" transform="matrix(1.00, 0.00, -0.00, -1.00, 338.3, 508.6)">e</text><text xml:space="preserve" font-family="HelveticaNeue-Light,Helvetica Neue" font-size="35.6" fill="#144005" transform="matrix(1.00, 0.00, -0.00, -1.00, 356.8, 508.6)">n</text><text xml:space="preserve" font-family="HelveticaNeue-Light,Helvetica Neue" font-size="35.6" fill="#144005" transform="matrix(1.00, 0.00, -0.00, -1.00, 376.0, 508.6)">,</text><text xml:space="preserve" font-family="HelveticaNeue-Light,Helvetica Neue" font-size="35.6" fill="#144005" transform="matrix(1.00, 0.00, -0.00, -1.00, 385.9, 508.6)"> </text><text xml:space="preserve" font-family="HelveticaNeue-Light,Helvetica Neue" font-size="35.6" fill="#144005" transform="matrix(1.00, 0.00, -0.00, -1.00, 395.8, 508.6)">8</text><text xml:space="preserve" font-family="HelveticaNeue-Light,Helvetica Neue" font-size="35.6" fill="#144005" transform="matrix(1.00, 0.00, -0.00, -1.00, 415.6, 508.6)"> </text><text xml:space="preserve" font-family="HelveticaNeue-Light,Helvetica Neue" font-size="35.6" fill="#144005" transform="matrix(1.00, 0.00, -0.00, -1.00, 425.5, 508.6)">w</text><text xml:space="preserve" font-family="HelveticaNeue-Light,Helvetica Neue" font-size="35.6" fill="#144005" transform="matrix(1.00, 0.00, -0.00, -1.00, 451.9, 508.6)">o</text><text xml:space="preserve" font-family="HelveticaNeue-Light,Helvetica Neue" font-size="35.6" fill="#144005" transform="matrix(1.00, 0.00, -0.00, -1.00, 471.7, 508.6)">m</text><text xml:space="preserve" font-family="HelveticaNeue-Light,Helvetica Neue" font-size="35.6" fill="#144005" transform="matrix(1.00, 0.00, -0.00, -1.00, 501.4, 508.6)">e</text><text xml:space="preserve" font-family="HelveticaNeue-Light,Helvetica Neue" font-size="35.6" fill="#144005" transform="matrix(1.00, 0.00, -0.00, -1.00, 519.9, 508.6)">n</text><text xml:space="preserve" font-family="HelveticaNeue-Light,Helvetica Neue" font-size="35.6" fill="#144005" transform="matrix(1.00, 0.00, -0.00, -1.00, 539.1, 508.6)"> </text><image xlink:href="0B803F055F5ACA44B0EB6B0922D0352F.png" width="19.00" height="19.00" transform="matrix(1.00, 0.00, -0.00, -1.00, 63.0, 449.0)"></image><text xml:space="preserve" font-family="HelveticaNeue-Light,Helvetica Neue" font-size="26.7" fill="#144005" transform="matrix(1.00, 0.00, -0.00, -1.00, 66.0, 433.0)">•</text><image xlink:href="E5C0DA2A7381CB529C94560F28286304.png" width="337.00" height="39.00" transform="matrix(1.00, 0.00, -0.00, -1.00, 97.0, 457.0)"></image><text xml:space="preserve" font-family="HelveticaNeue-Light,Helvetica Neue" font-size="35.6" fill="#144005" transform="matrix(1.00, 0.00, -0.00, -1.00, 100.7, 430.0)">4</text><text xml:space="preserve" font-family="HelveticaNeue-Light,Helvetica Neue" font-size="35.6" fill="#144005" transform="matrix(1.00, 0.00, -0.00, -1.00, 120.5, 430.0)"> </text><text xml:space="preserve" font-family="HelveticaNeue-Light,Helvetica Neue" font-size="35.6" fill="#144005" transform="matrix(1.00, 0.00, -0.00, -1.00, 130.4, 430.0)">c</text><text xml:space="preserve" font-family="HelveticaNeue-Light,Helvetica Neue" font-size="35.6" fill="#144005" transform="matrix(1.00, 0.00, -0.00, -1.00, 148.9, 430.0)">o</text><text xml:space="preserve" font-family="HelveticaNeue-Light,Helvetica Neue" font-size="35.6" fill="#144005" transform="matrix(1.00, 0.00, -0.00, -1.00, 168.7, 430.0)">u</text><text xml:space="preserve" font-family="HelveticaNeue-Light,Helvetica Neue" font-size="35.6" fill="#144005" transform="matrix(1.00, 0.00, -0.00, -1.00, 187.8, 430.0)">r</text><text xml:space="preserve" font-family="HelveticaNeue-Light,Helvetica Neue" font-size="35.6" fill="#144005" transform="matrix(1.00, 0.00, -0.00, -1.00, 199.1, 430.0)">t</text><text xml:space="preserve" font-family="HelveticaNeue-Light,Helvetica Neue" font-size="35.6" fill="#144005" transform="matrix(1.00, 0.00, -0.00, -1.00, 209.6, 430.0)">s</text><text xml:space="preserve" font-family="HelveticaNeue-Light,Helvetica Neue" font-size="35.6" fill="#144005" transform="matrix(1.00, 0.00, -0.00, -1.00, 226.7, 430.0)">,</text><text xml:space="preserve" font-family="HelveticaNeue-Light,Helvetica Neue" font-size="35.6" fill="#144005" transform="matrix(1.00, 0.00, -0.00, -1.00, 236.7, 430.0)"> </text><text xml:space="preserve" font-family="HelveticaNeue-Light,Helvetica Neue" font-size="35.6" fill="#144005" transform="matrix(1.00, 0.00, -0.00, -1.00, 246.6, 430.0)">3</text><text xml:space="preserve" font-family="HelveticaNeue-Light,Helvetica Neue" font-size="35.6" fill="#144005" transform="matrix(1.00, 0.00, -0.00, -1.00, 266.4, 430.0)"> </text><text xml:space="preserve" font-family="HelveticaNeue-Light,Helvetica Neue" font-size="35.6" fill="#144005" transform="matrix(1.00, 0.00, -0.00, -1.00, 276.3, 430.0)">t</text><text xml:space="preserve" font-family="HelveticaNeue-Light,Helvetica Neue" font-size="35.6" fill="#144005" transform="matrix(1.00, 0.00, -0.00, -1.00, 286.8, 430.0)">i</text><text xml:space="preserve" font-family="HelveticaNeue-Light,Helvetica Neue" font-size="35.6" fill="#144005" transform="matrix(1.00, 0.00, -0.00, -1.00, 293.4, 430.0)">m</text><text xml:space="preserve" font-family="HelveticaNeue-Light,Helvetica Neue" font-size="35.6" fill="#144005" transform="matrix(1.00, 0.00, -0.00, -1.00, 323.1, 430.0)">e</text><text xml:space="preserve" font-family="HelveticaNeue-Light,Helvetica Neue" font-size="35.6" fill="#144005" transform="matrix(1.00, 0.00, -0.00, -1.00, 341.6, 430.0)"> </text><text xml:space="preserve" font-family="HelveticaNeue-Light,Helvetica Neue" font-size="35.6" fill="#144005" transform="matrix(1.00, 0.00, -0.00, -1.00, 351.5, 430.0)">s</text><text xml:space="preserve" font-family="HelveticaNeue-Light,Helvetica Neue" font-size="35.6" fill="#144005" transform="matrix(1.00, 0.00, -0.00, -1.00, 368.7, 430.0)">l</text><text xml:space="preserve" font-family="HelveticaNeue-Light,Helvetica Neue" font-size="35.6" fill="#144005" transform="matrix(1.00, 0.00, -0.00, -1.00, 375.3, 430.0)">o</text><text xml:space="preserve" font-family="HelveticaNeue-Light,Helvetica Neue" font-size="35.6" fill="#144005" transform="matrix(1.00, 0.00, -0.00, -1.00, 395.1, 430.0)">t</text><text xml:space="preserve" font-family="HelveticaNeue-Light,Helvetica Neue" font-size="35.6" fill="#144005" transform="matrix(1.00, 0.00, -0.00, -1.00, 405.6, 430.0)">s</text><text xml:space="preserve" font-family="HelveticaNeue-Light,Helvetica Neue" font-size="35.6" fill="#144005" transform="matrix(1.00, 0.00, -0.00, -1.00, 422.8, 430.0)">.</text><text xml:space="preserve" font-family="HelveticaNeue-Light,Helvetica Neue" font-size="35.6" fill="#144005" transform="matrix(1.00, 0.00, -0.00, -1.00, 432.7, 430.0)"> </text><image xlink:href="548A403B0A58142DBFC0A2B8A7EDBE6A.png" width="19.00" height="18.00" transform="matrix(1.00, 0.00, -0.00, -1.00, 63.0, 370.0)"></image><text xml:space="preserve" font-family="HelveticaNeue-Light,Helvetica Neue" font-size="26.7" fill="#144005" transform="matrix(1.00, 0.00, -0.00, -1.00, 66.0, 354.3)">•</text><image xlink:href="946D4966D0B797D67BF5285ECED9498D.png" width="814.00" height="42.00" transform="matrix(1.00, 0.00, -0.00, -1.00, 97.0, 379.0)"></image><text xml:space="preserve" font-family="HelveticaNeue-Light,Helvetica Neue" font-size="35.6" fill="#144005" transform="matrix(1.00, 0.00, -0.00, -1.00, 100.7, 351.3)">S</text><text xml:space="preserve" font-family="HelveticaNeue-Light,Helvetica Neue" font-size="35.6" fill="#144005" transform="matrix(1.00, 0.00, -0.00, -1.00, 123.1, 351.3)">c</text><text xml:space="preserve" font-family="HelveticaNeue-Light,Helvetica Neue" font-size="35.6" fill="#144005" transform="matrix(1.00, 0.00, -0.00, -1.00, 141.6, 351.3)">h</text><text xml:space="preserve" font-family="HelveticaNeue-Light,Helvetica Neue" font-size="35.6" fill="#144005" transform="matrix(1.00, 0.00, -0.00, -1.00, 160.7, 351.3)">e</text><text xml:space="preserve" font-family="HelveticaNeue-Light,Helvetica Neue" font-size="35.6" fill="#144005" transform="matrix(1.00, 0.00, -0.00, -1.00, 179.2, 351.3)">d</text><text xml:space="preserve" font-family="HelveticaNeue-Light,Helvetica Neue" font-size="35.6" fill="#144005" transform="matrix(1.00, 0.00, -0.00, -1.00, 199.7, 351.3)">u</text><text xml:space="preserve" font-family="HelveticaNeue-Light,Helvetica Neue" font-size="35.6" fill="#144005" transform="matrix(1.00, 0.00, -0.00, -1.00, 218.8, 351.3)">l</text><text xml:space="preserve" font-family="HelveticaNeue-Light,Helvetica Neue" font-size="35.6" fill="#144005" transform="matrix(1.00, 0.00, -0.00, -1.00, 225.4, 351.3)">e</text><text xml:space="preserve" font-family="HelveticaNeue-Light,Helvetica Neue" font-size="35.6" fill="#144005" transform="matrix(1.00, 0.00, -0.00, -1.00, 243.9, 351.3)"> </text><text xml:space="preserve" font-family="HelveticaNeue-Light,Helvetica Neue" font-size="35.6" fill="#144005" transform="matrix(1.00, 0.00, -0.00, -1.00, 253.8, 351.3)">s</text><text xml:space="preserve" font-family="HelveticaNeue-Light,Helvetica Neue" font-size="35.6" fill="#144005" transform="matrix(1.00, 0.00, -0.00, -1.00, 271.0, 351.3)">o</text><text xml:space="preserve" font-family="HelveticaNeue-Light,Helvetica Neue" font-size="35.6" fill="#144005" transform="matrix(1.00, 0.00, -0.00, -1.00, 290.8, 351.3)"> </text><text xml:space="preserve" font-family="HelveticaNeue-Light,Helvetica Neue" font-size="35.6" fill="#144005" transform="matrix(1.00, 0.00, -0.00, -1.00, 300.7, 351.3)">m</text><text xml:space="preserve" font-family="HelveticaNeue-Light,Helvetica Neue" font-size="35.6" fill="#144005" transform="matrix(1.00, 0.00, -0.00, -1.00, 330.4, 351.3)">e</text><text xml:space="preserve" font-family="HelveticaNeue-Light,Helvetica Neue" font-size="35.6" fill="#144005" transform="matrix(1.00, 0.00, -0.00, -1.00, 348.9, 351.3)">n</text><text xml:space="preserve" font-family="HelveticaNeue-Light,Helvetica Neue" font-size="35.6" fill="#144005" transform="matrix(1.00, 0.00, -0.00, -1.00, 368.0, 351.3)">/</text><text xml:space="preserve" font-family="HelveticaNeue-Light,Helvetica Neue" font-size="35.6" fill="#144005" transform="matrix(1.00, 0.00, -0.00, -1.00, 379.9, 351.3)">w</text><text xml:space="preserve" font-family="HelveticaNeue-Light,Helvetica Neue" font-size="35.6" fill="#144005" transform="matrix(1.00, 0.00, -0.00, -1.00, 406.3, 351.3)">o</text><text xml:space="preserve" font-family="HelveticaNeue-Light,Helvetica Neue" font-size="35.6" fill="#144005" transform="matrix(1.00, 0.00, -0.00, -1.00, 426.1, 351.3)">m</text><text xml:space="preserve" font-family="HelveticaNeue-Light,Helvetica Neue" font-size="35.6" fill="#144005" transform="matrix(1.00, 0.00, -0.00, -1.00, 455.8, 351.3)">e</text><text xml:space="preserve" font-family="HelveticaNeue-Light,Helvetica Neue" font-size="35.6" fill="#144005" transform="matrix(1.00, 0.00, -0.00, -1.00, 474.3, 351.3)">n</text><text xml:space="preserve" font-family="HelveticaNeue-Light,Helvetica Neue" font-size="35.6" fill="#144005" transform="matrix(1.00, 0.00, -0.00, -1.00, 493.4, 351.3)"> </text><text xml:space="preserve" font-family="HelveticaNeue-Light,Helvetica Neue" font-size="35.6" fill="#144005" transform="matrix(1.00, 0.00, -0.00, -1.00, 503.3, 351.3)">o</text><text xml:space="preserve" font-family="HelveticaNeue-Light,Helvetica Neue" font-size="35.6" fill="#144005" transform="matrix(1.00, 0.00, -0.00, -1.00, 523.2, 351.3)">n</text><text xml:space="preserve" font-family="HelveticaNeue-Light,Helvetica Neue" font-size="35.6" fill="#144005" transform="matrix(1.00, 0.00, -0.00, -1.00, 542.3, 351.3)">l</text><text xml:space="preserve" font-family="HelveticaNeue-Light,Helvetica Neue" font-size="35.6" fill="#144005" transform="matrix(1.00, 0.00, -0.00, -1.00, 548.9, 351.3)">y</text><text xml:space="preserve" font-family="HelveticaNeue-Light,Helvetica Neue" font-size="35.6" fill="#144005" transform="matrix(1.00, 0.00, -0.00, -1.00, 565.4, 351.3)"> </text><text xml:space="preserve" font-family="HelveticaNeue-Light,Helvetica Neue" font-size="35.6" fill="#144005" transform="matrix(1.00, 0.00, -0.00, -1.00, 575.3, 351.3)">f</text><text xml:space="preserve" font-family="HelveticaNeue-Light,Helvetica Neue" font-size="35.6" fill="#144005" transform="matrix(1.00, 0.00, -0.00, -1.00, 584.5, 351.3)">a</text><text xml:space="preserve" font-family="HelveticaNeue-Light,Helvetica Neue" font-size="35.6" fill="#144005" transform="matrix(1.00, 0.00, -0.00, -1.00, 603.0, 351.3)">c</text><text xml:space="preserve" font-family="HelveticaNeue-Light,Helvetica Neue" font-size="35.6" fill="#144005" transform="matrix(1.00, 0.00, -0.00, -1.00, 621.5, 351.3)">e</text><text xml:space="preserve" font-family="HelveticaNeue-Light,Helvetica Neue" font-size="35.6" fill="#144005" transform="matrix(1.00, 0.00, -0.00, -1.00, 640.0, 351.3)"> </text><text xml:space="preserve" font-family="HelveticaNeue-Light,Helvetica Neue" font-size="35.6" fill="#144005" transform="matrix(1.00, 0.00, -0.00, -1.00, 649.9, 351.3)">e</text><text xml:space="preserve" font-family="HelveticaNeue-Light,Helvetica Neue" font-size="35.6" fill="#144005" transform="matrix(1.00, 0.00, -0.00, -1.00, 668.4, 351.3)">a</text><text xml:space="preserve" font-family="HelveticaNeue-Light,Helvetica Neue" font-size="35.6" fill="#144005" transform="matrix(1.00, 0.00, -0.00, -1.00, 686.9, 351.3)">c</text><text xml:space="preserve" font-family="HelveticaNeue-Light,Helvetica Neue" font-size="35.6" fill="#144005" transform="matrix(1.00, 0.00, -0.00, -1.00, 705.4, 351.3)">h</text><text xml:space="preserve" font-family="HelveticaNeue-Light,Helvetica Neue" font-size="35.6" fill="#144005" transform="matrix(1.00, 0.00, -0.00, -1.00, 724.6, 351.3)"> </text><text xml:space="preserve" font-family="HelveticaNeue-Light,Helvetica Neue" font-size="35.6" fill="#144005" transform="matrix(1.00, 0.00, -0.00, -1.00, 734.5, 351.3)">o</text><text xml:space="preserve" font-family="HelveticaNeue-Light,Helvetica Neue" font-size="35.6" fill="#144005" transform="matrix(1.00, 0.00, -0.00, -1.00, 754.3, 351.3)">t</text><text xml:space="preserve" font-family="HelveticaNeue-Light,Helvetica Neue" font-size="35.6" fill="#144005" transform="matrix(1.00, 0.00, -0.00, -1.00, 764.8, 351.3)">h</text><text xml:space="preserve" font-family="HelveticaNeue-Light,Helvetica Neue" font-size="35.6" fill="#144005" transform="matrix(1.00, 0.00, -0.00, -1.00, 784.0, 351.3)">e</text><text xml:space="preserve" font-family="HelveticaNeue-Light,Helvetica Neue" font-size="35.6" fill="#144005" transform="matrix(1.00, 0.00, -0.00, -1.00, 802.5, 351.3)">r</text><text xml:space="preserve" font-family="HelveticaNeue-Light,Helvetica Neue" font-size="35.6" fill="#144005" transform="matrix(1.00, 0.00, -0.00, -1.00, 813.7, 351.3)"> </text><text xml:space="preserve" font-family="HelveticaNeue-Light,Helvetica Neue" font-size="35.6" fill="#144005" transform="matrix(1.00, 0.00, -0.00, -1.00, 823.6, 351.3)">o</text><text xml:space="preserve" font-family="HelveticaNeue-Light,Helvetica Neue" font-size="35.6" fill="#144005" transform="matrix(1.00, 0.00, -0.00, -1.00, 843.4, 351.3)">n</text><text xml:space="preserve" font-family="HelveticaNeue-Light,Helvetica Neue" font-size="35.6" fill="#144005" transform="matrix(1.00, 0.00, -0.00, -1.00, 862.6, 351.3)">c</text><text xml:space="preserve" font-family="HelveticaNeue-Light,Helvetica Neue" font-size="35.6" fill="#144005" transform="matrix(1.00, 0.00, -0.00, -1.00, 881.1, 351.3)">e</text><text xml:space="preserve" font-family="HelveticaNeue-Light,Helvetica Neue" font-size="35.6" fill="#144005" transform="matrix(1.00, 0.00, -0.00, -1.00, 899.6, 351.3)">.</text><text xml:space="preserve" font-family="HelveticaNeue-Light,Helvetica Neue" font-size="35.6" fill="#144005" transform="matrix(1.00, 0.00, -0.00, -1.00, 909.5, 351.3)"> </text><image xlink:href="5DD392647A4C44DDC5066C2A8979CC93.png" width="19.00" height="18.00" transform="matrix(1.00, 0.00, -0.00, -1.00, 63.0, 291.0)"></image><text xml:space="preserve" font-family="HelveticaNeue-Light,Helvetica Neue" font-size="26.7" fill="#144005" transform="matrix(1.00, 0.00, -0.00, -1.00, 66.0, 275.7)">•</text><image xlink:href="EED359791B2232259FC2D3CDF60A6DB2.png" width="593.00" height="42.00" transform="matrix(1.00, 0.00, -0.00, -1.00, 97.0, 300.0)"></image><text xml:space="preserve" font-family="HelveticaNeue-Light,Helvetica Neue" font-size="35.6" fill="#144005" transform="matrix(1.00, 0.00, -0.00, -1.00, 100.7, 272.7)">S</text><text xml:space="preserve" font-family="HelveticaNeue-Light,Helvetica Neue" font-size="35.6" fill="#144005" transform="matrix(1.00, 0.00, -0.00, -1.00, 123.1, 272.7)">c</text><text xml:space="preserve" font-family="HelveticaNeue-Light,Helvetica Neue" font-size="35.6" fill="#144005" transform="matrix(1.00, 0.00, -0.00, -1.00, 141.6, 272.7)">h</text><text xml:space="preserve" font-family="HelveticaNeue-Light,Helvetica Neue" font-size="35.6" fill="#144005" transform="matrix(1.00, 0.00, -0.00, -1.00, 160.7, 272.7)">e</text><text xml:space="preserve" font-family="HelveticaNeue-Light,Helvetica Neue" font-size="35.6" fill="#144005" transform="matrix(1.00, 0.00, -0.00, -1.00, 179.2, 272.7)">d</text><text xml:space="preserve" font-family="HelveticaNeue-Light,Helvetica Neue" font-size="35.6" fill="#144005" transform="matrix(1.00, 0.00, -0.00, -1.00, 199.7, 272.7)">u</text><text xml:space="preserve" font-family="HelveticaNeue-Light,Helvetica Neue" font-size="35.6" fill="#144005" transform="matrix(1.00, 0.00, -0.00, -1.00, 218.8, 272.7)">l</text><text xml:space="preserve" font-family="HelveticaNeue-Light,Helvetica Neue" font-size="35.6" fill="#144005" transform="matrix(1.00, 0.00, -0.00, -1.00, 225.4, 272.7)">e</text><text xml:space="preserve" font-family="HelveticaNeue-Light,Helvetica Neue" font-size="35.6" fill="#144005" transform="matrix(1.00, 0.00, -0.00, -1.00, 243.9, 272.7)"> </text><text xml:space="preserve" font-family="HelveticaNeue-Light,Helvetica Neue" font-size="35.6" fill="#144005" transform="matrix(1.00, 0.00, -0.00, -1.00, 253.8, 272.7)">t</text><text xml:space="preserve" font-family="HelveticaNeue-Light,Helvetica Neue" font-size="35.6" fill="#144005" transform="matrix(1.00, 0.00, -0.00, -1.00, 264.4, 272.7)">o</text><text xml:space="preserve" font-family="HelveticaNeue-Light,Helvetica Neue" font-size="35.6" fill="#144005" transform="matrix(1.00, 0.00, -0.00, -1.00, 284.2, 272.7)"> </text><text xml:space="preserve" font-family="HelveticaNeue-Light,Helvetica Neue" font-size="35.6" fill="#144005" transform="matrix(1.00, 0.00, -0.00, -1.00, 294.1, 272.7)">m</text><text xml:space="preserve" font-family="HelveticaNeue-Light,Helvetica Neue" font-size="35.6" fill="#144005" transform="matrix(1.00, 0.00, -0.00, -1.00, 323.8, 272.7)">i</text><text xml:space="preserve" font-family="HelveticaNeue-Light,Helvetica Neue" font-size="35.6" fill="#144005" transform="matrix(1.00, 0.00, -0.00, -1.00, 330.4, 272.7)">x</text><text xml:space="preserve" font-family="HelveticaNeue-Light,Helvetica Neue" font-size="35.6" fill="#144005" transform="matrix(1.00, 0.00, -0.00, -1.00, 347.5, 272.7)"> </text><text xml:space="preserve" font-family="HelveticaNeue-Light,Helvetica Neue" font-size="35.6" fill="#144005" transform="matrix(1.00, 0.00, -0.00, -1.00, 357.4, 272.7)">m</text><text xml:space="preserve" font-family="HelveticaNeue-Light,Helvetica Neue" font-size="35.6" fill="#144005" transform="matrix(1.00, 0.00, -0.00, -1.00, 387.1, 272.7)">e</text><text xml:space="preserve" font-family="HelveticaNeue-Light,Helvetica Neue" font-size="35.6" fill="#144005" transform="matrix(1.00, 0.00, -0.00, -1.00, 405.6, 272.7)">n</text><text xml:space="preserve" font-family="HelveticaNeue-Light,Helvetica Neue" font-size="35.6" fill="#144005" transform="matrix(1.00, 0.00, -0.00, -1.00, 424.8, 272.7)">/</text><text xml:space="preserve" font-family="HelveticaNeue-Light,Helvetica Neue" font-size="35.6" fill="#144005" transform="matrix(1.00, 0.00, -0.00, -1.00, 436.6, 272.7)">w</text><text xml:space="preserve" font-family="HelveticaNeue-Light,Helvetica Neue" font-size="35.6" fill="#144005" transform="matrix(1.00, 0.00, -0.00, -1.00, 463.0, 272.7)">o</text><text xml:space="preserve" font-family="HelveticaNeue-Light,Helvetica Neue" font-size="35.6" fill="#144005" transform="matrix(1.00, 0.00, -0.00, -1.00, 482.9, 272.7)">m</text><text xml:space="preserve" font-family="HelveticaNeue-Light,Helvetica Neue" font-size="35.6" fill="#144005" transform="matrix(1.00, 0.00, -0.00, -1.00, 512.5, 272.7)">e</text><text xml:space="preserve" font-family="HelveticaNeue-Light,Helvetica Neue" font-size="35.6" fill="#144005" transform="matrix(1.00, 0.00, -0.00, -1.00, 531.0, 272.7)">n</text><text xml:space="preserve" font-family="HelveticaNeue-Light,Helvetica Neue" font-size="35.6" fill="#144005" transform="matrix(1.00, 0.00, -0.00, -1.00, 550.2, 272.7)"> </text><text xml:space="preserve" font-family="HelveticaNeue-Light,Helvetica Neue" font-size="35.6" fill="#144005" transform="matrix(1.00, 0.00, -0.00, -1.00, 560.1, 272.7)">p</text><text xml:space="preserve" font-family="HelveticaNeue-Light,Helvetica Neue" font-size="35.6" fill="#144005" transform="matrix(1.00, 0.00, -0.00, -1.00, 580.5, 272.7)">a</text><text xml:space="preserve" font-family="HelveticaNeue-Light,Helvetica Neue" font-size="35.6" fill="#144005" transform="matrix(1.00, 0.00, -0.00, -1.00, 599.0, 272.7)">r</text><text xml:space="preserve" font-family="HelveticaNeue-Light,Helvetica Neue" font-size="35.6" fill="#144005" transform="matrix(1.00, 0.00, -0.00, -1.00, 610.3, 272.7)">t</text><text xml:space="preserve" font-family="HelveticaNeue-Light,Helvetica Neue" font-size="35.6" fill="#144005" transform="matrix(1.00, 0.00, -0.00, -1.00, 620.8, 272.7)">n</text><text xml:space="preserve" font-family="HelveticaNeue-Light,Helvetica Neue" font-size="35.6" fill="#144005" transform="matrix(1.00, 0.00, -0.00, -1.00, 640.0, 272.7)">e</text><text xml:space="preserve" font-family="HelveticaNeue-Light,Helvetica Neue" font-size="35.6" fill="#144005" transform="matrix(1.00, 0.00, -0.00, -1.00, 658.5, 272.7)">r</text><text xml:space="preserve" font-family="HelveticaNeue-Light,Helvetica Neue" font-size="35.6" fill="#144005" transform="matrix(1.00, 0.00, -0.00, -1.00, 669.7, 272.7)">s</text><text xml:space="preserve" font-family="HelveticaNeue-Light,Helvetica Neue" font-size="35.6" fill="#144005" transform="matrix(1.00, 0.00, -0.00, -1.00, 686.8, 272.7)"> </text><image xlink:href="588210303C9FA856ECF4E822E30C23E0.png" width="19.00" height="19.00" transform="matrix(1.00, 0.00, -0.00, -1.00, 63.0, 213.0)"></image><text xml:space="preserve" font-family="HelveticaNeue-Light,Helvetica Neue" font-size="26.7" fill="#144005" transform="matrix(1.00, 0.00, -0.00, -1.00, 66.0, 197.0)">•</text><image xlink:href="6B711CC6D25251AFE3C8C409BA82C3AC.png" width="749.00" height="42.00" transform="matrix(1.00, 0.00, -0.00, -1.00, 99.0, 221.0)"></image><text xml:space="preserve" font-family="HelveticaNeue-Light,Helvetica Neue" font-size="35.6" fill="#144005" transform="matrix(1.00, 0.00, -0.00, -1.00, 100.7, 194.1)">M</text><text xml:space="preserve" font-family="HelveticaNeue-Light,Helvetica Neue" font-size="35.6" fill="#144005" transform="matrix(1.00, 0.00, -0.00, -1.00, 129.9, 194.1)">i</text><text xml:space="preserve" font-family="HelveticaNeue-Light,Helvetica Neue" font-size="35.6" fill="#144005" transform="matrix(1.00, 0.00, -0.00, -1.00, 136.5, 194.1)">n</text><text xml:space="preserve" font-family="HelveticaNeue-Light,Helvetica Neue" font-size="35.6" fill="#144005" transform="matrix(1.00, 0.00, -0.00, -1.00, 155.6, 194.1)">i</text><text xml:space="preserve" font-family="HelveticaNeue-Light,Helvetica Neue" font-size="35.6" fill="#144005" transform="matrix(1.00, 0.00, -0.00, -1.00, 162.2, 194.1)">m</text><text xml:space="preserve" font-family="HelveticaNeue-Light,Helvetica Neue" font-size="35.6" fill="#144005" transform="matrix(1.00, 0.00, -0.00, -1.00, 191.9, 194.1)">i</text><text xml:space="preserve" font-family="HelveticaNeue-Light,Helvetica Neue" font-size="35.6" fill="#144005" transform="matrix(1.00, 0.00, -0.00, -1.00, 198.5, 194.1)">z</text><text xml:space="preserve" font-family="HelveticaNeue-Light,Helvetica Neue" font-size="35.6" fill="#144005" transform="matrix(1.00, 0.00, -0.00, -1.00, 215.0, 194.1)">e</text><text xml:space="preserve" font-family="HelveticaNeue-Light,Helvetica Neue" font-size="35.6" fill="#144005" transform="matrix(1.00, 0.00, -0.00, -1.00, 233.5, 194.1)"> </text><text xml:space="preserve" font-family="HelveticaNeue-Light,Helvetica Neue" font-size="35.6" fill="#144005" transform="matrix(1.00, 0.00, -0.00, -1.00, 243.4, 194.1)">t</text><text xml:space="preserve" font-family="HelveticaNeue-Light,Helvetica Neue" font-size="35.6" fill="#144005" transform="matrix(1.00, 0.00, -0.00, -1.00, 254.0, 194.1)">h</text><text xml:space="preserve" font-family="HelveticaNeue-Light,Helvetica Neue" font-size="35.6" fill="#144005" transform="matrix(1.00, 0.00, -0.00, -1.00, 273.1, 194.1)">e</text><text xml:space="preserve" font-family="HelveticaNeue-Light,Helvetica Neue" font-size="35.6" fill="#144005" transform="matrix(1.00, 0.00, -0.00, -1.00, 291.6, 194.1)"> </text><text xml:space="preserve" font-family="HelveticaNeue-Light,Helvetica Neue" font-size="35.6" fill="#144005" transform="matrix(1.00, 0.00, -0.00, -1.00, 301.5, 194.1)">s</text><text xml:space="preserve" font-family="HelveticaNeue-Light,Helvetica Neue" font-size="35.6" fill="#144005" transform="matrix(1.00, 0.00, -0.00, -1.00, 318.7, 194.1)">t</text><text xml:space="preserve" font-family="HelveticaNeue-Light,Helvetica Neue" font-size="35.6" fill="#144005" transform="matrix(1.00, 0.00, -0.00, -1.00, 329.2, 194.1)">r</text><text xml:space="preserve" font-family="HelveticaNeue-Light,Helvetica Neue" font-size="35.6" fill="#144005" transform="matrix(1.00, 0.00, -0.00, -1.00, 339.8, 194.1)">e</text><text xml:space="preserve" font-family="HelveticaNeue-Light,Helvetica Neue" font-size="35.6" fill="#144005" transform="matrix(1.00, 0.00, -0.00, -1.00, 358.3, 194.1)">n</text><text xml:space="preserve" font-family="HelveticaNeue-Light,Helvetica Neue" font-size="35.6" fill="#144005" transform="matrix(1.00, 0.00, -0.00, -1.00, 377.4, 194.1)">g</text><text xml:space="preserve" font-family="HelveticaNeue-Light,Helvetica Neue" font-size="35.6" fill="#144005" transform="matrix(1.00, 0.00, -0.00, -1.00, 397.2, 194.1)">t</text><text xml:space="preserve" font-family="HelveticaNeue-Light,Helvetica Neue" font-size="35.6" fill="#144005" transform="matrix(1.00, 0.00, -0.00, -1.00, 407.8, 194.1)">h</text><text xml:space="preserve" font-family="HelveticaNeue-Light,Helvetica Neue" font-size="35.6" fill="#144005" transform="matrix(1.00, 0.00, -0.00, -1.00, 426.9, 194.1)"> </text><text xml:space="preserve" font-family="HelveticaNeue-Light,Helvetica Neue" font-size="35.6" fill="#144005" transform="matrix(1.00, 0.00, -0.00, -1.00, 436.8, 194.1)">d</text><text xml:space="preserve" font-family="HelveticaNeue-Light,Helvetica Neue" font-size="35.6" fill="#144005" transform="matrix(1.00, 0.00, -0.00, -1.00, 457.3, 194.1)">i</text><text xml:space="preserve" font-family="HelveticaNeue-Light,Helvetica Neue" font-size="35.6" fill="#144005" transform="matrix(1.00, 0.00, -0.00, -1.00, 463.9, 194.1)">f</text><text xml:space="preserve" font-family="HelveticaNeue-Light,Helvetica Neue" font-size="35.6" fill="#144005" transform="matrix(1.00, 0.00, -0.00, -1.00, 472.5, 194.1)">f</text><text xml:space="preserve" font-family="HelveticaNeue-Light,Helvetica Neue" font-size="35.6" fill="#144005" transform="matrix(1.00, 0.00, -0.00, -1.00, 481.7, 194.1)">e</text><text xml:space="preserve" font-family="HelveticaNeue-Light,Helvetica Neue" font-size="35.6" fill="#144005" transform="matrix(1.00, 0.00, -0.00, -1.00, 500.2, 194.1)">r</text><text xml:space="preserve" font-family="HelveticaNeue-Light,Helvetica Neue" font-size="35.6" fill="#144005" transform="matrix(1.00, 0.00, -0.00, -1.00, 510.8, 194.1)">e</text><text xml:space="preserve" font-family="HelveticaNeue-Light,Helvetica Neue" font-size="35.6" fill="#144005" transform="matrix(1.00, 0.00, -0.00, -1.00, 529.3, 194.1)">n</text><text xml:space="preserve" font-family="HelveticaNeue-Light,Helvetica Neue" font-size="35.6" fill="#144005" transform="matrix(1.00, 0.00, -0.00, -1.00, 548.4, 194.1)">c</text><text xml:space="preserve" font-family="HelveticaNeue-Light,Helvetica Neue" font-size="35.6" fill="#144005" transform="matrix(1.00, 0.00, -0.00, -1.00, 566.9, 194.1)">e</text><text xml:space="preserve" font-family="HelveticaNeue-Light,Helvetica Neue" font-size="35.6" fill="#144005" transform="matrix(1.00, 0.00, -0.00, -1.00, 585.4, 194.1)"> </text><text xml:space="preserve" font-family="HelveticaNeue-Light,Helvetica Neue" font-size="35.6" fill="#144005" transform="matrix(1.00, 0.00, -0.00, -1.00, 595.3, 194.1)">a</text><text xml:space="preserve" font-family="HelveticaNeue-Light,Helvetica Neue" font-size="35.6" fill="#144005" transform="matrix(1.00, 0.00, -0.00, -1.00, 613.8, 194.1)">c</text><text xml:space="preserve" font-family="HelveticaNeue-Light,Helvetica Neue" font-size="35.6" fill="#144005" transform="matrix(1.00, 0.00, -0.00, -1.00, 632.3, 194.1)">r</text><text xml:space="preserve" font-family="HelveticaNeue-Light,Helvetica Neue" font-size="35.6" fill="#144005" transform="matrix(1.00, 0.00, -0.00, -1.00, 642.9, 194.1)">o</text><text xml:space="preserve" font-family="HelveticaNeue-Light,Helvetica Neue" font-size="35.6" fill="#144005" transform="matrix(1.00, 0.00, -0.00, -1.00, 662.7, 194.1)">s</text><text xml:space="preserve" font-family="HelveticaNeue-Light,Helvetica Neue" font-size="35.6" fill="#144005" transform="matrix(1.00, 0.00, -0.00, -1.00, 679.9, 194.1)">s</text><text xml:space="preserve" font-family="HelveticaNeue-Light,Helvetica Neue" font-size="35.6" fill="#144005" transform="matrix(1.00, 0.00, -0.00, -1.00, 697.0, 194.1)"> </text><text xml:space="preserve" font-family="HelveticaNeue-Light,Helvetica Neue" font-size="35.6" fill="#144005" transform="matrix(1.00, 0.00, -0.00, -1.00, 706.9, 194.1)">t</text><text xml:space="preserve" font-family="HelveticaNeue-Light,Helvetica Neue" font-size="35.6" fill="#144005" transform="matrix(1.00, 0.00, -0.00, -1.00, 717.5, 194.1)">h</text><text xml:space="preserve" font-family="HelveticaNeue-Light,Helvetica Neue" font-size="35.6" fill="#144005" transform="matrix(1.00, 0.00, -0.00, -1.00, 736.6, 194.1)">e</text><text xml:space="preserve" font-family="HelveticaNeue-Light,Helvetica Neue" font-size="35.6" fill="#144005" transform="matrix(1.00, 0.00, -0.00, -1.00, 755.1, 194.1)"> </text><text xml:space="preserve" font-family="HelveticaNeue-Light,Helvetica Neue" font-size="35.6" fill="#144005" transform="matrix(1.00, 0.00, -0.00, -1.00, 765.0, 194.1)">c</text><text xml:space="preserve" font-family="HelveticaNeue-Light,Helvetica Neue" font-size="35.6" fill="#144005" transform="matrix(1.00, 0.00, -0.00, -1.00, 783.5, 194.1)">o</text><text xml:space="preserve" font-family="HelveticaNeue-Light,Helvetica Neue" font-size="35.6" fill="#144005" transform="matrix(1.00, 0.00, -0.00, -1.00, 803.3, 194.1)">u</text><text xml:space="preserve" font-family="HelveticaNeue-Light,Helvetica Neue" font-size="35.6" fill="#144005" transform="matrix(1.00, 0.00, -0.00, -1.00, 822.5, 194.1)">r</text><text xml:space="preserve" font-family="HelveticaNeue-Light,Helvetica Neue" font-size="35.6" fill="#144005" transform="matrix(1.00, 0.00, -0.00, -1.00, 833.7, 194.1)">t</text><text xml:space="preserve" font-family="HelveticaNeue-Light,Helvetica Neue" font-size="35.6" fill="#144005" transform="matrix(1.00, 0.00, -0.00, -1.00, 844.2, 194.1)"> </text><image xlink:href="F27F7D891FC29EAC33534D0708183919.png" width="19.00" height="18.00" transform="matrix(1.00, 0.00, -0.00, -1.00, 98.0, 134.0)"></image><text xml:space="preserve" font-family="HelveticaNeue-Light,Helvetica Neue" font-size="26.7" fill="#144005" transform="matrix(1.00, 0.00, -0.00, -1.00, 101.0, 118.4)">•</text><image xlink:href="0F6F70E89E8209D11C92BAE40498F7A4.png" width="493.00" height="41.00" transform="matrix(1.00, 0.00, -0.00, -1.00, 134.0, 142.0)"></image><text xml:space="preserve" font-family="HelveticaNeue-Light,Helvetica Neue" font-size="35.6" fill="#144005" transform="matrix(1.00, 0.00, -0.00, -1.00, 135.7, 115.4)">D</text><text xml:space="preserve" font-family="HelveticaNeue-Light,Helvetica Neue" font-size="35.6" fill="#144005" transform="matrix(1.00, 0.00, -0.00, -1.00, 160.1, 115.4)">o</text><text xml:space="preserve" font-family="HelveticaNeue-Light,Helvetica Neue" font-size="35.6" fill="#144005" transform="matrix(1.00, 0.00, -0.00, -1.00, 179.9, 115.4)">n</text><text xml:space="preserve" font-family="HelveticaNeue-Light,Helvetica Neue" font-size="35.6" fill="#144005" transform="matrix(1.00, 0.00, -0.00, -1.00, 199.0, 115.4)">’</text><text xml:space="preserve" font-family="HelveticaNeue-Light,Helvetica Neue" font-size="35.6" fill="#144005" transform="matrix(1.00, 0.00, -0.00, -1.00, 208.3, 115.4)">t</text><text xml:space="preserve" font-family="HelveticaNeue-Light,Helvetica Neue" font-size="35.6" fill="#144005" transform="matrix(1.00, 0.00, -0.00, -1.00, 218.8, 115.4)"> </text><text xml:space="preserve" font-family="HelveticaNeue-Light,Helvetica Neue" font-size="35.6" fill="#144005" transform="matrix(1.00, 0.00, -0.00, -1.00, 228.7, 115.4)">p</text><text xml:space="preserve" font-family="HelveticaNeue-Light,Helvetica Neue" font-size="35.6" fill="#144005" transform="matrix(1.00, 0.00, -0.00, -1.00, 249.2, 115.4)">u</text><text xml:space="preserve" font-family="HelveticaNeue-Light,Helvetica Neue" font-size="35.6" fill="#144005" transform="matrix(1.00, 0.00, -0.00, -1.00, 268.3, 115.4)">t</text><text xml:space="preserve" font-family="HelveticaNeue-Light,Helvetica Neue" font-size="35.6" fill="#144005" transform="matrix(1.00, 0.00, -0.00, -1.00, 278.9, 115.4)"> </text><text xml:space="preserve" font-family="HelveticaNeue-Light,Helvetica Neue" font-size="35.6" fill="#144005" transform="matrix(1.00, 0.00, -0.00, -1.00, 288.8, 115.4)">2</text><text xml:space="preserve" font-family="HelveticaNeue-Light,Helvetica Neue" font-size="35.6" fill="#144005" transform="matrix(1.00, 0.00, -0.00, -1.00, 308.6, 115.4)"> </text><text xml:space="preserve" font-family="HelveticaNeue-Light,Helvetica Neue" font-size="35.6" fill="#144005" transform="matrix(1.00, 0.00, -0.00, -1.00, 318.5, 115.4)">4</text><text xml:space="preserve" font-family="HelveticaNeue-Light,Helvetica Neue" font-size="35.6" fill="#144005" transform="matrix(1.00, 0.00, -0.00, -1.00, 338.3, 115.4)">.</text><text xml:space="preserve" font-family="HelveticaNeue-Light,Helvetica Neue" font-size="35.6" fill="#144005" transform="matrix(1.00, 0.00, -0.00, -1.00, 348.2, 115.4)">5</text><text xml:space="preserve" font-family="HelveticaNeue-Light,Helvetica Neue" font-size="35.6" fill="#144005" transform="matrix(1.00, 0.00, -0.00, -1.00, 368.1, 115.4)">’</text><text xml:space="preserve" font-family="HelveticaNeue-Light,Helvetica Neue" font-size="35.6" fill="#144005" transform="matrix(1.00, 0.00, -0.00, -1.00, 374.0, 115.4)">s</text><text xml:space="preserve" font-family="HelveticaNeue-Light,Helvetica Neue" font-size="35.6" fill="#144005" transform="matrix(1.00, 0.00, -0.00, -1.00, 391.2, 115.4)"> </text><text xml:space="preserve" font-family="HelveticaNeue-Light,Helvetica Neue" font-size="35.6" fill="#144005" transform="matrix(1.00, 0.00, -0.00, -1.00, 401.1, 115.4)">a</text><text xml:space="preserve" font-family="HelveticaNeue-Light,Helvetica Neue" font-size="35.6" fill="#144005" transform="matrix(1.00, 0.00, -0.00, -1.00, 419.6, 115.4)">g</text><text xml:space="preserve" font-family="HelveticaNeue-Light,Helvetica Neue" font-size="35.6" fill="#144005" transform="matrix(1.00, 0.00, -0.00, -1.00, 439.4, 115.4)">a</text><text xml:space="preserve" font-family="HelveticaNeue-Light,Helvetica Neue" font-size="35.6" fill="#144005" transform="matrix(1.00, 0.00, -0.00, -1.00, 457.9, 115.4)">i</text><text xml:space="preserve" font-family="HelveticaNeue-Light,Helvetica Neue" font-size="35.6" fill="#144005" transform="matrix(1.00, 0.00, -0.00, -1.00, 464.5, 115.4)">n</text><text xml:space="preserve" font-family="HelveticaNeue-Light,Helvetica Neue" font-size="35.6" fill="#144005" transform="matrix(1.00, 0.00, -0.00, -1.00, 483.6, 115.4)">s</text><text xml:space="preserve" font-family="HelveticaNeue-Light,Helvetica Neue" font-size="35.6" fill="#144005" transform="matrix(1.00, 0.00, -0.00, -1.00, 500.7, 115.4)">t</text><text xml:space="preserve" font-family="HelveticaNeue-Light,Helvetica Neue" font-size="35.6" fill="#144005" transform="matrix(1.00, 0.00, -0.00, -1.00, 511.3, 115.4)"> </text><text xml:space="preserve" font-family="HelveticaNeue-Light,Helvetica Neue" font-size="35.6" fill="#144005" transform="matrix(1.00, 0.00, -0.00, -1.00, 521.2, 115.4)">2</text><text xml:space="preserve" font-family="HelveticaNeue-Light,Helvetica Neue" font-size="35.6" fill="#144005" transform="matrix(1.00, 0.00, -0.00, -1.00, 541.0, 115.4)"> </text><text xml:space="preserve" font-family="HelveticaNeue-Light,Helvetica Neue" font-size="35.6" fill="#144005" transform="matrix(1.00, 0.00, -0.00, -1.00, 550.9, 115.4)">3</text><text xml:space="preserve" font-family="HelveticaNeue-Light,Helvetica Neue" font-size="35.6" fill="#144005" transform="matrix(1.00, 0.00, -0.00, -1.00, 570.7, 115.4)">.</text><text xml:space="preserve" font-family="HelveticaNeue-Light,Helvetica Neue" font-size="35.6" fill="#144005" transform="matrix(1.00, 0.00, -0.00, -1.00, 580.7, 115.4)">5</text><text xml:space="preserve" font-family="HelveticaNeue-Light,Helvetica Neue" font-size="35.6" fill="#144005" transform="matrix(1.00, 0.00, -0.00, -1.00, 600.5, 115.4)">’</text><text xml:space="preserve" font-family="HelveticaNeue-Light,Helvetica Neue" font-size="35.6" fill="#144005" transform="matrix(1.00, 0.00, -0.00, -1.00, 606.4, 115.4)">s</text></g></svg>